<?xml version="1.0" encoding="utf-8" standalone="no"?>
<!DOCTYPE svg PUBLIC "-//W3C//DTD SVG 1.1//EN"
  "http://www.w3.org/Graphics/SVG/1.1/DTD/svg11.dtd">
<!-- Created with matplotlib (https://matplotlib.org/) -->
<svg height="576pt" version="1.1" viewBox="0 0 576 576" width="576pt" xmlns="http://www.w3.org/2000/svg" xmlns:xlink="http://www.w3.org/1999/xlink">
 <metadata>
  <rdf:RDF xmlns:cc="http://creativecommons.org/ns#" xmlns:dc="http://purl.org/dc/elements/1.1/" xmlns:rdf="http://www.w3.org/1999/02/22-rdf-syntax-ns#">
   <cc:Work>
    <dc:type rdf:resource="http://purl.org/dc/dcmitype/StillImage"/>
    <dc:date>2021-02-05T11:37:37.581297</dc:date>
    <dc:format>image/svg+xml</dc:format>
    <dc:creator>
     <cc:Agent>
      <dc:title>Matplotlib v3.3.4, https://matplotlib.org/</dc:title>
     </cc:Agent>
    </dc:creator>
   </cc:Work>
  </rdf:RDF>
 </metadata>
 <defs>
  <style type="text/css">*{stroke-linecap:butt;stroke-linejoin:round;}</style>
 </defs>
 <g id="figure_1">
  <g id="patch_1">
   <path d="M 0 576 
L 576 576 
L 576 0 
L 0 0 
z
" style="fill:#ffffff;"/>
  </g>
  <g id="axes_1">
   <g id="patch_2">
    <path d="M 155.84 525.78 
L 563.04 525.78 
L 563.04 12.96 
L 155.84 12.96 
z
" style="fill:#eaeaf2;"/>
   </g>
   <g id="matplotlib.axis_1">
    <g id="xtick_1">
     <g id="line2d_1">
      <path clip-path="url(#p7c2eb5795e)" d="M 202.788911 525.78 
L 202.788911 12.96 
" style="fill:none;stroke:#ffffff;stroke-linecap:round;"/>
     </g>
     <g id="text_1">
      <!-- 0.4 -->
      <g style="fill:#262626;" transform="translate(194.042192 543.638281)scale(0.11 -0.11)">
       <defs>
        <path d="M 31.78125 66.40625 
Q 24.171875 66.40625 20.328125 58.90625 
Q 16.5 51.421875 16.5 36.375 
Q 16.5 21.390625 20.328125 13.890625 
Q 24.171875 6.390625 31.78125 6.390625 
Q 39.453125 6.390625 43.28125 13.890625 
Q 47.125 21.390625 47.125 36.375 
Q 47.125 51.421875 43.28125 58.90625 
Q 39.453125 66.40625 31.78125 66.40625 
z
M 31.78125 74.21875 
Q 44.046875 74.21875 50.515625 64.515625 
Q 56.984375 54.828125 56.984375 36.375 
Q 56.984375 17.96875 50.515625 8.265625 
Q 44.046875 -1.421875 31.78125 -1.421875 
Q 19.53125 -1.421875 13.0625 8.265625 
Q 6.59375 17.96875 6.59375 36.375 
Q 6.59375 54.828125 13.0625 64.515625 
Q 19.53125 74.21875 31.78125 74.21875 
z
" id="DejaVuSans-48"/>
        <path d="M 10.6875 12.40625 
L 21 12.40625 
L 21 0 
L 10.6875 0 
z
" id="DejaVuSans-46"/>
        <path d="M 37.796875 64.3125 
L 12.890625 25.390625 
L 37.796875 25.390625 
z
M 35.203125 72.90625 
L 47.609375 72.90625 
L 47.609375 25.390625 
L 58.015625 25.390625 
L 58.015625 17.1875 
L 47.609375 17.1875 
L 47.609375 0 
L 37.796875 0 
L 37.796875 17.1875 
L 4.890625 17.1875 
L 4.890625 26.703125 
z
" id="DejaVuSans-52"/>
       </defs>
       <use xlink:href="#DejaVuSans-48"/>
       <use x="63.623047" xlink:href="#DejaVuSans-46"/>
       <use x="95.410156" xlink:href="#DejaVuSans-52"/>
      </g>
     </g>
    </g>
    <g id="xtick_2">
     <g id="line2d_2">
      <path clip-path="url(#p7c2eb5795e)" d="M 270.021561 525.78 
L 270.021561 12.96 
" style="fill:none;stroke:#ffffff;stroke-linecap:round;"/>
     </g>
     <g id="text_2">
      <!-- 0.5 -->
      <g style="fill:#262626;" transform="translate(261.274842 543.638281)scale(0.11 -0.11)">
       <defs>
        <path d="M 10.796875 72.90625 
L 49.515625 72.90625 
L 49.515625 64.59375 
L 19.828125 64.59375 
L 19.828125 46.734375 
Q 21.96875 47.46875 24.109375 47.828125 
Q 26.265625 48.1875 28.421875 48.1875 
Q 40.625 48.1875 47.75 41.5 
Q 54.890625 34.8125 54.890625 23.390625 
Q 54.890625 11.625 47.5625 5.09375 
Q 40.234375 -1.421875 26.90625 -1.421875 
Q 22.3125 -1.421875 17.546875 -0.640625 
Q 12.796875 0.140625 7.71875 1.703125 
L 7.71875 11.625 
Q 12.109375 9.234375 16.796875 8.0625 
Q 21.484375 6.890625 26.703125 6.890625 
Q 35.15625 6.890625 40.078125 11.328125 
Q 45.015625 15.765625 45.015625 23.390625 
Q 45.015625 31 40.078125 35.4375 
Q 35.15625 39.890625 26.703125 39.890625 
Q 22.75 39.890625 18.8125 39.015625 
Q 14.890625 38.140625 10.796875 36.28125 
z
" id="DejaVuSans-53"/>
       </defs>
       <use xlink:href="#DejaVuSans-48"/>
       <use x="63.623047" xlink:href="#DejaVuSans-46"/>
       <use x="95.410156" xlink:href="#DejaVuSans-53"/>
      </g>
     </g>
    </g>
    <g id="xtick_3">
     <g id="line2d_3">
      <path clip-path="url(#p7c2eb5795e)" d="M 337.25421 525.78 
L 337.25421 12.96 
" style="fill:none;stroke:#ffffff;stroke-linecap:round;"/>
     </g>
     <g id="text_3">
      <!-- 0.6 -->
      <g style="fill:#262626;" transform="translate(328.507492 543.638281)scale(0.11 -0.11)">
       <defs>
        <path d="M 33.015625 40.375 
Q 26.375 40.375 22.484375 35.828125 
Q 18.609375 31.296875 18.609375 23.390625 
Q 18.609375 15.53125 22.484375 10.953125 
Q 26.375 6.390625 33.015625 6.390625 
Q 39.65625 6.390625 43.53125 10.953125 
Q 47.40625 15.53125 47.40625 23.390625 
Q 47.40625 31.296875 43.53125 35.828125 
Q 39.65625 40.375 33.015625 40.375 
z
M 52.59375 71.296875 
L 52.59375 62.3125 
Q 48.875 64.0625 45.09375 64.984375 
Q 41.3125 65.921875 37.59375 65.921875 
Q 27.828125 65.921875 22.671875 59.328125 
Q 17.53125 52.734375 16.796875 39.40625 
Q 19.671875 43.65625 24.015625 45.921875 
Q 28.375 48.1875 33.59375 48.1875 
Q 44.578125 48.1875 50.953125 41.515625 
Q 57.328125 34.859375 57.328125 23.390625 
Q 57.328125 12.15625 50.6875 5.359375 
Q 44.046875 -1.421875 33.015625 -1.421875 
Q 20.359375 -1.421875 13.671875 8.265625 
Q 6.984375 17.96875 6.984375 36.375 
Q 6.984375 53.65625 15.1875 63.9375 
Q 23.390625 74.21875 37.203125 74.21875 
Q 40.921875 74.21875 44.703125 73.484375 
Q 48.484375 72.75 52.59375 71.296875 
z
" id="DejaVuSans-54"/>
       </defs>
       <use xlink:href="#DejaVuSans-48"/>
       <use x="63.623047" xlink:href="#DejaVuSans-46"/>
       <use x="95.410156" xlink:href="#DejaVuSans-54"/>
      </g>
     </g>
    </g>
    <g id="xtick_4">
     <g id="line2d_4">
      <path clip-path="url(#p7c2eb5795e)" d="M 404.48686 525.78 
L 404.48686 12.96 
" style="fill:none;stroke:#ffffff;stroke-linecap:round;"/>
     </g>
     <g id="text_4">
      <!-- 0.7 -->
      <g style="fill:#262626;" transform="translate(395.740141 543.638281)scale(0.11 -0.11)">
       <defs>
        <path d="M 8.203125 72.90625 
L 55.078125 72.90625 
L 55.078125 68.703125 
L 28.609375 0 
L 18.3125 0 
L 43.21875 64.59375 
L 8.203125 64.59375 
z
" id="DejaVuSans-55"/>
       </defs>
       <use xlink:href="#DejaVuSans-48"/>
       <use x="63.623047" xlink:href="#DejaVuSans-46"/>
       <use x="95.410156" xlink:href="#DejaVuSans-55"/>
      </g>
     </g>
    </g>
    <g id="xtick_5">
     <g id="line2d_5">
      <path clip-path="url(#p7c2eb5795e)" d="M 471.71951 525.78 
L 471.71951 12.96 
" style="fill:none;stroke:#ffffff;stroke-linecap:round;"/>
     </g>
     <g id="text_5">
      <!-- 0.8 -->
      <g style="fill:#262626;" transform="translate(462.972791 543.638281)scale(0.11 -0.11)">
       <defs>
        <path d="M 31.78125 34.625 
Q 24.75 34.625 20.71875 30.859375 
Q 16.703125 27.09375 16.703125 20.515625 
Q 16.703125 13.921875 20.71875 10.15625 
Q 24.75 6.390625 31.78125 6.390625 
Q 38.8125 6.390625 42.859375 10.171875 
Q 46.921875 13.96875 46.921875 20.515625 
Q 46.921875 27.09375 42.890625 30.859375 
Q 38.875 34.625 31.78125 34.625 
z
M 21.921875 38.8125 
Q 15.578125 40.375 12.03125 44.71875 
Q 8.5 49.078125 8.5 55.328125 
Q 8.5 64.0625 14.71875 69.140625 
Q 20.953125 74.21875 31.78125 74.21875 
Q 42.671875 74.21875 48.875 69.140625 
Q 55.078125 64.0625 55.078125 55.328125 
Q 55.078125 49.078125 51.53125 44.71875 
Q 48 40.375 41.703125 38.8125 
Q 48.828125 37.15625 52.796875 32.3125 
Q 56.78125 27.484375 56.78125 20.515625 
Q 56.78125 9.90625 50.3125 4.234375 
Q 43.84375 -1.421875 31.78125 -1.421875 
Q 19.734375 -1.421875 13.25 4.234375 
Q 6.78125 9.90625 6.78125 20.515625 
Q 6.78125 27.484375 10.78125 32.3125 
Q 14.796875 37.15625 21.921875 38.8125 
z
M 18.3125 54.390625 
Q 18.3125 48.734375 21.84375 45.5625 
Q 25.390625 42.390625 31.78125 42.390625 
Q 38.140625 42.390625 41.71875 45.5625 
Q 45.3125 48.734375 45.3125 54.390625 
Q 45.3125 60.0625 41.71875 63.234375 
Q 38.140625 66.40625 31.78125 66.40625 
Q 25.390625 66.40625 21.84375 63.234375 
Q 18.3125 60.0625 18.3125 54.390625 
z
" id="DejaVuSans-56"/>
       </defs>
       <use xlink:href="#DejaVuSans-48"/>
       <use x="63.623047" xlink:href="#DejaVuSans-46"/>
       <use x="95.410156" xlink:href="#DejaVuSans-56"/>
      </g>
     </g>
    </g>
    <g id="xtick_6">
     <g id="line2d_6">
      <path clip-path="url(#p7c2eb5795e)" d="M 538.952159 525.78 
L 538.952159 12.96 
" style="fill:none;stroke:#ffffff;stroke-linecap:round;"/>
     </g>
     <g id="text_6">
      <!-- 0.9 -->
      <g style="fill:#262626;" transform="translate(530.205441 543.638281)scale(0.11 -0.11)">
       <defs>
        <path d="M 10.984375 1.515625 
L 10.984375 10.5 
Q 14.703125 8.734375 18.5 7.8125 
Q 22.3125 6.890625 25.984375 6.890625 
Q 35.75 6.890625 40.890625 13.453125 
Q 46.046875 20.015625 46.78125 33.40625 
Q 43.953125 29.203125 39.59375 26.953125 
Q 35.25 24.703125 29.984375 24.703125 
Q 19.046875 24.703125 12.671875 31.3125 
Q 6.296875 37.9375 6.296875 49.421875 
Q 6.296875 60.640625 12.9375 67.421875 
Q 19.578125 74.21875 30.609375 74.21875 
Q 43.265625 74.21875 49.921875 64.515625 
Q 56.59375 54.828125 56.59375 36.375 
Q 56.59375 19.140625 48.40625 8.859375 
Q 40.234375 -1.421875 26.421875 -1.421875 
Q 22.703125 -1.421875 18.890625 -0.6875 
Q 15.09375 0.046875 10.984375 1.515625 
z
M 30.609375 32.421875 
Q 37.25 32.421875 41.125 36.953125 
Q 45.015625 41.5 45.015625 49.421875 
Q 45.015625 57.28125 41.125 61.84375 
Q 37.25 66.40625 30.609375 66.40625 
Q 23.96875 66.40625 20.09375 61.84375 
Q 16.21875 57.28125 16.21875 49.421875 
Q 16.21875 41.5 20.09375 36.953125 
Q 23.96875 32.421875 30.609375 32.421875 
z
" id="DejaVuSans-57"/>
       </defs>
       <use xlink:href="#DejaVuSans-48"/>
       <use x="63.623047" xlink:href="#DejaVuSans-46"/>
       <use x="95.410156" xlink:href="#DejaVuSans-57"/>
      </g>
     </g>
    </g>
    <g id="text_7">
     <!-- DSC -->
     <g style="fill:#262626;" transform="translate(346.82125 559.044062)scale(0.12 -0.12)">
      <defs>
       <path d="M 19.671875 64.796875 
L 19.671875 8.109375 
L 31.59375 8.109375 
Q 46.6875 8.109375 53.6875 14.9375 
Q 60.6875 21.78125 60.6875 36.53125 
Q 60.6875 51.171875 53.6875 57.984375 
Q 46.6875 64.796875 31.59375 64.796875 
z
M 9.8125 72.90625 
L 30.078125 72.90625 
Q 51.265625 72.90625 61.171875 64.09375 
Q 71.09375 55.28125 71.09375 36.53125 
Q 71.09375 17.671875 61.125 8.828125 
Q 51.171875 0 30.078125 0 
L 9.8125 0 
z
" id="DejaVuSans-68"/>
       <path d="M 53.515625 70.515625 
L 53.515625 60.890625 
Q 47.90625 63.578125 42.921875 64.890625 
Q 37.9375 66.21875 33.296875 66.21875 
Q 25.25 66.21875 20.875 63.09375 
Q 16.5 59.96875 16.5 54.203125 
Q 16.5 49.359375 19.40625 46.890625 
Q 22.3125 44.4375 30.421875 42.921875 
L 36.375 41.703125 
Q 47.40625 39.59375 52.65625 34.296875 
Q 57.90625 29 57.90625 20.125 
Q 57.90625 9.515625 50.796875 4.046875 
Q 43.703125 -1.421875 29.984375 -1.421875 
Q 24.8125 -1.421875 18.96875 -0.25 
Q 13.140625 0.921875 6.890625 3.21875 
L 6.890625 13.375 
Q 12.890625 10.015625 18.65625 8.296875 
Q 24.421875 6.59375 29.984375 6.59375 
Q 38.421875 6.59375 43.015625 9.90625 
Q 47.609375 13.234375 47.609375 19.390625 
Q 47.609375 24.75 44.3125 27.78125 
Q 41.015625 30.8125 33.5 32.328125 
L 27.484375 33.5 
Q 16.453125 35.6875 11.515625 40.375 
Q 6.59375 45.0625 6.59375 53.421875 
Q 6.59375 63.09375 13.40625 68.65625 
Q 20.21875 74.21875 32.171875 74.21875 
Q 37.3125 74.21875 42.625 73.28125 
Q 47.953125 72.359375 53.515625 70.515625 
z
" id="DejaVuSans-83"/>
       <path d="M 64.40625 67.28125 
L 64.40625 56.890625 
Q 59.421875 61.53125 53.78125 63.8125 
Q 48.140625 66.109375 41.796875 66.109375 
Q 29.296875 66.109375 22.65625 58.46875 
Q 16.015625 50.828125 16.015625 36.375 
Q 16.015625 21.96875 22.65625 14.328125 
Q 29.296875 6.6875 41.796875 6.6875 
Q 48.140625 6.6875 53.78125 8.984375 
Q 59.421875 11.28125 64.40625 15.921875 
L 64.40625 5.609375 
Q 59.234375 2.09375 53.4375 0.328125 
Q 47.65625 -1.421875 41.21875 -1.421875 
Q 24.65625 -1.421875 15.125 8.703125 
Q 5.609375 18.84375 5.609375 36.375 
Q 5.609375 53.953125 15.125 64.078125 
Q 24.65625 74.21875 41.21875 74.21875 
Q 47.75 74.21875 53.53125 72.484375 
Q 59.328125 70.75 64.40625 67.28125 
z
" id="DejaVuSans-67"/>
      </defs>
      <use xlink:href="#DejaVuSans-68"/>
      <use x="77.001953" xlink:href="#DejaVuSans-83"/>
      <use x="140.478516" xlink:href="#DejaVuSans-67"/>
     </g>
    </g>
   </g>
   <g id="matplotlib.axis_2">
    <g id="ytick_1">
     <g id="line2d_7">
      <path clip-path="url(#p7c2eb5795e)" d="M 155.84 34.3275 
L 563.04 34.3275 
" style="fill:none;stroke:#ffffff;stroke-linecap:round;"/>
     </g>
     <g id="text_8">
      <!-- Right IFOF -->
      <g style="fill:#262626;" transform="translate(89.320469 38.506641)scale(0.11 -0.11)">
       <defs>
        <path d="M 44.390625 34.1875 
Q 47.5625 33.109375 50.5625 29.59375 
Q 53.5625 26.078125 56.59375 19.921875 
L 66.609375 0 
L 56 0 
L 46.6875 18.703125 
Q 43.0625 26.03125 39.671875 28.421875 
Q 36.28125 30.8125 30.421875 30.8125 
L 19.671875 30.8125 
L 19.671875 0 
L 9.8125 0 
L 9.8125 72.90625 
L 32.078125 72.90625 
Q 44.578125 72.90625 50.734375 67.671875 
Q 56.890625 62.453125 56.890625 51.90625 
Q 56.890625 45.015625 53.6875 40.46875 
Q 50.484375 35.9375 44.390625 34.1875 
z
M 19.671875 64.796875 
L 19.671875 38.921875 
L 32.078125 38.921875 
Q 39.203125 38.921875 42.84375 42.21875 
Q 46.484375 45.515625 46.484375 51.90625 
Q 46.484375 58.296875 42.84375 61.546875 
Q 39.203125 64.796875 32.078125 64.796875 
z
" id="DejaVuSans-82"/>
        <path d="M 9.421875 54.6875 
L 18.40625 54.6875 
L 18.40625 0 
L 9.421875 0 
z
M 9.421875 75.984375 
L 18.40625 75.984375 
L 18.40625 64.59375 
L 9.421875 64.59375 
z
" id="DejaVuSans-105"/>
        <path d="M 45.40625 27.984375 
Q 45.40625 37.75 41.375 43.109375 
Q 37.359375 48.484375 30.078125 48.484375 
Q 22.859375 48.484375 18.828125 43.109375 
Q 14.796875 37.75 14.796875 27.984375 
Q 14.796875 18.265625 18.828125 12.890625 
Q 22.859375 7.515625 30.078125 7.515625 
Q 37.359375 7.515625 41.375 12.890625 
Q 45.40625 18.265625 45.40625 27.984375 
z
M 54.390625 6.78125 
Q 54.390625 -7.171875 48.1875 -13.984375 
Q 42 -20.796875 29.203125 -20.796875 
Q 24.46875 -20.796875 20.265625 -20.09375 
Q 16.0625 -19.390625 12.109375 -17.921875 
L 12.109375 -9.1875 
Q 16.0625 -11.328125 19.921875 -12.34375 
Q 23.78125 -13.375 27.78125 -13.375 
Q 36.625 -13.375 41.015625 -8.765625 
Q 45.40625 -4.15625 45.40625 5.171875 
L 45.40625 9.625 
Q 42.625 4.78125 38.28125 2.390625 
Q 33.9375 0 27.875 0 
Q 17.828125 0 11.671875 7.65625 
Q 5.515625 15.328125 5.515625 27.984375 
Q 5.515625 40.671875 11.671875 48.328125 
Q 17.828125 56 27.875 56 
Q 33.9375 56 38.28125 53.609375 
Q 42.625 51.21875 45.40625 46.390625 
L 45.40625 54.6875 
L 54.390625 54.6875 
z
" id="DejaVuSans-103"/>
        <path d="M 54.890625 33.015625 
L 54.890625 0 
L 45.90625 0 
L 45.90625 32.71875 
Q 45.90625 40.484375 42.875 44.328125 
Q 39.84375 48.1875 33.796875 48.1875 
Q 26.515625 48.1875 22.3125 43.546875 
Q 18.109375 38.921875 18.109375 30.90625 
L 18.109375 0 
L 9.078125 0 
L 9.078125 75.984375 
L 18.109375 75.984375 
L 18.109375 46.1875 
Q 21.34375 51.125 25.703125 53.5625 
Q 30.078125 56 35.796875 56 
Q 45.21875 56 50.046875 50.171875 
Q 54.890625 44.34375 54.890625 33.015625 
z
" id="DejaVuSans-104"/>
        <path d="M 18.3125 70.21875 
L 18.3125 54.6875 
L 36.8125 54.6875 
L 36.8125 47.703125 
L 18.3125 47.703125 
L 18.3125 18.015625 
Q 18.3125 11.328125 20.140625 9.421875 
Q 21.96875 7.515625 27.59375 7.515625 
L 36.8125 7.515625 
L 36.8125 0 
L 27.59375 0 
Q 17.1875 0 13.234375 3.875 
Q 9.28125 7.765625 9.28125 18.015625 
L 9.28125 47.703125 
L 2.6875 47.703125 
L 2.6875 54.6875 
L 9.28125 54.6875 
L 9.28125 70.21875 
z
" id="DejaVuSans-116"/>
        <path id="DejaVuSans-32"/>
        <path d="M 9.8125 72.90625 
L 19.671875 72.90625 
L 19.671875 0 
L 9.8125 0 
z
" id="DejaVuSans-73"/>
        <path d="M 9.8125 72.90625 
L 51.703125 72.90625 
L 51.703125 64.59375 
L 19.671875 64.59375 
L 19.671875 43.109375 
L 48.578125 43.109375 
L 48.578125 34.8125 
L 19.671875 34.8125 
L 19.671875 0 
L 9.8125 0 
z
" id="DejaVuSans-70"/>
        <path d="M 39.40625 66.21875 
Q 28.65625 66.21875 22.328125 58.203125 
Q 16.015625 50.203125 16.015625 36.375 
Q 16.015625 22.609375 22.328125 14.59375 
Q 28.65625 6.59375 39.40625 6.59375 
Q 50.140625 6.59375 56.421875 14.59375 
Q 62.703125 22.609375 62.703125 36.375 
Q 62.703125 50.203125 56.421875 58.203125 
Q 50.140625 66.21875 39.40625 66.21875 
z
M 39.40625 74.21875 
Q 54.734375 74.21875 63.90625 63.9375 
Q 73.09375 53.65625 73.09375 36.375 
Q 73.09375 19.140625 63.90625 8.859375 
Q 54.734375 -1.421875 39.40625 -1.421875 
Q 24.03125 -1.421875 14.8125 8.828125 
Q 5.609375 19.09375 5.609375 36.375 
Q 5.609375 53.65625 14.8125 63.9375 
Q 24.03125 74.21875 39.40625 74.21875 
z
" id="DejaVuSans-79"/>
       </defs>
       <use xlink:href="#DejaVuSans-82"/>
       <use x="69.482422" xlink:href="#DejaVuSans-105"/>
       <use x="97.265625" xlink:href="#DejaVuSans-103"/>
       <use x="160.742188" xlink:href="#DejaVuSans-104"/>
       <use x="224.121094" xlink:href="#DejaVuSans-116"/>
       <use x="263.330078" xlink:href="#DejaVuSans-32"/>
       <use x="295.117188" xlink:href="#DejaVuSans-73"/>
       <use x="324.609375" xlink:href="#DejaVuSans-70"/>
       <use x="382.128906" xlink:href="#DejaVuSans-79"/>
       <use x="460.839844" xlink:href="#DejaVuSans-70"/>
      </g>
     </g>
    </g>
    <g id="ytick_2">
     <g id="line2d_8">
      <path clip-path="url(#p7c2eb5795e)" d="M 155.84 77.0625 
L 563.04 77.0625 
" style="fill:none;stroke:#ffffff;stroke-linecap:round;"/>
     </g>
     <g id="text_9">
      <!-- Right Uncinate -->
      <g style="fill:#262626;" transform="translate(64.958906 81.241641)scale(0.11 -0.11)">
       <defs>
        <path d="M 8.6875 72.90625 
L 18.609375 72.90625 
L 18.609375 28.609375 
Q 18.609375 16.890625 22.84375 11.734375 
Q 27.09375 6.59375 36.625 6.59375 
Q 46.09375 6.59375 50.34375 11.734375 
Q 54.59375 16.890625 54.59375 28.609375 
L 54.59375 72.90625 
L 64.5 72.90625 
L 64.5 27.390625 
Q 64.5 13.140625 57.4375 5.859375 
Q 50.390625 -1.421875 36.625 -1.421875 
Q 22.796875 -1.421875 15.734375 5.859375 
Q 8.6875 13.140625 8.6875 27.390625 
z
" id="DejaVuSans-85"/>
        <path d="M 54.890625 33.015625 
L 54.890625 0 
L 45.90625 0 
L 45.90625 32.71875 
Q 45.90625 40.484375 42.875 44.328125 
Q 39.84375 48.1875 33.796875 48.1875 
Q 26.515625 48.1875 22.3125 43.546875 
Q 18.109375 38.921875 18.109375 30.90625 
L 18.109375 0 
L 9.078125 0 
L 9.078125 54.6875 
L 18.109375 54.6875 
L 18.109375 46.1875 
Q 21.34375 51.125 25.703125 53.5625 
Q 30.078125 56 35.796875 56 
Q 45.21875 56 50.046875 50.171875 
Q 54.890625 44.34375 54.890625 33.015625 
z
" id="DejaVuSans-110"/>
        <path d="M 48.78125 52.59375 
L 48.78125 44.1875 
Q 44.96875 46.296875 41.140625 47.34375 
Q 37.3125 48.390625 33.40625 48.390625 
Q 24.65625 48.390625 19.8125 42.84375 
Q 14.984375 37.3125 14.984375 27.296875 
Q 14.984375 17.28125 19.8125 11.734375 
Q 24.65625 6.203125 33.40625 6.203125 
Q 37.3125 6.203125 41.140625 7.25 
Q 44.96875 8.296875 48.78125 10.40625 
L 48.78125 2.09375 
Q 45.015625 0.34375 40.984375 -0.53125 
Q 36.96875 -1.421875 32.421875 -1.421875 
Q 20.0625 -1.421875 12.78125 6.34375 
Q 5.515625 14.109375 5.515625 27.296875 
Q 5.515625 40.671875 12.859375 48.328125 
Q 20.21875 56 33.015625 56 
Q 37.15625 56 41.109375 55.140625 
Q 45.0625 54.296875 48.78125 52.59375 
z
" id="DejaVuSans-99"/>
        <path d="M 34.28125 27.484375 
Q 23.390625 27.484375 19.1875 25 
Q 14.984375 22.515625 14.984375 16.5 
Q 14.984375 11.71875 18.140625 8.90625 
Q 21.296875 6.109375 26.703125 6.109375 
Q 34.1875 6.109375 38.703125 11.40625 
Q 43.21875 16.703125 43.21875 25.484375 
L 43.21875 27.484375 
z
M 52.203125 31.203125 
L 52.203125 0 
L 43.21875 0 
L 43.21875 8.296875 
Q 40.140625 3.328125 35.546875 0.953125 
Q 30.953125 -1.421875 24.3125 -1.421875 
Q 15.921875 -1.421875 10.953125 3.296875 
Q 6 8.015625 6 15.921875 
Q 6 25.140625 12.171875 29.828125 
Q 18.359375 34.515625 30.609375 34.515625 
L 43.21875 34.515625 
L 43.21875 35.40625 
Q 43.21875 41.609375 39.140625 45 
Q 35.0625 48.390625 27.6875 48.390625 
Q 23 48.390625 18.546875 47.265625 
Q 14.109375 46.140625 10.015625 43.890625 
L 10.015625 52.203125 
Q 14.9375 54.109375 19.578125 55.046875 
Q 24.21875 56 28.609375 56 
Q 40.484375 56 46.34375 49.84375 
Q 52.203125 43.703125 52.203125 31.203125 
z
" id="DejaVuSans-97"/>
        <path d="M 56.203125 29.59375 
L 56.203125 25.203125 
L 14.890625 25.203125 
Q 15.484375 15.921875 20.484375 11.0625 
Q 25.484375 6.203125 34.421875 6.203125 
Q 39.59375 6.203125 44.453125 7.46875 
Q 49.3125 8.734375 54.109375 11.28125 
L 54.109375 2.78125 
Q 49.265625 0.734375 44.1875 -0.34375 
Q 39.109375 -1.421875 33.890625 -1.421875 
Q 20.796875 -1.421875 13.15625 6.1875 
Q 5.515625 13.8125 5.515625 26.8125 
Q 5.515625 40.234375 12.765625 48.109375 
Q 20.015625 56 32.328125 56 
Q 43.359375 56 49.78125 48.890625 
Q 56.203125 41.796875 56.203125 29.59375 
z
M 47.21875 32.234375 
Q 47.125 39.59375 43.09375 43.984375 
Q 39.0625 48.390625 32.421875 48.390625 
Q 24.90625 48.390625 20.390625 44.140625 
Q 15.875 39.890625 15.1875 32.171875 
z
" id="DejaVuSans-101"/>
       </defs>
       <use xlink:href="#DejaVuSans-82"/>
       <use x="69.482422" xlink:href="#DejaVuSans-105"/>
       <use x="97.265625" xlink:href="#DejaVuSans-103"/>
       <use x="160.742188" xlink:href="#DejaVuSans-104"/>
       <use x="224.121094" xlink:href="#DejaVuSans-116"/>
       <use x="263.330078" xlink:href="#DejaVuSans-32"/>
       <use x="295.117188" xlink:href="#DejaVuSans-85"/>
       <use x="368.310547" xlink:href="#DejaVuSans-110"/>
       <use x="431.689453" xlink:href="#DejaVuSans-99"/>
       <use x="486.669922" xlink:href="#DejaVuSans-105"/>
       <use x="514.453125" xlink:href="#DejaVuSans-110"/>
       <use x="577.832031" xlink:href="#DejaVuSans-97"/>
       <use x="639.111328" xlink:href="#DejaVuSans-116"/>
       <use x="678.320312" xlink:href="#DejaVuSans-101"/>
      </g>
     </g>
    </g>
    <g id="ytick_3">
     <g id="line2d_9">
      <path clip-path="url(#p7c2eb5795e)" d="M 155.84 119.7975 
L 563.04 119.7975 
" style="fill:none;stroke:#ffffff;stroke-linecap:round;"/>
     </g>
     <g id="text_10">
      <!-- Right Arcuate -->
      <g style="fill:#262626;" transform="translate(71.2375 123.976641)scale(0.11 -0.11)">
       <defs>
        <path d="M 34.1875 63.1875 
L 20.796875 26.90625 
L 47.609375 26.90625 
z
M 28.609375 72.90625 
L 39.796875 72.90625 
L 67.578125 0 
L 57.328125 0 
L 50.6875 18.703125 
L 17.828125 18.703125 
L 11.1875 0 
L 0.78125 0 
z
" id="DejaVuSans-65"/>
        <path d="M 41.109375 46.296875 
Q 39.59375 47.171875 37.8125 47.578125 
Q 36.03125 48 33.890625 48 
Q 26.265625 48 22.1875 43.046875 
Q 18.109375 38.09375 18.109375 28.8125 
L 18.109375 0 
L 9.078125 0 
L 9.078125 54.6875 
L 18.109375 54.6875 
L 18.109375 46.1875 
Q 20.953125 51.171875 25.484375 53.578125 
Q 30.03125 56 36.53125 56 
Q 37.453125 56 38.578125 55.875 
Q 39.703125 55.765625 41.0625 55.515625 
z
" id="DejaVuSans-114"/>
        <path d="M 8.5 21.578125 
L 8.5 54.6875 
L 17.484375 54.6875 
L 17.484375 21.921875 
Q 17.484375 14.15625 20.5 10.265625 
Q 23.53125 6.390625 29.59375 6.390625 
Q 36.859375 6.390625 41.078125 11.03125 
Q 45.3125 15.671875 45.3125 23.6875 
L 45.3125 54.6875 
L 54.296875 54.6875 
L 54.296875 0 
L 45.3125 0 
L 45.3125 8.40625 
Q 42.046875 3.421875 37.71875 1 
Q 33.40625 -1.421875 27.6875 -1.421875 
Q 18.265625 -1.421875 13.375 4.4375 
Q 8.5 10.296875 8.5 21.578125 
z
M 31.109375 56 
z
" id="DejaVuSans-117"/>
       </defs>
       <use xlink:href="#DejaVuSans-82"/>
       <use x="69.482422" xlink:href="#DejaVuSans-105"/>
       <use x="97.265625" xlink:href="#DejaVuSans-103"/>
       <use x="160.742188" xlink:href="#DejaVuSans-104"/>
       <use x="224.121094" xlink:href="#DejaVuSans-116"/>
       <use x="263.330078" xlink:href="#DejaVuSans-32"/>
       <use x="295.117188" xlink:href="#DejaVuSans-65"/>
       <use x="363.525391" xlink:href="#DejaVuSans-114"/>
       <use x="402.388672" xlink:href="#DejaVuSans-99"/>
       <use x="457.369141" xlink:href="#DejaVuSans-117"/>
       <use x="520.748047" xlink:href="#DejaVuSans-97"/>
       <use x="582.027344" xlink:href="#DejaVuSans-116"/>
       <use x="621.236328" xlink:href="#DejaVuSans-101"/>
      </g>
     </g>
    </g>
    <g id="ytick_4">
     <g id="line2d_10">
      <path clip-path="url(#p7c2eb5795e)" d="M 155.84 162.5325 
L 563.04 162.5325 
" style="fill:none;stroke:#ffffff;stroke-linecap:round;"/>
     </g>
     <g id="text_11">
      <!-- Right cortico-spinal -->
      <g style="fill:#262626;" transform="translate(39.717344 166.711641)scale(0.11 -0.11)">
       <defs>
        <path d="M 30.609375 48.390625 
Q 23.390625 48.390625 19.1875 42.75 
Q 14.984375 37.109375 14.984375 27.296875 
Q 14.984375 17.484375 19.15625 11.84375 
Q 23.34375 6.203125 30.609375 6.203125 
Q 37.796875 6.203125 41.984375 11.859375 
Q 46.1875 17.53125 46.1875 27.296875 
Q 46.1875 37.015625 41.984375 42.703125 
Q 37.796875 48.390625 30.609375 48.390625 
z
M 30.609375 56 
Q 42.328125 56 49.015625 48.375 
Q 55.71875 40.765625 55.71875 27.296875 
Q 55.71875 13.875 49.015625 6.21875 
Q 42.328125 -1.421875 30.609375 -1.421875 
Q 18.84375 -1.421875 12.171875 6.21875 
Q 5.515625 13.875 5.515625 27.296875 
Q 5.515625 40.765625 12.171875 48.375 
Q 18.84375 56 30.609375 56 
z
" id="DejaVuSans-111"/>
        <path d="M 4.890625 31.390625 
L 31.203125 31.390625 
L 31.203125 23.390625 
L 4.890625 23.390625 
z
" id="DejaVuSans-45"/>
        <path d="M 44.28125 53.078125 
L 44.28125 44.578125 
Q 40.484375 46.53125 36.375 47.5 
Q 32.28125 48.484375 27.875 48.484375 
Q 21.1875 48.484375 17.84375 46.4375 
Q 14.5 44.390625 14.5 40.28125 
Q 14.5 37.15625 16.890625 35.375 
Q 19.28125 33.59375 26.515625 31.984375 
L 29.59375 31.296875 
Q 39.15625 29.25 43.1875 25.515625 
Q 47.21875 21.78125 47.21875 15.09375 
Q 47.21875 7.46875 41.1875 3.015625 
Q 35.15625 -1.421875 24.609375 -1.421875 
Q 20.21875 -1.421875 15.453125 -0.5625 
Q 10.6875 0.296875 5.421875 2 
L 5.421875 11.28125 
Q 10.40625 8.6875 15.234375 7.390625 
Q 20.0625 6.109375 24.8125 6.109375 
Q 31.15625 6.109375 34.5625 8.28125 
Q 37.984375 10.453125 37.984375 14.40625 
Q 37.984375 18.0625 35.515625 20.015625 
Q 33.0625 21.96875 24.703125 23.78125 
L 21.578125 24.515625 
Q 13.234375 26.265625 9.515625 29.90625 
Q 5.8125 33.546875 5.8125 39.890625 
Q 5.8125 47.609375 11.28125 51.796875 
Q 16.75 56 26.8125 56 
Q 31.78125 56 36.171875 55.265625 
Q 40.578125 54.546875 44.28125 53.078125 
z
" id="DejaVuSans-115"/>
        <path d="M 18.109375 8.203125 
L 18.109375 -20.796875 
L 9.078125 -20.796875 
L 9.078125 54.6875 
L 18.109375 54.6875 
L 18.109375 46.390625 
Q 20.953125 51.265625 25.265625 53.625 
Q 29.59375 56 35.59375 56 
Q 45.5625 56 51.78125 48.09375 
Q 58.015625 40.1875 58.015625 27.296875 
Q 58.015625 14.40625 51.78125 6.484375 
Q 45.5625 -1.421875 35.59375 -1.421875 
Q 29.59375 -1.421875 25.265625 0.953125 
Q 20.953125 3.328125 18.109375 8.203125 
z
M 48.6875 27.296875 
Q 48.6875 37.203125 44.609375 42.84375 
Q 40.53125 48.484375 33.40625 48.484375 
Q 26.265625 48.484375 22.1875 42.84375 
Q 18.109375 37.203125 18.109375 27.296875 
Q 18.109375 17.390625 22.1875 11.75 
Q 26.265625 6.109375 33.40625 6.109375 
Q 40.53125 6.109375 44.609375 11.75 
Q 48.6875 17.390625 48.6875 27.296875 
z
" id="DejaVuSans-112"/>
        <path d="M 9.421875 75.984375 
L 18.40625 75.984375 
L 18.40625 0 
L 9.421875 0 
z
" id="DejaVuSans-108"/>
       </defs>
       <use xlink:href="#DejaVuSans-82"/>
       <use x="69.482422" xlink:href="#DejaVuSans-105"/>
       <use x="97.265625" xlink:href="#DejaVuSans-103"/>
       <use x="160.742188" xlink:href="#DejaVuSans-104"/>
       <use x="224.121094" xlink:href="#DejaVuSans-116"/>
       <use x="263.330078" xlink:href="#DejaVuSans-32"/>
       <use x="295.117188" xlink:href="#DejaVuSans-99"/>
       <use x="350.097656" xlink:href="#DejaVuSans-111"/>
       <use x="411.279297" xlink:href="#DejaVuSans-114"/>
       <use x="452.392578" xlink:href="#DejaVuSans-116"/>
       <use x="491.601562" xlink:href="#DejaVuSans-105"/>
       <use x="519.384766" xlink:href="#DejaVuSans-99"/>
       <use x="574.365234" xlink:href="#DejaVuSans-111"/>
       <use x="637.421875" xlink:href="#DejaVuSans-45"/>
       <use x="673.505859" xlink:href="#DejaVuSans-115"/>
       <use x="725.605469" xlink:href="#DejaVuSans-112"/>
       <use x="789.082031" xlink:href="#DejaVuSans-105"/>
       <use x="816.865234" xlink:href="#DejaVuSans-110"/>
       <use x="880.244141" xlink:href="#DejaVuSans-97"/>
       <use x="941.523438" xlink:href="#DejaVuSans-108"/>
      </g>
     </g>
    </g>
    <g id="ytick_5">
     <g id="line2d_11">
      <path clip-path="url(#p7c2eb5795e)" d="M 155.84 205.2675 
L 563.04 205.2675 
" style="fill:none;stroke:#ffffff;stroke-linecap:round;"/>
     </g>
     <g id="text_12">
      <!-- Right anterior thalamic -->
      <g style="fill:#262626;" transform="translate(19.118125 209.446641)scale(0.11 -0.11)">
       <defs>
        <path d="M 52 44.1875 
Q 55.375 50.25 60.0625 53.125 
Q 64.75 56 71.09375 56 
Q 79.640625 56 84.28125 50.015625 
Q 88.921875 44.046875 88.921875 33.015625 
L 88.921875 0 
L 79.890625 0 
L 79.890625 32.71875 
Q 79.890625 40.578125 77.09375 44.375 
Q 74.3125 48.1875 68.609375 48.1875 
Q 61.625 48.1875 57.5625 43.546875 
Q 53.515625 38.921875 53.515625 30.90625 
L 53.515625 0 
L 44.484375 0 
L 44.484375 32.71875 
Q 44.484375 40.625 41.703125 44.40625 
Q 38.921875 48.1875 33.109375 48.1875 
Q 26.21875 48.1875 22.15625 43.53125 
Q 18.109375 38.875 18.109375 30.90625 
L 18.109375 0 
L 9.078125 0 
L 9.078125 54.6875 
L 18.109375 54.6875 
L 18.109375 46.1875 
Q 21.1875 51.21875 25.484375 53.609375 
Q 29.78125 56 35.6875 56 
Q 41.65625 56 45.828125 52.96875 
Q 50 49.953125 52 44.1875 
z
" id="DejaVuSans-109"/>
       </defs>
       <use xlink:href="#DejaVuSans-82"/>
       <use x="69.482422" xlink:href="#DejaVuSans-105"/>
       <use x="97.265625" xlink:href="#DejaVuSans-103"/>
       <use x="160.742188" xlink:href="#DejaVuSans-104"/>
       <use x="224.121094" xlink:href="#DejaVuSans-116"/>
       <use x="263.330078" xlink:href="#DejaVuSans-32"/>
       <use x="295.117188" xlink:href="#DejaVuSans-97"/>
       <use x="356.396484" xlink:href="#DejaVuSans-110"/>
       <use x="419.775391" xlink:href="#DejaVuSans-116"/>
       <use x="458.984375" xlink:href="#DejaVuSans-101"/>
       <use x="520.507812" xlink:href="#DejaVuSans-114"/>
       <use x="561.621094" xlink:href="#DejaVuSans-105"/>
       <use x="589.404297" xlink:href="#DejaVuSans-111"/>
       <use x="650.585938" xlink:href="#DejaVuSans-114"/>
       <use x="691.699219" xlink:href="#DejaVuSans-32"/>
       <use x="723.486328" xlink:href="#DejaVuSans-116"/>
       <use x="762.695312" xlink:href="#DejaVuSans-104"/>
       <use x="826.074219" xlink:href="#DejaVuSans-97"/>
       <use x="887.353516" xlink:href="#DejaVuSans-108"/>
       <use x="915.136719" xlink:href="#DejaVuSans-97"/>
       <use x="976.416016" xlink:href="#DejaVuSans-109"/>
       <use x="1073.828125" xlink:href="#DejaVuSans-105"/>
       <use x="1101.611328" xlink:href="#DejaVuSans-99"/>
      </g>
     </g>
    </g>
    <g id="ytick_6">
     <g id="line2d_12">
      <path clip-path="url(#p7c2eb5795e)" d="M 155.84 248.0025 
L 563.04 248.0025 
" style="fill:none;stroke:#ffffff;stroke-linecap:round;"/>
     </g>
     <g id="text_13">
      <!-- Right inferior thalamic -->
      <g style="fill:#262626;" transform="translate(23.243125 252.181641)scale(0.11 -0.11)">
       <defs>
        <path d="M 37.109375 75.984375 
L 37.109375 68.5 
L 28.515625 68.5 
Q 23.6875 68.5 21.796875 66.546875 
Q 19.921875 64.59375 19.921875 59.515625 
L 19.921875 54.6875 
L 34.71875 54.6875 
L 34.71875 47.703125 
L 19.921875 47.703125 
L 19.921875 0 
L 10.890625 0 
L 10.890625 47.703125 
L 2.296875 47.703125 
L 2.296875 54.6875 
L 10.890625 54.6875 
L 10.890625 58.5 
Q 10.890625 67.625 15.140625 71.796875 
Q 19.390625 75.984375 28.609375 75.984375 
z
" id="DejaVuSans-102"/>
       </defs>
       <use xlink:href="#DejaVuSans-82"/>
       <use x="69.482422" xlink:href="#DejaVuSans-105"/>
       <use x="97.265625" xlink:href="#DejaVuSans-103"/>
       <use x="160.742188" xlink:href="#DejaVuSans-104"/>
       <use x="224.121094" xlink:href="#DejaVuSans-116"/>
       <use x="263.330078" xlink:href="#DejaVuSans-32"/>
       <use x="295.117188" xlink:href="#DejaVuSans-105"/>
       <use x="322.900391" xlink:href="#DejaVuSans-110"/>
       <use x="386.279297" xlink:href="#DejaVuSans-102"/>
       <use x="421.484375" xlink:href="#DejaVuSans-101"/>
       <use x="483.007812" xlink:href="#DejaVuSans-114"/>
       <use x="524.121094" xlink:href="#DejaVuSans-105"/>
       <use x="551.904297" xlink:href="#DejaVuSans-111"/>
       <use x="613.085938" xlink:href="#DejaVuSans-114"/>
       <use x="654.199219" xlink:href="#DejaVuSans-32"/>
       <use x="685.986328" xlink:href="#DejaVuSans-116"/>
       <use x="725.195312" xlink:href="#DejaVuSans-104"/>
       <use x="788.574219" xlink:href="#DejaVuSans-97"/>
       <use x="849.853516" xlink:href="#DejaVuSans-108"/>
       <use x="877.636719" xlink:href="#DejaVuSans-97"/>
       <use x="938.916016" xlink:href="#DejaVuSans-109"/>
       <use x="1036.328125" xlink:href="#DejaVuSans-105"/>
       <use x="1064.111328" xlink:href="#DejaVuSans-99"/>
      </g>
     </g>
    </g>
    <g id="ytick_7">
     <g id="line2d_13">
      <path clip-path="url(#p7c2eb5795e)" d="M 155.84 290.7375 
L 563.04 290.7375 
" style="fill:none;stroke:#ffffff;stroke-linecap:round;"/>
     </g>
     <g id="text_14">
      <!-- Right superior thalamic -->
      <g style="fill:#262626;" transform="translate(17.457812 294.916641)scale(0.11 -0.11)">
       <use xlink:href="#DejaVuSans-82"/>
       <use x="69.482422" xlink:href="#DejaVuSans-105"/>
       <use x="97.265625" xlink:href="#DejaVuSans-103"/>
       <use x="160.742188" xlink:href="#DejaVuSans-104"/>
       <use x="224.121094" xlink:href="#DejaVuSans-116"/>
       <use x="263.330078" xlink:href="#DejaVuSans-32"/>
       <use x="295.117188" xlink:href="#DejaVuSans-115"/>
       <use x="347.216797" xlink:href="#DejaVuSans-117"/>
       <use x="410.595703" xlink:href="#DejaVuSans-112"/>
       <use x="474.072266" xlink:href="#DejaVuSans-101"/>
       <use x="535.595703" xlink:href="#DejaVuSans-114"/>
       <use x="576.708984" xlink:href="#DejaVuSans-105"/>
       <use x="604.492188" xlink:href="#DejaVuSans-111"/>
       <use x="665.673828" xlink:href="#DejaVuSans-114"/>
       <use x="706.787109" xlink:href="#DejaVuSans-32"/>
       <use x="738.574219" xlink:href="#DejaVuSans-116"/>
       <use x="777.783203" xlink:href="#DejaVuSans-104"/>
       <use x="841.162109" xlink:href="#DejaVuSans-97"/>
       <use x="902.441406" xlink:href="#DejaVuSans-108"/>
       <use x="930.224609" xlink:href="#DejaVuSans-97"/>
       <use x="991.503906" xlink:href="#DejaVuSans-109"/>
       <use x="1088.916016" xlink:href="#DejaVuSans-105"/>
       <use x="1116.699219" xlink:href="#DejaVuSans-99"/>
      </g>
     </g>
    </g>
    <g id="ytick_8">
     <g id="line2d_14">
      <path clip-path="url(#p7c2eb5795e)" d="M 155.84 333.4725 
L 563.04 333.4725 
" style="fill:none;stroke:#ffffff;stroke-linecap:round;"/>
     </g>
     <g id="text_15">
      <!-- Right posterior thalamic -->
      <g style="fill:#262626;" transform="translate(13.386094 337.651641)scale(0.11 -0.11)">
       <use xlink:href="#DejaVuSans-82"/>
       <use x="69.482422" xlink:href="#DejaVuSans-105"/>
       <use x="97.265625" xlink:href="#DejaVuSans-103"/>
       <use x="160.742188" xlink:href="#DejaVuSans-104"/>
       <use x="224.121094" xlink:href="#DejaVuSans-116"/>
       <use x="263.330078" xlink:href="#DejaVuSans-32"/>
       <use x="295.117188" xlink:href="#DejaVuSans-112"/>
       <use x="358.59375" xlink:href="#DejaVuSans-111"/>
       <use x="419.775391" xlink:href="#DejaVuSans-115"/>
       <use x="471.875" xlink:href="#DejaVuSans-116"/>
       <use x="511.083984" xlink:href="#DejaVuSans-101"/>
       <use x="572.607422" xlink:href="#DejaVuSans-114"/>
       <use x="613.720703" xlink:href="#DejaVuSans-105"/>
       <use x="641.503906" xlink:href="#DejaVuSans-111"/>
       <use x="702.685547" xlink:href="#DejaVuSans-114"/>
       <use x="743.798828" xlink:href="#DejaVuSans-32"/>
       <use x="775.585938" xlink:href="#DejaVuSans-116"/>
       <use x="814.794922" xlink:href="#DejaVuSans-104"/>
       <use x="878.173828" xlink:href="#DejaVuSans-97"/>
       <use x="939.453125" xlink:href="#DejaVuSans-108"/>
       <use x="967.236328" xlink:href="#DejaVuSans-97"/>
       <use x="1028.515625" xlink:href="#DejaVuSans-109"/>
       <use x="1125.927734" xlink:href="#DejaVuSans-105"/>
       <use x="1153.710938" xlink:href="#DejaVuSans-99"/>
      </g>
     </g>
    </g>
    <g id="ytick_9">
     <g id="line2d_15">
      <path clip-path="url(#p7c2eb5795e)" d="M 155.84 376.2075 
L 563.04 376.2075 
" style="fill:none;stroke:#ffffff;stroke-linecap:round;"/>
     </g>
     <g id="text_16">
      <!-- Right pArc -->
      <g style="fill:#262626;" transform="translate(89.047188 380.386641)scale(0.11 -0.11)">
       <use xlink:href="#DejaVuSans-82"/>
       <use x="69.482422" xlink:href="#DejaVuSans-105"/>
       <use x="97.265625" xlink:href="#DejaVuSans-103"/>
       <use x="160.742188" xlink:href="#DejaVuSans-104"/>
       <use x="224.121094" xlink:href="#DejaVuSans-116"/>
       <use x="263.330078" xlink:href="#DejaVuSans-32"/>
       <use x="295.117188" xlink:href="#DejaVuSans-112"/>
       <use x="358.59375" xlink:href="#DejaVuSans-65"/>
       <use x="427.001953" xlink:href="#DejaVuSans-114"/>
       <use x="465.865234" xlink:href="#DejaVuSans-99"/>
      </g>
     </g>
    </g>
    <g id="ytick_10">
     <g id="line2d_16">
      <path clip-path="url(#p7c2eb5795e)" d="M 155.84 418.9425 
L 563.04 418.9425 
" style="fill:none;stroke:#ffffff;stroke-linecap:round;"/>
     </g>
     <g id="text_17">
      <!-- Right TPC -->
      <g style="fill:#262626;" transform="translate(92.845625 423.121641)scale(0.11 -0.11)">
       <defs>
        <path d="M -0.296875 72.90625 
L 61.375 72.90625 
L 61.375 64.59375 
L 35.5 64.59375 
L 35.5 0 
L 25.59375 0 
L 25.59375 64.59375 
L -0.296875 64.59375 
z
" id="DejaVuSans-84"/>
        <path d="M 19.671875 64.796875 
L 19.671875 37.40625 
L 32.078125 37.40625 
Q 38.96875 37.40625 42.71875 40.96875 
Q 46.484375 44.53125 46.484375 51.125 
Q 46.484375 57.671875 42.71875 61.234375 
Q 38.96875 64.796875 32.078125 64.796875 
z
M 9.8125 72.90625 
L 32.078125 72.90625 
Q 44.34375 72.90625 50.609375 67.359375 
Q 56.890625 61.8125 56.890625 51.125 
Q 56.890625 40.328125 50.609375 34.8125 
Q 44.34375 29.296875 32.078125 29.296875 
L 19.671875 29.296875 
L 19.671875 0 
L 9.8125 0 
z
" id="DejaVuSans-80"/>
       </defs>
       <use xlink:href="#DejaVuSans-82"/>
       <use x="69.482422" xlink:href="#DejaVuSans-105"/>
       <use x="97.265625" xlink:href="#DejaVuSans-103"/>
       <use x="160.742188" xlink:href="#DejaVuSans-104"/>
       <use x="224.121094" xlink:href="#DejaVuSans-116"/>
       <use x="263.330078" xlink:href="#DejaVuSans-32"/>
       <use x="295.117188" xlink:href="#DejaVuSans-84"/>
       <use x="356.201172" xlink:href="#DejaVuSans-80"/>
       <use x="416.503906" xlink:href="#DejaVuSans-67"/>
      </g>
     </g>
    </g>
    <g id="ytick_11">
     <g id="line2d_17">
      <path clip-path="url(#p7c2eb5795e)" d="M 155.84 461.6775 
L 563.04 461.6775 
" style="fill:none;stroke:#ffffff;stroke-linecap:round;"/>
     </g>
     <g id="text_18">
      <!-- Right MdLF-SPL -->
      <g style="fill:#262626;" transform="translate(61.234375 465.856641)scale(0.11 -0.11)">
       <defs>
        <path d="M 9.8125 72.90625 
L 24.515625 72.90625 
L 43.109375 23.296875 
L 61.8125 72.90625 
L 76.515625 72.90625 
L 76.515625 0 
L 66.890625 0 
L 66.890625 64.015625 
L 48.09375 14.015625 
L 38.1875 14.015625 
L 19.390625 64.015625 
L 19.390625 0 
L 9.8125 0 
z
" id="DejaVuSans-77"/>
        <path d="M 45.40625 46.390625 
L 45.40625 75.984375 
L 54.390625 75.984375 
L 54.390625 0 
L 45.40625 0 
L 45.40625 8.203125 
Q 42.578125 3.328125 38.25 0.953125 
Q 33.9375 -1.421875 27.875 -1.421875 
Q 17.96875 -1.421875 11.734375 6.484375 
Q 5.515625 14.40625 5.515625 27.296875 
Q 5.515625 40.1875 11.734375 48.09375 
Q 17.96875 56 27.875 56 
Q 33.9375 56 38.25 53.625 
Q 42.578125 51.265625 45.40625 46.390625 
z
M 14.796875 27.296875 
Q 14.796875 17.390625 18.875 11.75 
Q 22.953125 6.109375 30.078125 6.109375 
Q 37.203125 6.109375 41.296875 11.75 
Q 45.40625 17.390625 45.40625 27.296875 
Q 45.40625 37.203125 41.296875 42.84375 
Q 37.203125 48.484375 30.078125 48.484375 
Q 22.953125 48.484375 18.875 42.84375 
Q 14.796875 37.203125 14.796875 27.296875 
z
" id="DejaVuSans-100"/>
        <path d="M 9.8125 72.90625 
L 19.671875 72.90625 
L 19.671875 8.296875 
L 55.171875 8.296875 
L 55.171875 0 
L 9.8125 0 
z
" id="DejaVuSans-76"/>
       </defs>
       <use xlink:href="#DejaVuSans-82"/>
       <use x="69.482422" xlink:href="#DejaVuSans-105"/>
       <use x="97.265625" xlink:href="#DejaVuSans-103"/>
       <use x="160.742188" xlink:href="#DejaVuSans-104"/>
       <use x="224.121094" xlink:href="#DejaVuSans-116"/>
       <use x="263.330078" xlink:href="#DejaVuSans-32"/>
       <use x="295.117188" xlink:href="#DejaVuSans-77"/>
       <use x="381.396484" xlink:href="#DejaVuSans-100"/>
       <use x="444.873047" xlink:href="#DejaVuSans-76"/>
       <use x="500.585938" xlink:href="#DejaVuSans-70"/>
       <use x="558.105469" xlink:href="#DejaVuSans-45"/>
       <use x="594.189453" xlink:href="#DejaVuSans-83"/>
       <use x="657.666016" xlink:href="#DejaVuSans-80"/>
       <use x="717.96875" xlink:href="#DejaVuSans-76"/>
      </g>
     </g>
    </g>
    <g id="ytick_12">
     <g id="line2d_18">
      <path clip-path="url(#p7c2eb5795e)" d="M 155.84 504.4125 
L 563.04 504.4125 
" style="fill:none;stroke:#ffffff;stroke-linecap:round;"/>
     </g>
     <g id="text_19">
      <!-- Right MdLF-Ang -->
      <g style="fill:#262626;" transform="translate(59.747656 508.591641)scale(0.11 -0.11)">
       <use xlink:href="#DejaVuSans-82"/>
       <use x="69.482422" xlink:href="#DejaVuSans-105"/>
       <use x="97.265625" xlink:href="#DejaVuSans-103"/>
       <use x="160.742188" xlink:href="#DejaVuSans-104"/>
       <use x="224.121094" xlink:href="#DejaVuSans-116"/>
       <use x="263.330078" xlink:href="#DejaVuSans-32"/>
       <use x="295.117188" xlink:href="#DejaVuSans-77"/>
       <use x="381.396484" xlink:href="#DejaVuSans-100"/>
       <use x="444.873047" xlink:href="#DejaVuSans-76"/>
       <use x="500.585938" xlink:href="#DejaVuSans-70"/>
       <use x="558.105469" xlink:href="#DejaVuSans-45"/>
       <use x="591.939453" xlink:href="#DejaVuSans-65"/>
       <use x="660.347656" xlink:href="#DejaVuSans-110"/>
       <use x="723.726562" xlink:href="#DejaVuSans-103"/>
      </g>
     </g>
    </g>
   </g>
   <g id="patch_3">
    <path clip-path="url(#p7c2eb5795e)" d="M 511.539444 21.507 
L 511.539444 47.148 
L 530.17252 47.148 
L 530.17252 21.507 
L 511.539444 21.507 
z
" style="fill:#d3c0ac;stroke:#737373;stroke-linejoin:miter;stroke-width:1.5;"/>
   </g>
   <g id="patch_4">
    <path clip-path="url(#p7c2eb5795e)" d="M 415.622441 64.242 
L 415.622441 89.883 
L 521.457519 89.883 
L 521.457519 64.242 
L 415.622441 64.242 
z
" style="fill:#d3c0ac;stroke:#737373;stroke-linejoin:miter;stroke-width:1.5;"/>
   </g>
   <g id="patch_5">
    <path clip-path="url(#p7c2eb5795e)" d="M 383.732103 106.977 
L 383.732103 132.618 
L 491.475779 132.618 
L 491.475779 106.977 
L 383.732103 106.977 
z
" style="fill:#d3c0ac;stroke:#737373;stroke-linejoin:miter;stroke-width:1.5;"/>
   </g>
   <g id="patch_6">
    <path clip-path="url(#p7c2eb5795e)" d="M 486.966695 149.712 
L 486.966695 175.353 
L 501.046972 175.353 
L 501.046972 149.712 
L 486.966695 149.712 
z
" style="fill:#d3c0ac;stroke:#737373;stroke-linejoin:miter;stroke-width:1.5;"/>
   </g>
   <g id="patch_7">
    <path clip-path="url(#p7c2eb5795e)" d="M 449.591673 192.447 
L 449.591673 218.088 
L 474.735121 218.088 
L 474.735121 192.447 
L 449.591673 192.447 
z
" style="fill:#d3c0ac;stroke:#737373;stroke-linejoin:miter;stroke-width:1.5;"/>
   </g>
   <g id="patch_8">
    <path clip-path="url(#p7c2eb5795e)" d="M 393.708195 235.182 
L 393.708195 260.823 
L 418.508805 260.823 
L 418.508805 235.182 
L 393.708195 235.182 
z
" style="fill:#d3c0ac;stroke:#737373;stroke-linejoin:miter;stroke-width:1.5;"/>
   </g>
   <g id="patch_9">
    <path clip-path="url(#p7c2eb5795e)" d="M 429.473765 277.917 
L 429.473765 303.558 
L 458.571535 303.558 
L 458.571535 277.917 
L 429.473765 277.917 
z
" style="fill:#d3c0ac;stroke:#737373;stroke-linejoin:miter;stroke-width:1.5;"/>
   </g>
   <g id="patch_10">
    <path clip-path="url(#p7c2eb5795e)" d="M 199.343606 320.652 
L 199.343606 346.293 
L 248.494186 346.293 
L 248.494186 320.652 
L 199.343606 320.652 
z
" style="fill:#d3c0ac;stroke:#737373;stroke-linejoin:miter;stroke-width:1.5;"/>
   </g>
   <g id="patch_11">
    <path clip-path="url(#p7c2eb5795e)" d="M 435.723657 363.387 
L 435.723657 389.028 
L 480.804495 389.028 
L 480.804495 363.387 
L 435.723657 363.387 
z
" style="fill:#d3c0ac;stroke:#737373;stroke-linejoin:miter;stroke-width:1.5;"/>
   </g>
   <g id="patch_12">
    <path clip-path="url(#p7c2eb5795e)" d="M 358.990275 406.122 
L 358.990275 431.763 
L 403.557824 431.763 
L 403.557824 406.122 
L 358.990275 406.122 
z
" style="fill:#d3c0ac;stroke:#737373;stroke-linejoin:miter;stroke-width:1.5;"/>
   </g>
   <g id="patch_13">
    <path clip-path="url(#p7c2eb5795e)" d="M 308.93546 448.857 
L 308.93546 474.498 
L 364.138761 474.498 
L 364.138761 448.857 
L 308.93546 448.857 
z
" style="fill:#d3c0ac;stroke:#737373;stroke-linejoin:miter;stroke-width:1.5;"/>
   </g>
   <g id="patch_14">
    <path clip-path="url(#p7c2eb5795e)" d="M 398.867923 491.592 
L 398.867923 517.233 
L 427.047784 517.233 
L 427.047784 491.592 
L 398.867923 491.592 
z
" style="fill:#d3c0ac;stroke:#737373;stroke-linejoin:miter;stroke-width:1.5;"/>
   </g>
   <g id="line2d_19">
    <path clip-path="url(#p7c2eb5795e)" d="M 511.539444 34.3275 
L 439.598638 34.3275 
" style="fill:none;stroke:#737373;stroke-linecap:round;stroke-width:1.5;"/>
   </g>
   <g id="line2d_20">
    <path clip-path="url(#p7c2eb5795e)" d="M 530.17252 34.3275 
L 544.530909 34.3275 
" style="fill:none;stroke:#737373;stroke-linecap:round;stroke-width:1.5;"/>
   </g>
   <g id="line2d_21">
    <path clip-path="url(#p7c2eb5795e)" d="M 439.598638 27.91725 
L 439.598638 40.73775 
" style="fill:none;stroke:#737373;stroke-linecap:round;stroke-width:1.5;"/>
   </g>
   <g id="line2d_22">
    <path clip-path="url(#p7c2eb5795e)" d="M 544.530909 27.91725 
L 544.530909 40.73775 
" style="fill:none;stroke:#737373;stroke-linecap:round;stroke-width:1.5;"/>
   </g>
   <g id="line2d_23"/>
   <g id="line2d_24">
    <path clip-path="url(#p7c2eb5795e)" d="M 415.622441 77.0625 
L 372.005234 77.0625 
" style="fill:none;stroke:#737373;stroke-linecap:round;stroke-width:1.5;"/>
   </g>
   <g id="line2d_25">
    <path clip-path="url(#p7c2eb5795e)" d="M 521.457519 77.0625 
L 536.308754 77.0625 
" style="fill:none;stroke:#737373;stroke-linecap:round;stroke-width:1.5;"/>
   </g>
   <g id="line2d_26">
    <path clip-path="url(#p7c2eb5795e)" d="M 372.005234 70.65225 
L 372.005234 83.47275 
" style="fill:none;stroke:#737373;stroke-linecap:round;stroke-width:1.5;"/>
   </g>
   <g id="line2d_27">
    <path clip-path="url(#p7c2eb5795e)" d="M 536.308754 70.65225 
L 536.308754 83.47275 
" style="fill:none;stroke:#737373;stroke-linecap:round;stroke-width:1.5;"/>
   </g>
   <g id="line2d_28"/>
   <g id="line2d_29">
    <path clip-path="url(#p7c2eb5795e)" d="M 383.732103 119.7975 
L 252.278859 119.7975 
" style="fill:none;stroke:#737373;stroke-linecap:round;stroke-width:1.5;"/>
   </g>
   <g id="line2d_30">
    <path clip-path="url(#p7c2eb5795e)" d="M 491.475779 119.7975 
L 509.167742 119.7975 
" style="fill:none;stroke:#737373;stroke-linecap:round;stroke-width:1.5;"/>
   </g>
   <g id="line2d_31">
    <path clip-path="url(#p7c2eb5795e)" d="M 252.278859 113.38725 
L 252.278859 126.20775 
" style="fill:none;stroke:#737373;stroke-linecap:round;stroke-width:1.5;"/>
   </g>
   <g id="line2d_32">
    <path clip-path="url(#p7c2eb5795e)" d="M 509.167742 113.38725 
L 509.167742 126.20775 
" style="fill:none;stroke:#737373;stroke-linecap:round;stroke-width:1.5;"/>
   </g>
   <g id="line2d_33"/>
   <g id="line2d_34">
    <path clip-path="url(#p7c2eb5795e)" d="M 486.966695 162.5325 
L 462.219289 162.5325 
" style="fill:none;stroke:#737373;stroke-linecap:round;stroke-width:1.5;"/>
   </g>
   <g id="line2d_35">
    <path clip-path="url(#p7c2eb5795e)" d="M 501.046972 162.5325 
L 531.067351 162.5325 
" style="fill:none;stroke:#737373;stroke-linecap:round;stroke-width:1.5;"/>
   </g>
   <g id="line2d_36">
    <path clip-path="url(#p7c2eb5795e)" d="M 462.219289 156.12225 
L 462.219289 168.94275 
" style="fill:none;stroke:#737373;stroke-linecap:round;stroke-width:1.5;"/>
   </g>
   <g id="line2d_37">
    <path clip-path="url(#p7c2eb5795e)" d="M 531.067351 156.12225 
L 531.067351 168.94275 
" style="fill:none;stroke:#737373;stroke-linecap:round;stroke-width:1.5;"/>
   </g>
   <g id="line2d_38"/>
   <g id="line2d_39">
    <path clip-path="url(#p7c2eb5795e)" d="M 449.591673 205.2675 
L 438.047387 205.2675 
" style="fill:none;stroke:#737373;stroke-linecap:round;stroke-width:1.5;"/>
   </g>
   <g id="line2d_40">
    <path clip-path="url(#p7c2eb5795e)" d="M 474.735121 205.2675 
L 480.071436 205.2675 
" style="fill:none;stroke:#737373;stroke-linecap:round;stroke-width:1.5;"/>
   </g>
   <g id="line2d_41">
    <path clip-path="url(#p7c2eb5795e)" d="M 438.047387 198.85725 
L 438.047387 211.67775 
" style="fill:none;stroke:#737373;stroke-linecap:round;stroke-width:1.5;"/>
   </g>
   <g id="line2d_42">
    <path clip-path="url(#p7c2eb5795e)" d="M 480.071436 198.85725 
L 480.071436 211.67775 
" style="fill:none;stroke:#737373;stroke-linecap:round;stroke-width:1.5;"/>
   </g>
   <g id="line2d_43"/>
   <g id="line2d_44">
    <path clip-path="url(#p7c2eb5795e)" d="M 393.708195 248.0025 
L 378.526519 248.0025 
" style="fill:none;stroke:#737373;stroke-linecap:round;stroke-width:1.5;"/>
   </g>
   <g id="line2d_45">
    <path clip-path="url(#p7c2eb5795e)" d="M 418.508805 248.0025 
L 439.27214 248.0025 
" style="fill:none;stroke:#737373;stroke-linecap:round;stroke-width:1.5;"/>
   </g>
   <g id="line2d_46">
    <path clip-path="url(#p7c2eb5795e)" d="M 378.526519 241.59225 
L 378.526519 254.41275 
" style="fill:none;stroke:#737373;stroke-linecap:round;stroke-width:1.5;"/>
   </g>
   <g id="line2d_47">
    <path clip-path="url(#p7c2eb5795e)" d="M 439.27214 241.59225 
L 439.27214 254.41275 
" style="fill:none;stroke:#737373;stroke-linecap:round;stroke-width:1.5;"/>
   </g>
   <g id="line2d_48"/>
   <g id="line2d_49">
    <path clip-path="url(#p7c2eb5795e)" d="M 429.473765 290.7375 
L 410.552581 290.7375 
" style="fill:none;stroke:#737373;stroke-linecap:round;stroke-width:1.5;"/>
   </g>
   <g id="line2d_50">
    <path clip-path="url(#p7c2eb5795e)" d="M 458.571535 290.7375 
L 461.83582 290.7375 
" style="fill:none;stroke:#737373;stroke-linecap:round;stroke-width:1.5;"/>
   </g>
   <g id="line2d_51">
    <path clip-path="url(#p7c2eb5795e)" d="M 410.552581 284.32725 
L 410.552581 297.14775 
" style="fill:none;stroke:#737373;stroke-linecap:round;stroke-width:1.5;"/>
   </g>
   <g id="line2d_52">
    <path clip-path="url(#p7c2eb5795e)" d="M 461.83582 284.32725 
L 461.83582 297.14775 
" style="fill:none;stroke:#737373;stroke-linecap:round;stroke-width:1.5;"/>
   </g>
   <g id="line2d_53"/>
   <g id="line2d_54">
    <path clip-path="url(#p7c2eb5795e)" d="M 199.343606 333.4725 
L 174.349091 333.4725 
" style="fill:none;stroke:#737373;stroke-linecap:round;stroke-width:1.5;"/>
   </g>
   <g id="line2d_55">
    <path clip-path="url(#p7c2eb5795e)" d="M 248.494186 333.4725 
L 332.806208 333.4725 
" style="fill:none;stroke:#737373;stroke-linecap:round;stroke-width:1.5;"/>
   </g>
   <g id="line2d_56">
    <path clip-path="url(#p7c2eb5795e)" d="M 174.349091 327.06225 
L 174.349091 339.88275 
" style="fill:none;stroke:#737373;stroke-linecap:round;stroke-width:1.5;"/>
   </g>
   <g id="line2d_57">
    <path clip-path="url(#p7c2eb5795e)" d="M 332.806208 327.06225 
L 332.806208 339.88275 
" style="fill:none;stroke:#737373;stroke-linecap:round;stroke-width:1.5;"/>
   </g>
   <g id="line2d_58"/>
   <g id="line2d_59">
    <path clip-path="url(#p7c2eb5795e)" d="M 435.723657 376.2075 
L 416.102765 376.2075 
" style="fill:none;stroke:#737373;stroke-linecap:round;stroke-width:1.5;"/>
   </g>
   <g id="line2d_60">
    <path clip-path="url(#p7c2eb5795e)" d="M 480.804495 376.2075 
L 492.381782 376.2075 
" style="fill:none;stroke:#737373;stroke-linecap:round;stroke-width:1.5;"/>
   </g>
   <g id="line2d_61">
    <path clip-path="url(#p7c2eb5795e)" d="M 416.102765 369.79725 
L 416.102765 382.61775 
" style="fill:none;stroke:#737373;stroke-linecap:round;stroke-width:1.5;"/>
   </g>
   <g id="line2d_62">
    <path clip-path="url(#p7c2eb5795e)" d="M 492.381782 369.79725 
L 492.381782 382.61775 
" style="fill:none;stroke:#737373;stroke-linecap:round;stroke-width:1.5;"/>
   </g>
   <g id="line2d_63"/>
   <g id="line2d_64">
    <path clip-path="url(#p7c2eb5795e)" d="M 358.990275 418.9425 
L 248.607931 418.9425 
" style="fill:none;stroke:#737373;stroke-linecap:round;stroke-width:1.5;"/>
   </g>
   <g id="line2d_65">
    <path clip-path="url(#p7c2eb5795e)" d="M 403.557824 418.9425 
L 439.40017 418.9425 
" style="fill:none;stroke:#737373;stroke-linecap:round;stroke-width:1.5;"/>
   </g>
   <g id="line2d_66">
    <path clip-path="url(#p7c2eb5795e)" d="M 248.607931 412.53225 
L 248.607931 425.35275 
" style="fill:none;stroke:#737373;stroke-linecap:round;stroke-width:1.5;"/>
   </g>
   <g id="line2d_67">
    <path clip-path="url(#p7c2eb5795e)" d="M 439.40017 412.53225 
L 439.40017 425.35275 
" style="fill:none;stroke:#737373;stroke-linecap:round;stroke-width:1.5;"/>
   </g>
   <g id="line2d_68"/>
   <g id="line2d_69">
    <path clip-path="url(#p7c2eb5795e)" d="M 308.93546 461.6775 
L 257.276161 461.6775 
" style="fill:none;stroke:#737373;stroke-linecap:round;stroke-width:1.5;"/>
   </g>
   <g id="line2d_70">
    <path clip-path="url(#p7c2eb5795e)" d="M 364.138761 461.6775 
L 374.348086 461.6775 
" style="fill:none;stroke:#737373;stroke-linecap:round;stroke-width:1.5;"/>
   </g>
   <g id="line2d_71">
    <path clip-path="url(#p7c2eb5795e)" d="M 257.276161 455.26725 
L 257.276161 468.08775 
" style="fill:none;stroke:#737373;stroke-linecap:round;stroke-width:1.5;"/>
   </g>
   <g id="line2d_72">
    <path clip-path="url(#p7c2eb5795e)" d="M 374.348086 455.26725 
L 374.348086 468.08775 
" style="fill:none;stroke:#737373;stroke-linecap:round;stroke-width:1.5;"/>
   </g>
   <g id="line2d_73"/>
   <g id="line2d_74">
    <path clip-path="url(#p7c2eb5795e)" d="M 398.867923 504.4125 
L 364.886989 504.4125 
" style="fill:none;stroke:#737373;stroke-linecap:round;stroke-width:1.5;"/>
   </g>
   <g id="line2d_75">
    <path clip-path="url(#p7c2eb5795e)" d="M 427.047784 504.4125 
L 441.624371 504.4125 
" style="fill:none;stroke:#737373;stroke-linecap:round;stroke-width:1.5;"/>
   </g>
   <g id="line2d_76">
    <path clip-path="url(#p7c2eb5795e)" d="M 364.886989 498.00225 
L 364.886989 510.82275 
" style="fill:none;stroke:#737373;stroke-linecap:round;stroke-width:1.5;"/>
   </g>
   <g id="line2d_77">
    <path clip-path="url(#p7c2eb5795e)" d="M 441.624371 498.00225 
L 441.624371 510.82275 
" style="fill:none;stroke:#737373;stroke-linecap:round;stroke-width:1.5;"/>
   </g>
   <g id="line2d_78"/>
   <g id="line2d_79">
    <path clip-path="url(#p7c2eb5795e)" d="M 525.365774 21.507 
L 525.365774 47.148 
" style="fill:none;stroke:#737373;stroke-linecap:round;stroke-width:1.5;"/>
   </g>
   <g id="line2d_80">
    <path clip-path="url(#p7c2eb5795e)" d="M 468.003916 64.242 
L 468.003916 89.883 
" style="fill:none;stroke:#737373;stroke-linecap:round;stroke-width:1.5;"/>
   </g>
   <g id="line2d_81">
    <path clip-path="url(#p7c2eb5795e)" d="M 422.015068 106.977 
L 422.015068 132.618 
" style="fill:none;stroke:#737373;stroke-linecap:round;stroke-width:1.5;"/>
   </g>
   <g id="line2d_82">
    <path clip-path="url(#p7c2eb5795e)" d="M 494.335232 149.712 
L 494.335232 175.353 
" style="fill:none;stroke:#737373;stroke-linecap:round;stroke-width:1.5;"/>
   </g>
   <g id="line2d_83">
    <path clip-path="url(#p7c2eb5795e)" d="M 465.407889 192.447 
L 465.407889 218.088 
" style="fill:none;stroke:#737373;stroke-linecap:round;stroke-width:1.5;"/>
   </g>
   <g id="line2d_84">
    <path clip-path="url(#p7c2eb5795e)" d="M 412.164334 235.182 
L 412.164334 260.823 
" style="fill:none;stroke:#737373;stroke-linecap:round;stroke-width:1.5;"/>
   </g>
   <g id="line2d_85">
    <path clip-path="url(#p7c2eb5795e)" d="M 443.314813 277.917 
L 443.314813 303.558 
" style="fill:none;stroke:#737373;stroke-linecap:round;stroke-width:1.5;"/>
   </g>
   <g id="line2d_86">
    <path clip-path="url(#p7c2eb5795e)" d="M 222.432322 320.652 
L 222.432322 346.293 
" style="fill:none;stroke:#737373;stroke-linecap:round;stroke-width:1.5;"/>
   </g>
   <g id="line2d_87">
    <path clip-path="url(#p7c2eb5795e)" d="M 458.120017 363.387 
L 458.120017 389.028 
" style="fill:none;stroke:#737373;stroke-linecap:round;stroke-width:1.5;"/>
   </g>
   <g id="line2d_88">
    <path clip-path="url(#p7c2eb5795e)" d="M 387.859934 406.122 
L 387.859934 431.763 
" style="fill:none;stroke:#737373;stroke-linecap:round;stroke-width:1.5;"/>
   </g>
   <g id="line2d_89">
    <path clip-path="url(#p7c2eb5795e)" d="M 339.608227 448.857 
L 339.608227 474.498 
" style="fill:none;stroke:#737373;stroke-linecap:round;stroke-width:1.5;"/>
   </g>
   <g id="line2d_90">
    <path clip-path="url(#p7c2eb5795e)" d="M 414.782777 491.592 
L 414.782777 517.233 
" style="fill:none;stroke:#737373;stroke-linecap:round;stroke-width:1.5;"/>
   </g>
   <g id="patch_15">
    <path d="M 155.84 525.78 
L 155.84 12.96 
" style="fill:none;stroke:#ffffff;stroke-linecap:square;stroke-linejoin:miter;stroke-width:1.25;"/>
   </g>
   <g id="patch_16">
    <path d="M 563.04 525.78 
L 563.04 12.96 
" style="fill:none;stroke:#ffffff;stroke-linecap:square;stroke-linejoin:miter;stroke-width:1.25;"/>
   </g>
   <g id="patch_17">
    <path d="M 155.84 525.78 
L 563.04 525.78 
" style="fill:none;stroke:#ffffff;stroke-linecap:square;stroke-linejoin:miter;stroke-width:1.25;"/>
   </g>
   <g id="patch_18">
    <path d="M 155.84 12.96 
L 563.04 12.96 
" style="fill:none;stroke:#ffffff;stroke-linecap:square;stroke-linejoin:miter;stroke-width:1.25;"/>
   </g>
   <g id="PathCollection_1">
    <defs>
     <path d="M 0 2 
C 0.530406 2 1.03916 1.789267 1.414214 1.414214 
C 1.789267 1.03916 2 0.530406 2 -0 
C 2 -0.530406 1.789267 -1.03916 1.414214 -1.414214 
C 1.03916 -1.789267 0.530406 -2 0 -2 
C -0.530406 -2 -1.03916 -1.789267 -1.414214 -1.414214 
C -1.789267 -1.03916 -2 -0.530406 -2 0 
C -2 0.530406 -1.789267 1.03916 -1.414214 1.414214 
C -1.03916 1.789267 -0.530406 2 0 2 
z
" id="C0_0_b04c964467"/>
    </defs>
    <g clip-path="url(#p7c2eb5795e)">
     <use style="fill:#4c4c4c;" x="527.30018" xlink:href="#C0_0_b04c964467" y="30.946103"/>
    </g>
    <g clip-path="url(#p7c2eb5795e)">
     <use style="fill:#4c4c4c;" x="507.79392" xlink:href="#C0_0_b04c964467" y="34.003395"/>
    </g>
    <g clip-path="url(#p7c2eb5795e)">
     <use style="fill:#4c4c4c;" x="544.530909" xlink:href="#C0_0_b04c964467" y="30.09162"/>
    </g>
    <g clip-path="url(#p7c2eb5795e)">
     <use style="fill:#4c4c4c;" x="535.228334" xlink:href="#C0_0_b04c964467" y="32.074769"/>
    </g>
    <g clip-path="url(#p7c2eb5795e)">
     <use style="fill:#4c4c4c;" x="524.185321" xlink:href="#C0_0_b04c964467" y="34.670147"/>
    </g>
    <g clip-path="url(#p7c2eb5795e)">
     <use style="fill:#4c4c4c;" x="531.129967" xlink:href="#C0_0_b04c964467" y="31.126201"/>
    </g>
    <g clip-path="url(#p7c2eb5795e)">
     <use style="fill:#4c4c4c;" x="526.546226" xlink:href="#C0_0_b04c964467" y="37.504455"/>
    </g>
    <g clip-path="url(#p7c2eb5795e)">
     <use style="fill:#4c4c4c;" x="507.9673" xlink:href="#C0_0_b04c964467" y="36.679481"/>
    </g>
    <g clip-path="url(#p7c2eb5795e)">
     <use style="fill:#4c4c4c;" x="439.598638" xlink:href="#C0_0_b04c964467" y="34.353731"/>
    </g>
    <g clip-path="url(#p7c2eb5795e)">
     <use style="fill:#4c4c4c;" x="522.255875" xlink:href="#C0_0_b04c964467" y="38.360868"/>
    </g>
   </g>
   <g id="PathCollection_2">
    <defs>
     <path d="M 0 2 
C 0.530406 2 1.03916 1.789267 1.414214 1.414214 
C 1.789267 1.03916 2 0.530406 2 -0 
C 2 -0.530406 1.789267 -1.03916 1.414214 -1.414214 
C 1.03916 -1.789267 0.530406 -2 0 -2 
C -0.530406 -2 -1.03916 -1.789267 -1.414214 -1.414214 
C -1.789267 -1.03916 -2 -0.530406 -2 0 
C -2 0.530406 -1.789267 1.03916 -1.414214 1.414214 
C -1.03916 1.789267 -0.530406 2 0 2 
z
" id="C1_0_93765394ad"/>
    </defs>
    <g clip-path="url(#p7c2eb5795e)">
     <use style="fill:#4c4c4c;" x="391.890962" xlink:href="#C1_0_93765394ad" y="73.331423"/>
    </g>
    <g clip-path="url(#p7c2eb5795e)">
     <use style="fill:#4c4c4c;" x="372.005234" xlink:href="#C1_0_93765394ad" y="73.551426"/>
    </g>
    <g clip-path="url(#p7c2eb5795e)">
     <use style="fill:#4c4c4c;" x="527.063583" xlink:href="#C1_0_93765394ad" y="75.049457"/>
    </g>
    <g clip-path="url(#p7c2eb5795e)">
     <use style="fill:#4c4c4c;" x="501.129829" xlink:href="#C1_0_93765394ad" y="74.842287"/>
    </g>
    <g clip-path="url(#p7c2eb5795e)">
     <use style="fill:#4c4c4c;" x="536.308754" xlink:href="#C1_0_93765394ad" y="76.788602"/>
    </g>
    <g clip-path="url(#p7c2eb5795e)">
     <use style="fill:#4c4c4c;" x="434.878002" xlink:href="#C1_0_93765394ad" y="74.970164"/>
    </g>
    <g clip-path="url(#p7c2eb5795e)">
     <use style="fill:#4c4c4c;" x="434.558084" xlink:href="#C1_0_93765394ad" y="78.5486"/>
    </g>
    <g clip-path="url(#p7c2eb5795e)">
     <use style="fill:#4c4c4c;" x="409.31056" xlink:href="#C1_0_93765394ad" y="79.228325"/>
    </g>
    <g clip-path="url(#p7c2eb5795e)">
     <use style="fill:#4c4c4c;" x="517.284091" xlink:href="#C1_0_93765394ad" y="74.870922"/>
    </g>
    <g clip-path="url(#p7c2eb5795e)">
     <use style="fill:#4c4c4c;" x="522.848661" xlink:href="#C1_0_93765394ad" y="74.336187"/>
    </g>
   </g>
   <g id="PathCollection_3">
    <defs>
     <path d="M 0 2 
C 0.530406 2 1.03916 1.789267 1.414214 1.414214 
C 1.789267 1.03916 2 0.530406 2 -0 
C 2 -0.530406 1.789267 -1.03916 1.414214 -1.414214 
C 1.03916 -1.789267 0.530406 -2 0 -2 
C -0.530406 -2 -1.03916 -1.789267 -1.414214 -1.414214 
C -1.789267 -1.03916 -2 -0.530406 -2 0 
C -2 0.530406 -1.789267 1.03916 -1.414214 1.414214 
C -1.03916 1.789267 -0.530406 2 0 2 
z
" id="C2_0_03a7679139"/>
    </defs>
    <g clip-path="url(#p7c2eb5795e)">
     <use style="fill:#4c4c4c;" x="382.075977" xlink:href="#C2_0_03a7679139" y="122.21778"/>
    </g>
    <g clip-path="url(#p7c2eb5795e)">
     <use style="fill:#4c4c4c;" x="310.354347" xlink:href="#C2_0_03a7679139" y="121.436691"/>
    </g>
    <g clip-path="url(#p7c2eb5795e)">
     <use style="fill:#4c4c4c;" x="496.821264" xlink:href="#C2_0_03a7679139" y="115.646301"/>
    </g>
    <g clip-path="url(#p7c2eb5795e)">
     <use style="fill:#4c4c4c;" x="409.086612" xlink:href="#C2_0_03a7679139" y="117.095057"/>
    </g>
    <g clip-path="url(#p7c2eb5795e)">
     <use style="fill:#4c4c4c;" x="482.426773" xlink:href="#C2_0_03a7679139" y="119.284772"/>
    </g>
    <g clip-path="url(#p7c2eb5795e)">
     <use style="fill:#4c4c4c;" x="494.492115" xlink:href="#C2_0_03a7679139" y="116.527472"/>
    </g>
    <g clip-path="url(#p7c2eb5795e)">
     <use style="fill:#4c4c4c;" x="252.278859" xlink:href="#C2_0_03a7679139" y="116.999534"/>
    </g>
    <g clip-path="url(#p7c2eb5795e)">
     <use style="fill:#4c4c4c;" x="388.700482" xlink:href="#C2_0_03a7679139" y="119.963746"/>
    </g>
    <g clip-path="url(#p7c2eb5795e)">
     <use style="fill:#4c4c4c;" x="509.167742" xlink:href="#C2_0_03a7679139" y="123.299582"/>
    </g>
    <g clip-path="url(#p7c2eb5795e)">
     <use style="fill:#4c4c4c;" x="434.943523" xlink:href="#C2_0_03a7679139" y="123.573292"/>
    </g>
   </g>
   <g id="PathCollection_4">
    <defs>
     <path d="M 0 2 
C 0.530406 2 1.03916 1.789267 1.414214 1.414214 
C 1.789267 1.03916 2 0.530406 2 -0 
C 2 -0.530406 1.789267 -1.03916 1.414214 -1.414214 
C 1.03916 -1.789267 0.530406 -2 0 -2 
C -0.530406 -2 -1.03916 -1.789267 -1.414214 -1.414214 
C -1.789267 -1.03916 -2 -0.530406 -2 0 
C -2 0.530406 -1.789267 1.03916 -1.414214 1.414214 
C -1.03916 1.789267 -0.530406 2 0 2 
z
" id="C3_0_c4cc5933b9"/>
    </defs>
    <g clip-path="url(#p7c2eb5795e)">
     <use style="fill:#4c4c4c;" x="486.102141" xlink:href="#C3_0_c4cc5933b9" y="159.008572"/>
    </g>
    <g clip-path="url(#p7c2eb5795e)">
     <use style="fill:#4c4c4c;" x="498.458508" xlink:href="#C3_0_c4cc5933b9" y="161.283794"/>
    </g>
    <g clip-path="url(#p7c2eb5795e)">
     <use style="fill:#4c4c4c;" x="486.878333" xlink:href="#C3_0_c4cc5933b9" y="163.606646"/>
    </g>
    <g clip-path="url(#p7c2eb5795e)">
     <use style="fill:#4c4c4c;" x="462.219289" xlink:href="#C3_0_c4cc5933b9" y="165.647269"/>
    </g>
    <g clip-path="url(#p7c2eb5795e)">
     <use style="fill:#4c4c4c;" x="509.10941" xlink:href="#C3_0_c4cc5933b9" y="165.599586"/>
    </g>
    <g clip-path="url(#p7c2eb5795e)">
     <use style="fill:#4c4c4c;" x="496.864347" xlink:href="#C3_0_c4cc5933b9" y="166.587111"/>
    </g>
    <g clip-path="url(#p7c2eb5795e)">
     <use style="fill:#4c4c4c;" x="491.806117" xlink:href="#C3_0_c4cc5933b9" y="160.247089"/>
    </g>
    <g clip-path="url(#p7c2eb5795e)">
     <use style="fill:#4c4c4c;" x="531.067351" xlink:href="#C3_0_c4cc5933b9" y="158.859484"/>
    </g>
    <g clip-path="url(#p7c2eb5795e)">
     <use style="fill:#4c4c4c;" x="487.231783" xlink:href="#C3_0_c4cc5933b9" y="165.123418"/>
    </g>
    <g clip-path="url(#p7c2eb5795e)">
     <use style="fill:#4c4c4c;" x="501.909793" xlink:href="#C3_0_c4cc5933b9" y="166.327651"/>
    </g>
   </g>
   <g id="PathCollection_5">
    <defs>
     <path d="M 0 2 
C 0.530406 2 1.03916 1.789267 1.414214 1.414214 
C 1.789267 1.03916 2 0.530406 2 -0 
C 2 -0.530406 1.789267 -1.03916 1.414214 -1.414214 
C 1.03916 -1.789267 0.530406 -2 0 -2 
C -0.530406 -2 -1.03916 -1.789267 -1.414214 -1.414214 
C -1.789267 -1.03916 -2 -0.530406 -2 0 
C -2 0.530406 -1.789267 1.03916 -1.414214 1.414214 
C -1.03916 1.789267 -0.530406 2 0 2 
z
" id="C4_0_ca9d0925cd"/>
    </defs>
    <g clip-path="url(#p7c2eb5795e)">
     <use style="fill:#4c4c4c;" x="470.464377" xlink:href="#C4_0_ca9d0925cd" y="208.229946"/>
    </g>
    <g clip-path="url(#p7c2eb5795e)">
     <use style="fill:#4c4c4c;" x="476.158702" xlink:href="#C4_0_ca9d0925cd" y="206.585743"/>
    </g>
    <g clip-path="url(#p7c2eb5795e)">
     <use style="fill:#4c4c4c;" x="438.047387" xlink:href="#C4_0_ca9d0925cd" y="207.201072"/>
    </g>
    <g clip-path="url(#p7c2eb5795e)">
     <use style="fill:#4c4c4c;" x="469.341977" xlink:href="#C4_0_ca9d0925cd" y="207.850023"/>
    </g>
    <g clip-path="url(#p7c2eb5795e)">
     <use style="fill:#4c4c4c;" x="448.390221" xlink:href="#C4_0_ca9d0925cd" y="206.295524"/>
    </g>
    <g clip-path="url(#p7c2eb5795e)">
     <use style="fill:#4c4c4c;" x="461.473801" xlink:href="#C4_0_ca9d0925cd" y="208.30172"/>
    </g>
    <g clip-path="url(#p7c2eb5795e)">
     <use style="fill:#4c4c4c;" x="453.196028" xlink:href="#C4_0_ca9d0925cd" y="202.555953"/>
    </g>
    <g clip-path="url(#p7c2eb5795e)">
     <use style="fill:#4c4c4c;" x="438.207118" xlink:href="#C4_0_ca9d0925cd" y="201.153574"/>
    </g>
    <g clip-path="url(#p7c2eb5795e)">
     <use style="fill:#4c4c4c;" x="480.071436" xlink:href="#C4_0_ca9d0925cd" y="203.953007"/>
    </g>
    <g clip-path="url(#p7c2eb5795e)">
     <use style="fill:#4c4c4c;" x="477.859174" xlink:href="#C4_0_ca9d0925cd" y="201.251921"/>
    </g>
   </g>
   <g id="PathCollection_6">
    <defs>
     <path d="M 0 2 
C 0.530406 2 1.03916 1.789267 1.414214 1.414214 
C 1.789267 1.03916 2 0.530406 2 -0 
C 2 -0.530406 1.789267 -1.03916 1.414214 -1.414214 
C 1.03916 -1.789267 0.530406 -2 0 -2 
C -0.530406 -2 -1.03916 -1.789267 -1.414214 -1.414214 
C -1.789267 -1.03916 -2 -0.530406 -2 0 
C -2 0.530406 -1.789267 1.03916 -1.414214 1.414214 
C -1.03916 1.789267 -0.530406 2 0 2 
z
" id="C5_0_e020572384"/>
    </defs>
    <g clip-path="url(#p7c2eb5795e)">
     <use style="fill:#4c4c4c;" x="409.858323" xlink:href="#C5_0_e020572384" y="245.172777"/>
    </g>
    <g clip-path="url(#p7c2eb5795e)">
     <use style="fill:#4c4c4c;" x="414.470346" xlink:href="#C5_0_e020572384" y="249.659299"/>
    </g>
    <g clip-path="url(#p7c2eb5795e)">
     <use style="fill:#4c4c4c;" x="415.536237" xlink:href="#C5_0_e020572384" y="250.033483"/>
    </g>
    <g clip-path="url(#p7c2eb5795e)">
     <use style="fill:#4c4c4c;" x="378.526519" xlink:href="#C5_0_e020572384" y="250.723723"/>
    </g>
    <g clip-path="url(#p7c2eb5795e)">
     <use style="fill:#4c4c4c;" x="419.499661" xlink:href="#C5_0_e020572384" y="244.516541"/>
    </g>
    <g clip-path="url(#p7c2eb5795e)">
     <use style="fill:#4c4c4c;" x="390.229536" xlink:href="#C5_0_e020572384" y="249.025023"/>
    </g>
    <g clip-path="url(#p7c2eb5795e)">
     <use style="fill:#4c4c4c;" x="420.689534" xlink:href="#C5_0_e020572384" y="244.512234"/>
    </g>
    <g clip-path="url(#p7c2eb5795e)">
     <use style="fill:#4c4c4c;" x="389.44359" xlink:href="#C5_0_e020572384" y="248.170134"/>
    </g>
    <g clip-path="url(#p7c2eb5795e)">
     <use style="fill:#4c4c4c;" x="439.27214" xlink:href="#C5_0_e020572384" y="244.701791"/>
    </g>
    <g clip-path="url(#p7c2eb5795e)">
     <use style="fill:#4c4c4c;" x="404.144171" xlink:href="#C5_0_e020572384" y="245.636712"/>
    </g>
   </g>
   <g id="PathCollection_7">
    <defs>
     <path d="M 0 2 
C 0.530406 2 1.03916 1.789267 1.414214 1.414214 
C 1.789267 1.03916 2 0.530406 2 -0 
C 2 -0.530406 1.789267 -1.03916 1.414214 -1.414214 
C 1.03916 -1.789267 0.530406 -2 0 -2 
C -0.530406 -2 -1.03916 -1.789267 -1.414214 -1.414214 
C -1.789267 -1.03916 -2 -0.530406 -2 0 
C -2 0.530406 -1.789267 1.03916 -1.414214 1.414214 
C -1.03916 1.789267 -0.530406 2 0 2 
z
" id="C6_0_6bd202c241"/>
    </defs>
    <g clip-path="url(#p7c2eb5795e)">
     <use style="fill:#4c4c4c;" x="454.353598" xlink:href="#C6_0_6bd202c241" y="294.283452"/>
    </g>
    <g clip-path="url(#p7c2eb5795e)">
     <use style="fill:#4c4c4c;" x="456.674492" xlink:href="#C6_0_6bd202c241" y="292.643933"/>
    </g>
    <g clip-path="url(#p7c2eb5795e)">
     <use style="fill:#4c4c4c;" x="432.276028" xlink:href="#C6_0_6bd202c241" y="294.572343"/>
    </g>
    <g clip-path="url(#p7c2eb5795e)">
     <use style="fill:#4c4c4c;" x="410.552581" xlink:href="#C6_0_6bd202c241" y="291.655155"/>
    </g>
    <g clip-path="url(#p7c2eb5795e)">
     <use style="fill:#4c4c4c;" x="460.533488" xlink:href="#C6_0_6bd202c241" y="287.472932"/>
    </g>
    <g clip-path="url(#p7c2eb5795e)">
     <use style="fill:#4c4c4c;" x="426.24698" xlink:href="#C6_0_6bd202c241" y="291.204248"/>
    </g>
    <g clip-path="url(#p7c2eb5795e)">
     <use style="fill:#4c4c4c;" x="429.307383" xlink:href="#C6_0_6bd202c241" y="292.701145"/>
    </g>
    <g clip-path="url(#p7c2eb5795e)">
     <use style="fill:#4c4c4c;" x="461.83582" xlink:href="#C6_0_6bd202c241" y="292.867905"/>
    </g>
    <g clip-path="url(#p7c2eb5795e)">
     <use style="fill:#4c4c4c;" x="429.972912" xlink:href="#C6_0_6bd202c241" y="293.007368"/>
    </g>
    <g clip-path="url(#p7c2eb5795e)">
     <use style="fill:#4c4c4c;" x="459.203883" xlink:href="#C6_0_6bd202c241" y="289.7189"/>
    </g>
   </g>
   <g id="PathCollection_8">
    <defs>
     <path d="M 0 2 
C 0.530406 2 1.03916 1.789267 1.414214 1.414214 
C 1.789267 1.03916 2 0.530406 2 -0 
C 2 -0.530406 1.789267 -1.03916 1.414214 -1.414214 
C 1.03916 -1.789267 0.530406 -2 0 -2 
C -0.530406 -2 -1.03916 -1.789267 -1.414214 -1.414214 
C -1.789267 -1.03916 -2 -0.530406 -2 0 
C -2 0.530406 -1.789267 1.03916 -1.414214 1.414214 
C -1.03916 1.789267 -0.530406 2 0 2 
z
" id="C7_0_49d138c2fd"/>
    </defs>
    <g clip-path="url(#p7c2eb5795e)">
     <use style="fill:#4c4c4c;" x="226.221523" xlink:href="#C7_0_49d138c2fd" y="337.099709"/>
    </g>
    <g clip-path="url(#p7c2eb5795e)">
     <use style="fill:#4c4c4c;" x="174.349091" xlink:href="#C7_0_49d138c2fd" y="333.876333"/>
    </g>
    <g clip-path="url(#p7c2eb5795e)">
     <use style="fill:#4c4c4c;" x="253.47899" xlink:href="#C7_0_49d138c2fd" y="335.321556"/>
    </g>
    <g clip-path="url(#p7c2eb5795e)">
     <use style="fill:#4c4c4c;" x="205.604036" xlink:href="#C7_0_49d138c2fd" y="335.657167"/>
    </g>
    <g clip-path="url(#p7c2eb5795e)">
     <use style="fill:#4c4c4c;" x="332.806208" xlink:href="#C7_0_49d138c2fd" y="335.342351"/>
    </g>
    <g clip-path="url(#p7c2eb5795e)">
     <use style="fill:#4c4c4c;" x="233.539774" xlink:href="#C7_0_49d138c2fd" y="334.369343"/>
    </g>
    <g clip-path="url(#p7c2eb5795e)">
     <use style="fill:#4c4c4c;" x="197.256796" xlink:href="#C7_0_49d138c2fd" y="336.580716"/>
    </g>
    <g clip-path="url(#p7c2eb5795e)">
     <use style="fill:#4c4c4c;" x="195.504445" xlink:href="#C7_0_49d138c2fd" y="332.127148"/>
    </g>
    <g clip-path="url(#p7c2eb5795e)">
     <use style="fill:#4c4c4c;" x="261.574018" xlink:href="#C7_0_49d138c2fd" y="336.148398"/>
    </g>
    <g clip-path="url(#p7c2eb5795e)">
     <use style="fill:#4c4c4c;" x="218.643121" xlink:href="#C7_0_49d138c2fd" y="337.513566"/>
    </g>
   </g>
   <g id="PathCollection_9">
    <defs>
     <path d="M 0 2 
C 0.530406 2 1.03916 1.789267 1.414214 1.414214 
C 1.789267 1.03916 2 0.530406 2 -0 
C 2 -0.530406 1.789267 -1.03916 1.414214 -1.414214 
C 1.03916 -1.789267 0.530406 -2 0 -2 
C -0.530406 -2 -1.03916 -1.789267 -1.414214 -1.414214 
C -1.789267 -1.03916 -2 -0.530406 -2 0 
C -2 0.530406 -1.789267 1.03916 -1.414214 1.414214 
C -1.03916 1.789267 -0.530406 2 0 2 
z
" id="C8_0_6b3864b143"/>
    </defs>
    <g clip-path="url(#p7c2eb5795e)">
     <use style="fill:#4c4c4c;" x="480.414361" xlink:href="#C8_0_6b3864b143" y="374.710133"/>
    </g>
    <g clip-path="url(#p7c2eb5795e)">
     <use style="fill:#4c4c4c;" x="441.222651" xlink:href="#C8_0_6b3864b143" y="377.716328"/>
    </g>
    <g clip-path="url(#p7c2eb5795e)">
     <use style="fill:#4c4c4c;" x="492.381782" xlink:href="#C8_0_6b3864b143" y="380.243758"/>
    </g>
    <g clip-path="url(#p7c2eb5795e)">
     <use style="fill:#4c4c4c;" x="480.93454" xlink:href="#C8_0_6b3864b143" y="376.783611"/>
    </g>
    <g clip-path="url(#p7c2eb5795e)">
     <use style="fill:#4c4c4c;" x="433.890659" xlink:href="#C8_0_6b3864b143" y="372.959353"/>
    </g>
    <g clip-path="url(#p7c2eb5795e)">
     <use style="fill:#4c4c4c;" x="467.89189" xlink:href="#C8_0_6b3864b143" y="377.556387"/>
    </g>
    <g clip-path="url(#p7c2eb5795e)">
     <use style="fill:#4c4c4c;" x="416.102765" xlink:href="#C8_0_6b3864b143" y="379.320296"/>
    </g>
    <g clip-path="url(#p7c2eb5795e)">
     <use style="fill:#4c4c4c;" x="490.521413" xlink:href="#C8_0_6b3864b143" y="373.202852"/>
    </g>
    <g clip-path="url(#p7c2eb5795e)">
     <use style="fill:#4c4c4c;" x="423.456933" xlink:href="#C8_0_6b3864b143" y="380.158476"/>
    </g>
    <g clip-path="url(#p7c2eb5795e)">
     <use style="fill:#4c4c4c;" x="448.348144" xlink:href="#C8_0_6b3864b143" y="379.669821"/>
    </g>
   </g>
   <g id="PathCollection_10">
    <defs>
     <path d="M 0 2 
C 0.530406 2 1.03916 1.789267 1.414214 1.414214 
C 1.789267 1.03916 2 0.530406 2 -0 
C 2 -0.530406 1.789267 -1.03916 1.414214 -1.414214 
C 1.03916 -1.789267 0.530406 -2 0 -2 
C -0.530406 -2 -1.03916 -1.789267 -1.414214 -1.414214 
C -1.789267 -1.03916 -2 -0.530406 -2 0 
C -2 0.530406 -1.789267 1.03916 -1.414214 1.414214 
C -1.03916 1.789267 -0.530406 2 0 2 
z
" id="C9_0_da537b4f93"/>
    </defs>
    <g clip-path="url(#p7c2eb5795e)">
     <use style="fill:#4c4c4c;" x="439.40017" xlink:href="#C9_0_da537b4f93" y="414.867431"/>
    </g>
    <g clip-path="url(#p7c2eb5795e)">
     <use style="fill:#4c4c4c;" x="373.688195" xlink:href="#C9_0_da537b4f93" y="420.71868"/>
    </g>
    <g clip-path="url(#p7c2eb5795e)">
     <use style="fill:#4c4c4c;" x="248.607931" xlink:href="#C9_0_da537b4f93" y="421.698872"/>
    </g>
    <g clip-path="url(#p7c2eb5795e)">
     <use style="fill:#4c4c4c;" x="406.04234" xlink:href="#C9_0_da537b4f93" y="419.085019"/>
    </g>
    <g clip-path="url(#p7c2eb5795e)">
     <use style="fill:#4c4c4c;" x="354.090968" xlink:href="#C9_0_da537b4f93" y="419.726578"/>
    </g>
    <g clip-path="url(#p7c2eb5795e)">
     <use style="fill:#4c4c4c;" x="395.738757" xlink:href="#C9_0_da537b4f93" y="414.754153"/>
    </g>
    <g clip-path="url(#p7c2eb5795e)">
     <use style="fill:#4c4c4c;" x="335.978268" xlink:href="#C9_0_da537b4f93" y="418.990953"/>
    </g>
    <g clip-path="url(#p7c2eb5795e)">
     <use style="fill:#4c4c4c;" x="404.585887" xlink:href="#C9_0_da537b4f93" y="415.157613"/>
    </g>
    <g clip-path="url(#p7c2eb5795e)">
     <use style="fill:#4c4c4c;" x="379.98111" xlink:href="#C9_0_da537b4f93" y="420.364448"/>
    </g>
    <g clip-path="url(#p7c2eb5795e)">
     <use style="fill:#4c4c4c;" x="400.473636" xlink:href="#C9_0_da537b4f93" y="420.560465"/>
    </g>
   </g>
   <g id="PathCollection_11">
    <defs>
     <path d="M 0 2 
C 0.530406 2 1.03916 1.789267 1.414214 1.414214 
C 1.789267 1.03916 2 0.530406 2 -0 
C 2 -0.530406 1.789267 -1.03916 1.414214 -1.414214 
C 1.03916 -1.789267 0.530406 -2 0 -2 
C -0.530406 -2 -1.03916 -1.789267 -1.414214 -1.414214 
C -1.789267 -1.03916 -2 -0.530406 -2 0 
C -2 0.530406 -1.789267 1.03916 -1.414214 1.414214 
C -1.03916 1.789267 -0.530406 2 0 2 
z
" id="Ca_0_40f8f6b26d"/>
    </defs>
    <g clip-path="url(#p7c2eb5795e)">
     <use style="fill:#4c4c4c;" x="368.832779" xlink:href="#Ca_0_40f8f6b26d" y="462.644854"/>
    </g>
    <g clip-path="url(#p7c2eb5795e)">
     <use style="fill:#4c4c4c;" x="374.348086" xlink:href="#Ca_0_40f8f6b26d" y="461.009143"/>
    </g>
    <g clip-path="url(#p7c2eb5795e)">
     <use style="fill:#4c4c4c;" x="257.276161" xlink:href="#Ca_0_40f8f6b26d" y="459.548172"/>
    </g>
    <g clip-path="url(#p7c2eb5795e)">
     <use style="fill:#4c4c4c;" x="274.474869" xlink:href="#Ca_0_40f8f6b26d" y="461.296894"/>
    </g>
    <g clip-path="url(#p7c2eb5795e)">
     <use style="fill:#4c4c4c;" x="372.354539" xlink:href="#Ca_0_40f8f6b26d" y="460.929751"/>
    </g>
    <g clip-path="url(#p7c2eb5795e)">
     <use style="fill:#4c4c4c;" x="322.903857" xlink:href="#Ca_0_40f8f6b26d" y="465.630512"/>
    </g>
    <g clip-path="url(#p7c2eb5795e)">
     <use style="fill:#4c4c4c;" x="341.757734" xlink:href="#Ca_0_40f8f6b26d" y="462.354454"/>
    </g>
    <g clip-path="url(#p7c2eb5795e)">
     <use style="fill:#4c4c4c;" x="304.279328" xlink:href="#Ca_0_40f8f6b26d" y="465.313829"/>
    </g>
    <g clip-path="url(#p7c2eb5795e)">
     <use style="fill:#4c4c4c;" x="350.056708" xlink:href="#Ca_0_40f8f6b26d" y="462.041235"/>
    </g>
    <g clip-path="url(#p7c2eb5795e)">
     <use style="fill:#4c4c4c;" x="337.45872" xlink:href="#Ca_0_40f8f6b26d" y="465.057654"/>
    </g>
   </g>
   <g id="PathCollection_12">
    <defs>
     <path d="M 0 2 
C 0.530406 2 1.03916 1.789267 1.414214 1.414214 
C 1.789267 1.03916 2 0.530406 2 -0 
C 2 -0.530406 1.789267 -1.03916 1.414214 -1.414214 
C 1.03916 -1.789267 0.530406 -2 0 -2 
C -0.530406 -2 -1.03916 -1.789267 -1.414214 -1.414214 
C -1.789267 -1.03916 -2 -0.530406 -2 0 
C -2 0.530406 -1.789267 1.03916 -1.414214 1.414214 
C -1.03916 1.789267 -0.530406 2 0 2 
z
" id="Cb_0_b64258fe5f"/>
    </defs>
    <g clip-path="url(#p7c2eb5795e)">
     <use style="fill:#4c4c4c;" x="425.755359" xlink:href="#Cb_0_b64258fe5f" y="506.687899"/>
    </g>
    <g clip-path="url(#p7c2eb5795e)">
     <use style="fill:#4c4c4c;" x="374.16482" xlink:href="#Cb_0_b64258fe5f" y="505.531266"/>
    </g>
    <g clip-path="url(#p7c2eb5795e)">
     <use style="fill:#4c4c4c;" x="441.624371" xlink:href="#Cb_0_b64258fe5f" y="503.801129"/>
    </g>
    <g clip-path="url(#p7c2eb5795e)">
     <use style="fill:#4c4c4c;" x="396.212025" xlink:href="#Cb_0_b64258fe5f" y="505.752024"/>
    </g>
    <g clip-path="url(#p7c2eb5795e)">
     <use style="fill:#4c4c4c;" x="410.344236" xlink:href="#Cb_0_b64258fe5f" y="505.965293"/>
    </g>
    <g clip-path="url(#p7c2eb5795e)">
     <use style="fill:#4c4c4c;" x="419.221319" xlink:href="#Cb_0_b64258fe5f" y="506.955654"/>
    </g>
    <g clip-path="url(#p7c2eb5795e)">
     <use style="fill:#4c4c4c;" x="432.266289" xlink:href="#Cb_0_b64258fe5f" y="502.194298"/>
    </g>
    <g clip-path="url(#p7c2eb5795e)">
     <use style="fill:#4c4c4c;" x="427.478592" xlink:href="#Cb_0_b64258fe5f" y="500.938147"/>
    </g>
    <g clip-path="url(#p7c2eb5795e)">
     <use style="fill:#4c4c4c;" x="364.886989" xlink:href="#Cb_0_b64258fe5f" y="501.756423"/>
    </g>
    <g clip-path="url(#p7c2eb5795e)">
     <use style="fill:#4c4c4c;" x="406.835616" xlink:href="#Cb_0_b64258fe5f" y="503.593798"/>
    </g>
   </g>
  </g>
 </g>
 <defs>
  <clipPath id="p7c2eb5795e">
   <rect height="512.82" width="407.2" x="155.84" y="12.96"/>
  </clipPath>
 </defs>
</svg>
