<?xml version="1.0" encoding="UTF-8" standalone="no"?>
<svg
   xmlns:dc="http://purl.org/dc/elements/1.1/"
   xmlns:cc="http://creativecommons.org/ns#"
   xmlns:rdf="http://www.w3.org/1999/02/22-rdf-syntax-ns#"
   xmlns:svg="http://www.w3.org/2000/svg"
   xmlns="http://www.w3.org/2000/svg"
   xmlns:sodipodi="http://sodipodi.sourceforge.net/DTD/sodipodi-0.dtd"
   xmlns:inkscape="http://www.inkscape.org/namespaces/inkscape"
   inkscape:version="1.0 (unknown)"
   sodipodi:docname="color_scheme.svg"
   viewBox="0 0 491.33868 207.87334"
   height="207.87334"
   width="491.33868"
   xml:space="preserve"
   id="svg2"
   version="1.1"><metadata
     id="metadata8"><rdf:RDF><cc:Work
         rdf:about=""><dc:format>image/svg+xml</dc:format><dc:type
           rdf:resource="http://purl.org/dc/dcmitype/StillImage" /><dc:title></dc:title></cc:Work></rdf:RDF></metadata><defs
     id="defs6" /><sodipodi:namedview
     inkscape:current-layer="g10"
     inkscape:window-maximized="0"
     inkscape:window-y="60"
     inkscape:window-x="15"
     inkscape:cy="103.93667"
     inkscape:cx="149.76487"
     inkscape:zoom="3.1124723"
     showgrid="false"
     id="namedview4"
     inkscape:window-height="1903"
     inkscape:window-width="2968"
     inkscape:pageshadow="2"
     inkscape:pageopacity="0"
     guidetolerance="10"
     gridtolerance="10"
     objecttolerance="10"
     borderopacity="1"
     bordercolor="#666666"
     pagecolor="#ffffff" /><g
     transform="matrix(1.3333333,0,0,-1.3333333,0,207.87333)"
     inkscape:label="main-figure0"
     inkscape:groupmode="layer"
     id="g10"><g
       transform="translate(14.173,14.173)"
       id="g12"><g
         id="g14"><g
           id="g16" /><g
           id="g18"><g
             id="g20"><path
               id="path22"
               style="fill:#dfe6f0;fill-opacity:1;fill-rule:nonzero;stroke:none"
               d="M 14.17339,0 C 14.17339,7.82784 7.82784,14.17339 0,14.17339 -7.82784,14.17339 -14.17339,7.82784 -14.17339,0 c 0,-7.82784 6.34555,-14.17339 14.17339,-14.17339 7.82784,0 14.17339,6.34555 14.17339,14.17339 z" /></g><g
             id="g24"><path
               id="path26"
               style="fill:#c0cde1;fill-opacity:1;fill-rule:nonzero;stroke:none"
               d="m 14.17339,42.5202 c 0,7.82785 -6.34555,14.1734 -14.17339,14.1734 -7.82784,0 -14.17339,-6.34555 -14.17339,-14.1734 0,-7.82785 6.34555,-14.1734 14.17339,-14.1734 7.82784,0 14.17339,6.34555 14.17339,14.1734 z" /></g><g
             id="g28"><path
               id="path30"
               style="fill:#a0b4d3;fill-opacity:1;fill-rule:nonzero;stroke:none"
               d="m 14.17339,85.04042 c 0,7.82785 -6.34555,14.1734 -14.17339,14.1734 -7.82784,0 -14.17339,-6.34555 -14.17339,-14.1734 0,-7.82785 6.34555,-14.1734 14.17339,-14.1734 7.82784,0 14.17339,6.34555 14.17339,14.1734 z" /></g><g
             id="g32"><path
               id="path34"
               style="fill:#6182b5;fill-opacity:1;fill-rule:nonzero;stroke:none"
               d="m 14.17339,127.56062 c 0,7.82785 -6.34555,14.1734 -14.17339,14.1734 -7.82784,0 -14.17339,-6.34555 -14.17339,-14.1734 0,-7.82783 6.34555,-14.17338 14.17339,-14.17338 7.82784,0 14.17339,6.34555 14.17339,14.17338 z" /></g><g
             id="g36"><path
               id="path38"
               style="fill:#cfd4d8;fill-opacity:1;fill-rule:nonzero;stroke:none"
               d="m 56.6936,0 c 0,7.82784 -6.34555,14.17339 -14.1734,14.17339 -7.82785,0 -14.1734,-6.34555 -14.1734,-14.17339 0,-7.82784 6.34555,-14.17339 14.1734,-14.17339 7.82785,0 14.1734,6.34555 14.1734,14.17339 z" /></g><g
             id="g40"><path
               id="path42"
               style="fill:#a0aab1;fill-opacity:1;fill-rule:nonzero;stroke:none"
               d="m 56.6936,42.5202 c 0,7.82785 -6.34555,14.1734 -14.1734,14.1734 -7.82785,0 -14.1734,-6.34555 -14.1734,-14.1734 0,-7.82785 6.34555,-14.1734 14.1734,-14.1734 7.82785,0 14.1734,6.34555 14.1734,14.1734 z" /></g><g
             id="g44"><path
               id="path46"
               style="fill:#707f8a;fill-opacity:1;fill-rule:nonzero;stroke:none"
               d="m 56.6936,85.04042 c 0,7.82785 -6.34555,14.1734 -14.1734,14.1734 -7.82785,0 -14.1734,-6.34555 -14.1734,-14.1734 0,-7.82785 6.34555,-14.1734 14.1734,-14.1734 7.82785,0 14.1734,6.34555 14.1734,14.1734 z" /></g><g
             id="g48"><path
               id="path50"
               style="fill:#112a3c;fill-opacity:1;fill-rule:nonzero;stroke:none"
               d="m 56.6936,127.56062 c 0,7.82785 -6.34555,14.1734 -14.1734,14.1734 -7.82785,0 -14.1734,-6.34555 -14.1734,-14.1734 0,-7.82783 6.34555,-14.17338 14.1734,-14.17338 7.82785,0 14.1734,6.34555 14.1734,14.17338 z" /></g><g
             id="g52"><path
               id="path54"
               style="fill:#efd6d4;fill-opacity:1;fill-rule:nonzero;stroke:none"
               d="m 99.21382,0 c 0,7.82784 -6.34555,14.17339 -14.1734,14.17339 -7.82785,0 -14.1734,-6.34555 -14.1734,-14.17339 0,-7.82784 6.34555,-14.17339 14.1734,-14.17339 7.82785,0 14.1734,6.34555 14.1734,14.17339 z" /></g><g
             id="g56"><path
               id="path58"
               style="fill:#dfada9;fill-opacity:1;fill-rule:nonzero;stroke:none"
               d="m 99.21382,42.5202 c 0,7.82785 -6.34555,14.1734 -14.1734,14.1734 -7.82785,0 -14.1734,-6.34555 -14.1734,-14.1734 0,-7.82785 6.34555,-14.1734 14.1734,-14.1734 7.82785,0 14.1734,6.34555 14.1734,14.1734 z" /></g><g
             id="g60"><path
               id="path62"
               style="fill:#cf837d;fill-opacity:1;fill-rule:nonzero;stroke:none"
               d="m 99.21382,85.04042 c 0,7.82785 -6.34555,14.1734 -14.1734,14.1734 -7.82785,0 -14.1734,-6.34555 -14.1734,-14.1734 0,-7.82785 6.34555,-14.1734 14.1734,-14.1734 7.82785,0 14.1734,6.34555 14.1734,14.1734 z" /></g><g
             id="g64"><path
               id="path66"
               style="fill:#af3127;fill-opacity:1;fill-rule:nonzero;stroke:none"
               d="m 99.21382,127.56062 c 0,7.82785 -6.34555,14.1734 -14.1734,14.1734 -7.82785,0 -14.1734,-6.34555 -14.1734,-14.1734 0,-7.82783 6.34555,-14.17338 14.1734,-14.17338 7.82785,0 14.1734,6.34555 14.1734,14.17338 z" /></g><g
             id="g68"><path
               id="path70"
               style="fill:#f7ebd7;fill-opacity:1;fill-rule:nonzero;stroke:none"
               d="m 141.73402,0 c 0,7.82784 -6.34555,14.17339 -14.1734,14.17339 -7.82783,0 -14.17338,-6.34555 -14.17338,-14.17339 0,-7.82784 6.34555,-14.17339 14.17338,-14.17339 7.82785,0 14.1734,6.34555 14.1734,14.17339 z" /></g><g
             id="g72"><path
               id="path74"
               style="fill:#f0d7af;fill-opacity:1;fill-rule:nonzero;stroke:none"
               d="m 141.73402,42.5202 c 0,7.82785 -6.34555,14.1734 -14.1734,14.1734 -7.82783,0 -14.17338,-6.34555 -14.17338,-14.1734 0,-7.82785 6.34555,-14.1734 14.17338,-14.1734 7.82785,0 14.1734,6.34555 14.1734,14.1734 z" /></g><g
             id="g76"><path
               id="path78"
               style="fill:#e8c487;fill-opacity:1;fill-rule:nonzero;stroke:none"
               d="m 141.73402,85.04042 c 0,7.82785 -6.34555,14.1734 -14.1734,14.1734 -7.82783,0 -14.17338,-6.34555 -14.17338,-14.1734 0,-7.82785 6.34555,-14.1734 14.17338,-14.1734 7.82785,0 14.1734,6.34555 14.1734,14.1734 z" /></g><g
             id="g80"><path
               id="path82"
               style="fill:#d99c37;fill-opacity:1;fill-rule:nonzero;stroke:none"
               d="m 141.73402,127.56062 c 0,7.82785 -6.34555,14.1734 -14.1734,14.1734 -7.82783,0 -14.17338,-6.34555 -14.17338,-14.1734 0,-7.82783 6.34555,-14.17338 14.17338,-14.17338 7.82785,0 14.1734,6.34555 14.1734,14.17338 z" /></g><g
             id="g84"><path
               id="path86"
               style="fill:#e9eedd;fill-opacity:1;fill-rule:nonzero;stroke:none"
               d="m 184.25424,0 c 0,7.82784 -6.34554,14.17339 -14.17338,14.17339 -7.82786,0 -14.1734,-6.34555 -14.1734,-14.17339 0,-7.82784 6.34554,-14.17339 14.1734,-14.17339 7.82784,0 14.17338,6.34555 14.17338,14.17339 z" /></g><g
             id="g88"><path
               id="path90"
               style="fill:#d3ddbb;fill-opacity:1;fill-rule:nonzero;stroke:none"
               d="m 184.25424,42.5202 c 0,7.82785 -6.34554,14.1734 -14.17338,14.1734 -7.82786,0 -14.1734,-6.34555 -14.1734,-14.1734 0,-7.82785 6.34554,-14.1734 14.1734,-14.1734 7.82784,0 14.17338,6.34555 14.17338,14.1734 z" /></g><g
             id="g92"><path
               id="path94"
               style="fill:#bccb98;fill-opacity:1;fill-rule:nonzero;stroke:none"
               d="m 184.25424,85.04042 c 0,7.82785 -6.34554,14.1734 -14.17338,14.1734 -7.82786,0 -14.1734,-6.34555 -14.1734,-14.1734 0,-7.82785 6.34554,-14.1734 14.1734,-14.1734 7.82784,0 14.17338,6.34555 14.17338,14.1734 z" /></g><g
             id="g96"><path
               id="path98"
               style="fill:#90a954;fill-opacity:1;fill-rule:nonzero;stroke:none"
               d="m 184.25424,127.56062 c 0,7.82785 -6.34554,14.1734 -14.17338,14.1734 -7.82786,0 -14.1734,-6.34555 -14.1734,-14.1734 0,-7.82783 6.34554,-14.17338 14.1734,-14.17338 7.82784,0 14.17338,6.34555 14.17338,14.17338 z" /></g><g
             id="g100"><path
               id="path102"
               style="fill:#f3f1e1;fill-opacity:1;fill-rule:nonzero;stroke:none"
               d="m 226.77446,0 c 0,7.82784 -6.34555,14.17339 -14.1734,14.17339 -7.82785,0 -14.1734,-6.34555 -14.1734,-14.17339 0,-7.82784 6.34555,-14.17339 14.1734,-14.17339 7.82785,0 14.1734,6.34555 14.1734,14.17339 z" /></g><g
             id="g104"><path
               id="path106"
               style="fill:#e8e3c3;fill-opacity:1;fill-rule:nonzero;stroke:none"
               d="m 226.77446,42.5202 c 0,7.82785 -6.34555,14.1734 -14.1734,14.1734 -7.82785,0 -14.1734,-6.34555 -14.1734,-14.1734 0,-7.82785 6.34555,-14.1734 14.1734,-14.1734 7.82785,0 14.1734,6.34555 14.1734,14.1734 z" /></g><g
             id="g108"><path
               id="path110"
               style="fill:#dcd4a4;fill-opacity:1;fill-rule:nonzero;stroke:none"
               d="m 226.77446,85.04042 c 0,7.82785 -6.34555,14.1734 -14.1734,14.1734 -7.82785,0 -14.1734,-6.34555 -14.1734,-14.1734 0,-7.82785 6.34555,-14.1734 14.1734,-14.1734 7.82785,0 14.1734,6.34555 14.1734,14.1734 z" /></g><g
             id="g112"><path
               id="path114"
               style="fill:#c5b868;fill-opacity:1;fill-rule:nonzero;stroke:none"
               d="m 226.77446,127.56062 c 0,7.82785 -6.34555,14.1734 -14.1734,14.1734 -7.82785,0 -14.1734,-6.34555 -14.1734,-14.1734 0,-7.82783 6.34555,-14.17338 14.1734,-14.17338 7.82785,0 14.1734,6.34555 14.1734,14.17338 z" /></g><g
             id="g116"><path
               id="path118"
               style="fill:#fef4e0;fill-opacity:1;fill-rule:nonzero;stroke:none"
               d="m 269.29468,0 c 0,7.82784 -6.34555,14.17339 -14.1734,14.17339 -7.82785,0 -14.17339,-6.34555 -14.17339,-14.17339 0,-7.82784 6.34554,-14.17339 14.17339,-14.17339 7.82785,0 14.1734,6.34555 14.1734,14.17339 z" /></g><g
             id="g120"><path
               id="path122"
               style="fill:#fde9c1;fill-opacity:1;fill-rule:nonzero;stroke:none"
               d="m 269.29468,42.5202 c 0,7.82785 -6.34555,14.1734 -14.1734,14.1734 -7.82785,0 -14.17339,-6.34555 -14.17339,-14.1734 0,-7.82785 6.34554,-14.1734 14.17339,-14.1734 7.82785,0 14.1734,6.34555 14.1734,14.1734 z" /></g><g
             id="g124"><path
               id="path126"
               style="fill:#fcdda2;fill-opacity:1;fill-rule:nonzero;stroke:none"
               d="m 269.29468,85.04042 c 0,7.82785 -6.34555,14.1734 -14.1734,14.1734 -7.82785,0 -14.17339,-6.34555 -14.17339,-14.1734 0,-7.82785 6.34554,-14.1734 14.17339,-14.1734 7.82785,0 14.1734,6.34555 14.1734,14.1734 z" /></g><g
             id="g128"><path
               id="path130"
               style="fill:#fac764;fill-opacity:1;fill-rule:nonzero;stroke:none"
               d="m 269.29468,127.56062 c 0,7.82785 -6.34555,14.1734 -14.1734,14.1734 -7.82785,0 -14.17339,-6.34555 -14.17339,-14.1734 0,-7.82783 6.34554,-14.17338 14.17339,-14.17338 7.82785,0 14.1734,6.34555 14.1734,14.17338 z" /></g><g
             id="g132"><path
               id="path134"
               style="fill:#f3f3f6;fill-opacity:1;fill-rule:nonzero;stroke:none"
               d="m 311.81488,0 c 0,7.82784 -6.34555,14.17339 -14.17338,14.17339 -7.82786,0 -14.1734,-6.34555 -14.1734,-14.17339 0,-7.82784 6.34554,-14.17339 14.1734,-14.17339 7.82783,0 14.17338,6.34555 14.17338,14.17339 z" /></g><g
             id="g136"><path
               id="path138"
               style="fill:#e8e7ed;fill-opacity:1;fill-rule:nonzero;stroke:none"
               d="m 311.81488,42.5202 c 0,7.82785 -6.34555,14.1734 -14.17338,14.1734 -7.82786,0 -14.1734,-6.34555 -14.1734,-14.1734 0,-7.82785 6.34554,-14.1734 14.1734,-14.1734 7.82783,0 14.17338,6.34555 14.17338,14.1734 z" /></g><g
             id="g140"><path
               id="path142"
               style="fill:#dcdae3;fill-opacity:1;fill-rule:nonzero;stroke:none"
               d="m 311.81488,85.04042 c 0,7.82785 -6.34555,14.1734 -14.17338,14.1734 -7.82786,0 -14.1734,-6.34555 -14.1734,-14.1734 0,-7.82785 6.34554,-14.1734 14.1734,-14.1734 7.82783,0 14.17338,6.34555 14.17338,14.1734 z" /></g><g
             id="g144"><path
               id="path146"
               style="fill:#c4c2d1;fill-opacity:1;fill-rule:nonzero;stroke:none"
               d="m 311.81488,127.56062 c 0,7.82785 -6.34555,14.1734 -14.17338,14.1734 -7.82786,0 -14.1734,-6.34555 -14.1734,-14.1734 0,-7.82783 6.34554,-14.17338 14.1734,-14.17338 7.82783,0 14.17338,6.34555 14.17338,14.17338 z" /></g><g
             id="g148"><path
               id="path150"
               style="fill:#f8f2ed;fill-opacity:1;fill-rule:nonzero;stroke:none"
               d="m 354.33511,0 c 0,7.82784 -6.34555,14.17339 -14.1734,14.17339 -7.82785,0 -14.1734,-6.34555 -14.1734,-14.17339 0,-7.82784 6.34555,-14.17339 14.1734,-14.17339 7.82785,0 14.1734,6.34555 14.1734,14.17339 z" /></g><g
             id="g152"><path
               id="path154"
               style="fill:#f0e6db;fill-opacity:1;fill-rule:nonzero;stroke:none"
               d="m 354.33511,42.5202 c 0,7.82785 -6.34555,14.1734 -14.1734,14.1734 -7.82785,0 -14.1734,-6.34555 -14.1734,-14.1734 0,-7.82785 6.34555,-14.1734 14.1734,-14.1734 7.82785,0 14.1734,6.34555 14.1734,14.1734 z" /></g><g
             id="g156"><path
               id="path158"
               style="fill:#e9d9ca;fill-opacity:1;fill-rule:nonzero;stroke:none"
               d="m 354.33511,85.04042 c 0,7.82785 -6.34555,14.1734 -14.1734,14.1734 -7.82785,0 -14.1734,-6.34555 -14.1734,-14.1734 0,-7.82785 6.34555,-14.1734 14.1734,-14.1734 7.82785,0 14.1734,6.34555 14.1734,14.1734 z" /></g><g
             id="g160"><path
               id="path162"
               style="fill:#dac0a6;fill-opacity:1;fill-rule:nonzero;stroke:none"
               d="m 354.33511,127.56062 c 0,7.82785 -6.34555,14.1734 -14.1734,14.1734 -7.82785,0 -14.1734,-6.34555 -14.1734,-14.1734 0,-7.82783 6.34555,-14.17338 14.1734,-14.17338 7.82785,0 14.1734,6.34555 14.1734,14.17338 z" /></g></g></g></g></g></svg>
