<?xml version="1.0" encoding="UTF-8" standalone="no"?>
<svg
   xmlns:dc="http://purl.org/dc/elements/1.1/"
   xmlns:cc="http://creativecommons.org/ns#"
   xmlns:rdf="http://www.w3.org/1999/02/22-rdf-syntax-ns#"
   xmlns:svg="http://www.w3.org/2000/svg"
   xmlns="http://www.w3.org/2000/svg"
   xmlns:sodipodi="http://sodipodi.sourceforge.net/DTD/sodipodi-0.dtd"
   xmlns:inkscape="http://www.inkscape.org/namespaces/inkscape"
   inkscape:version="1.0 (unknown)"
   sodipodi:docname="hfo_vignet.svg"
   id="svg245"
   width="419.20453pt"
   viewBox="0 0 419.20453 250.94951"
   version="1.1"
   height="250.94951pt">
  <metadata
     id="metadata249">
    <rdf:RDF>
      <cc:Work
         rdf:about="">
        <dc:format>image/svg+xml</dc:format>
        <dc:type
           rdf:resource="http://purl.org/dc/dcmitype/StillImage" />
        <dc:title />
      </cc:Work>
    </rdf:RDF>
  </metadata>
  <sodipodi:namedview
     inkscape:current-layer="patch_1"
     inkscape:window-maximized="0"
     inkscape:window-y="550"
     inkscape:window-x="15"
     inkscape:cy="223.02731"
     inkscape:cx="173.35903"
     inkscape:zoom="0.905635"
     showgrid="false"
     id="namedview247"
     inkscape:window-height="923"
     inkscape:window-width="2968"
     inkscape:pageshadow="2"
     inkscape:pageopacity="0"
     guidetolerance="10"
     gridtolerance="10"
     objecttolerance="10"
     borderopacity="1"
     bordercolor="#666666"
     pagecolor="#ffffff"
     inkscape:document-rotation="0" />
  <defs
     id="defs230">
    <style
       id="style228"
       type="text/css">
*{stroke-linecap:butt;stroke-linejoin:round;}
  </style>
  </defs>
  <g
     transform="translate(-11.785019,-17.807238)"
     id="figure_1">
    <g
       id="patch_1" />
    <g
       id="axes_1">
      <g
         id="line2d_1">
        <path
           transform="matrix(1.3720097,0,0,1.263939,-82.340033,-37.817334)"
           id="path235"
           style="fill:none;stroke:#873345;stroke-width:4.40477555;stroke-linecap:square;stroke-miterlimit:4;stroke-dasharray:none;stroke-opacity:1"
           d="m 69.218182,150.31015 0.05946,-0.0734 0.237831,0.67474 0.297288,0.97844 0.118915,-0.0776 0.118916,0.52387 0.05946,-0.19916 0.05946,0.0187 0.297288,0.82026 0.05946,0.0955 0.05946,-0.11639 0.237831,0.64053 0.475661,1.06235 0.05946,0.10502 0.416203,2.38305 0.05946,-0.0816 0.178373,0.84122 0.05946,-0.01 0.118916,0.0255 0.416203,1.22168 0.178373,1.15318 0.05946,-0.037 0.178372,0.41748 0.05946,0.11428 0.118915,0.50227 0.118916,-0.53475 0.23783,0.32419 0.237831,-0.0188 0.356746,-1.54331 0.05946,0.12825 0.05946,0.009 0.23783,-0.7573 0.118916,0.22041 0.05946,-0.16974 0.05946,0.036 0.05946,-0.0312 0.05946,0.1013 0.05946,-0.0387 0.297288,-1.00581 0.118915,-0.27783 0.05946,0.0775 0.05946,-0.2547 0.05946,0.0807 0.118915,-0.31141 0.237831,-0.74161 0.178373,-0.22355 0.594576,-3.05914 0.05946,0.16102 0.178373,0.23333 0.05946,-0.16855 0.118916,0.4198 0.178373,-0.61414 0.05946,0.0362 0.05946,-0.0723 0.05946,0.0907 0.05946,-0.0426 0.05946,-0.18886 0.05946,0.0548 0.118916,0.24356 0.05946,-0.0749 0.237831,-0.29032 0.05946,0.0522 0.178372,-0.27769 0.05946,0.0834 0.297288,-1.1406 0.05946,0.0704 0.475661,-0.0575 0.118915,0.30381 0.118915,-0.12492 0.05946,0.0445 0.178373,-0.41857 0.178373,-0.27354 0.118915,0.0764 0.118915,0.56556 0.05946,-0.0688 0.05946,-0.10385 0.23783,0.66053 0.237831,-0.44566 0.05946,-0.0182 0.118916,-0.2901 0.05946,0.28347 0.05946,-0.20364 0.05946,-0.31767 0.05946,0.23007 0.118916,0.13257 0.118915,-0.33847 0.05946,0.12435 0.237831,-0.18489 0.05946,0.15254 0.05946,-0.0453 0.05946,-0.0312 0.118915,0.27351 0.118915,-0.49055 0.05946,0.17979 0.05946,0.1 0.416203,-0.75279 0.118915,0.48272 0.05946,-0.058 0.05946,-0.23342 0.05946,0.0771 0.118916,0.25676 0.118915,-0.14175 0.05946,-0.31579 0.05946,0.0143 0.178373,-0.17076 0.237831,-0.84961 0.23783,-0.51364 0.118915,-0.31519 0.118916,0.19173 0.05946,-0.16514 0.297289,1.08517 0.297288,-0.0221 0.118915,-0.36834 0.118915,0.36101 0.118916,-0.39546 0.05946,0.16535 0.118915,-0.20139 0.237831,1.07482 0.118915,-0.0924 0.297288,0.67282 0.05946,-0.11391 0.05946,0.0433 0.178373,0.014 0.05946,0.19774 0.118915,-0.38228 0.05946,0.085 0.178373,-0.0908 0.05946,0.078 0.05946,-0.1249 0.05946,0.0778 0.05946,0.12525 0.05946,-0.0425 0.05946,0.0284 0.118915,0.29338 0.118915,-0.11966 0.05946,0.12517 0.05946,-0.0482 0.23783,-0.15616 0.05946,0.0547 0.356746,1.59654 0.118915,0.27294 0.118915,-0.22752 0.05946,0.11033 0.118915,-0.27187 0.237831,1.04407 0.05946,0.002 0.118916,0.3203 0.05946,-0.1571 0.178373,-0.17155 0.237831,-0.97665 0.118915,0.23177 0.118915,-0.20857 0.237831,0.74367 0.05946,-0.0999 0.118916,0.47654 0.05946,-0.22979 0.05946,0.0753 0.118915,0.0961 0.05946,-0.14347 0.05946,0.10617 0.05946,0.1267 0.118915,-0.47422 0.05946,0.10566 0.118915,0.24043 0.05946,-0.0271 0.535119,-1.35884 0.05946,0.0934 0.05946,-0.10593 0.178373,-0.17681 0.05946,0.0726 0.237831,-0.80154 0.178373,0.51865 0.05946,0.003 0.23783,0.57595 0.05946,-0.0596 0.23783,-1.36546 0.05946,0.13632 0.05946,-0.37967 0.05946,0.0563 0.237831,0.50602 0.05946,-0.31977 0.05946,0.0221 0.05946,0.0481 0.05946,-0.21561 0.05946,0.10043 0.118915,0.43664 0.118915,-0.12467 0.118916,0.0464 0.297288,-0.89848 0.05946,0.06 0.713492,-3.19172 0.05946,0.0638 0.05946,0.004 0.535119,-2.96203 0.237831,-1.12528 0.118915,0.24672 0.178373,-0.44583 0.05946,0.11901 0.178373,-0.48355 0.118916,-0.0452 0.356745,-1.65203 0.05946,0.17516 0.05946,-0.0301 0.05946,-0.19575 0.05946,0.0773 0.05946,-0.0169 0.05946,0.20445 0.416204,-1.17307 0.05946,-0.0401 0.118916,-0.42624 0.05946,0.076 0.118916,0.35099 0.118915,-0.29561 0.23783,1.26621 0.118916,0.10349 0.118915,-0.0785 0.118915,0.39669 0.05946,-0.16751 0.05946,0.14533 0.118916,-0.1497 0.05946,0.23974 0.118916,-0.54236 0.05946,0.0894 0.05946,0.12709 0.178373,-0.47824 0.118915,0.14199 0.05946,-0.0887 0.23783,1.08437 0.118915,-0.23689 0.05946,0.26913 0.118915,-0.29197 0.178368,0.23516 0.17838,-0.32183 0.17837,-0.57868 0.0595,-0.16997 0.0595,0.10024 0.11892,-0.1136 0.0595,-0.0721 0.47566,-2.11357 0.11891,0.0531 0.11892,-0.28119 0.0595,0.0826 0.0594,-0.0993 0.29729,-0.60347 0.11892,0.0249 0.11891,0.72069 0.0595,-0.16208 0.0595,-0.20006 0.0594,0.29192 0.0595,-0.0629 0.0595,-0.32518 0.0595,0.0725 0.17837,-0.0476 0.0595,-0.003 0.47566,0.79098 0.11891,-0.0286 0.0595,0.22305 0.0595,-0.10182 0.0595,-0.19451 0.0594,0.16303 0.11892,-0.11495 0.17837,0.45151 0.23783,-0.5543 0.11892,0.27296 0.4162,1.43726 1.18916,3.47355 0.29728,1.41733 0.11892,0.2545 0.17837,-0.47122 0.0595,0.0921 0.35675,1.11631 0.4162,1.29209 0.0595,0.31364 0.0594,-0.21474 0.0595,0.0181 0.23783,0.63997 0.0595,0.005 0.65403,2.24252 0.11892,0.14554 0.11891,0.6341 0.0595,-0.0993 0.23783,0.41832 0.11892,0.62112 0.0595,-0.15175 0.0594,0.0798 0.29729,0.68043 0.0595,-0.0752 0.0595,0.0936 0.11891,0.6192 0.0595,-0.0718 0.23783,-0.0274 0.0595,-0.2236 0.0594,0.0682 0.35675,1.00833 0.11892,-0.17829 0.11891,-0.38353 0.0595,0.18278 0.0595,-0.10773 0.4162,-1.28696 0.17837,0.20817 0.17838,-0.43499 0.23783,-0.53135 0.0594,0.045 0.0595,0.19062 0.0595,-0.29092 0.0595,0.0745 0.29728,0.86406 0.11892,-0.0944 0.11892,0.25616 0.0594,-0.33983 0.0595,0.0588 0.0595,0.17664 0.0595,-0.0653 0.0594,-0.026 0.0595,-0.19735 0.0595,0.10873 0.17837,-0.13613 0.0595,-0.29598 0.0595,0.0437 0.17837,0.47065 0.0595,-0.25992 0.0595,0.15692 0.0595,0.1818 0.11892,-0.22732 0.17837,0.0607 0.89187,-2.12905 0.0595,0.0369 0.0595,0.34049 0.0595,-0.13895 0.11891,-0.4697 0.0595,0.16804 0.0595,0.21614 0.47566,-1.4356 0.0595,0.0968 0.11891,-0.38366 0.11892,-0.44127 0.0595,0.0169 0.0594,0.06 0.0595,-0.0917 0.29729,-0.51867 0.0595,-0.18288 0.0594,0.10861 0.17838,-0.37133 0.8324,-2.95197 0.0595,0.057 0.0595,-0.10876 0.0595,0.054 0.17837,0.37758 0.11892,-0.35833 0.11891,0.43047 0.23783,-0.58288 0.11892,0.0445 0.4162,-1.7909 0.0595,0.37492 0.0595,-0.0137 0.11891,-0.43508 0.0595,0.0282 0.0595,-0.0322 0.95132,-3.13971 0.23783,-0.89731 0.11891,0.10312 0.17838,-0.32583 0.4162,-1.218 0.11892,-0.17004 0.0595,0.0826 0.7135,-2.38147 0.0594,0.0839 0.11892,-0.4108 0.0595,0.15778 0.17837,-0.14197 0.0595,-0.28115 0.0595,0.056 0.0595,0.0607 0.0595,-0.18102 0.11891,0.26483 0.0595,-0.24559 0.0595,0.0209 0.23783,0.18996 0.11892,0.95346 0.0594,-0.0535 0.11892,-0.27588 0.35674,0.73095 0.17838,-0.39582 0.0594,0.17348 0.0595,-0.0743 0.0595,-0.28617 0.0595,0.11579 0.11891,0.1549 1.1297,4.22877 0.11891,0.0737 0.7135,2.54992 0.0594,-0.0976 0.11892,0.52181 0.0595,0.3011 0.0595,-0.0795 0.17838,0.28485 0.0594,-0.11365 0.29729,-0.85469 0.11892,0.0762 0.0595,0.0129 0.23783,-0.44366 0.0594,0.15067 0.0595,-0.0317 0.29729,-0.83324 0.0595,0.15658 0.11891,0.043 0.0595,0.12026 0.0595,-0.0318 0.11891,-0.46542 0.0595,0.10713 0.4162,1.25314 0.0595,-0.0195 0.17837,0.21358 0.11892,-0.76279 0.0595,0.17709 0.11891,-0.27727 0.23783,0.78957 0.35675,1.15686 0.11891,0.1845 0.23783,-0.61883 0.29729,-1.04496 0.11892,0.16165 0.17837,0.30874 0.0595,0.23849 0.0595,-0.18248 0.35674,-0.22017 0.23783,0.29587 0.23783,-0.90141 0.11892,-0.71805 0.0594,0.0516 0.11892,-0.41613 0.11892,0.15073 0.23783,-0.32086 0.47566,-2.21803 0.23783,-0.56905 0.29729,0.91403 0.17837,0.69183 0.11891,0.47118 0.0595,-0.20153 0.0595,-0.20091 0.0595,0.18356 0.35674,0.8419 0.17838,-0.0794 0.0594,-0.005 0.11892,-0.23166 0.0595,0.20009 0.0594,-0.1533 0.0595,-0.0367 0.17837,0.69988 0.0595,-0.0603 0.11892,0.14541 0.11891,0.0263 0.0595,-0.03 0.0595,0.16225 0.4162,-0.99699 0.11892,-0.0351 0.0594,-0.14428 0.0595,0.0699 0.23783,0.72722 0.0595,-0.24011 0.0595,0.10027 0.23783,-0.39937 0.29729,1.07386 0.17837,0.42465 0.29729,0.0822 0.17837,-0.24705 0.0595,-0.26982 0.0595,0.0179 0.0594,0.19931 0.0595,-0.12717 0.0595,0.1 0.0595,0.35095 0.0594,-0.076 0.0595,-0.50061 0.0595,0.0573 0.17837,0.67072 0.0595,0.0512 0.29729,0.76552 0.0595,-0.0973 0.35674,0.98651 0.17837,0.71869 0.0595,-0.126 0.0595,0.11416 0.0595,0.22615 0.0594,-0.1425 0.0595,-0.0228 0.11892,-0.44671 0.0595,0.0986 0.0594,-0.30682 0.0595,0.17977 0.71349,2.33902 1.18915,3.55445 0.29729,1.97592 0.47567,1.97508 0.0594,-0.0266 0.0595,0.11176 0.17837,0.59677 0.11892,0.44277 0.0595,-0.10456 0.17837,0.14512 0.0595,0.16907 0.0594,-0.0727 0.23783,-0.69103 0.17838,0.55531 0.53512,3.09907 0.0594,0.0163 0.59458,3.15465 0.17837,0.74748 0.0595,-0.1986 0.23783,0.59746 0.53512,1.05916 0.0595,-0.12898 0.0594,-0.32063 0.0595,0.12224 0.23783,0.11188 0.35675,1.45974 0.0595,-0.0175 0.0594,0.002 0.17838,0.65391 0.35674,0.88113 0.29729,-2.01988 0.23783,-1.01442 0.17837,0.6887 0.0595,-0.096 0.11892,0.0741 0.29729,-0.74013 0.0594,0.19363 0.0595,-0.14497 0.0595,-0.19261 0.0595,0.10031 0.0594,0.0315 0.17838,-0.58584 0.17837,-0.39019 0.0595,-0.0508 0.0594,0.1647 0.11892,-0.31822 0.11892,0.58138 0.0594,-0.0319 0.17838,-0.25766 0.0594,0.0259 0.17838,-0.49377 0.11891,0.063 0.11892,0.61748 0.0595,-0.39777 0.0594,0.14555 0.0595,0.1664 0.0595,-0.0431 0.11891,0.0102 0.29729,0.6632 0.17837,0.85806 0.23783,0.29635 0.35675,-0.45811 0.11892,-0.23514 0.0594,0.046 0.17838,0.2668 0.11891,-0.25712 0.0595,0.039 0.23783,-0.66322 0.4162,-1.17342 0.47566,-1.5023 0.11892,0.17746 0.47566,-2.07343 0.11892,-0.18356 0.17837,-0.19969 0.0595,0.11955 0.0595,-0.0898 0.11892,-0.0699 0.0595,0.0186 0.23783,0.97229 0.0594,0.19145 0.0595,-0.12458 0.71349,-2.01981 0.0595,0.0155 0.17837,-0.26615 0.0595,-0.51978 0.0595,0.10737 0.0595,-0.0896 0.11891,0.39626 0.0595,-0.0316 0.11892,0.3194 0.0594,-0.0947 0.0595,0.0473 0.0595,0.24538 0.0595,-0.21069 0.0594,-0.14782 0.0595,0.1439 0.17837,-0.21747 0.0595,0.11814 0.0595,-0.0269 0.0595,-0.22555 0.0594,0.0348 0.23784,0.40356 0.29728,-1.14809 0.0595,0.049 0.11892,-0.22049 0.0594,0.11932 0.11892,-0.309 0.0595,0.13517 0.0595,-0.21623 0.0594,0.17092 0.0595,-0.0117 0.0595,-0.47933 0.0595,0.10878 0.11891,-0.0643 0.0595,0.15596 0.0595,-0.12735 0.53511,-0.93676 0.0595,0.08 0.35675,-1.11093 0.0595,-0.48815 0.0594,0.0301 0.0595,0.009 0.23783,-0.29518 0.0595,0.0423 0.11891,-0.40613 0.41621,-1.45096 0.35674,-0.0896 0.0595,-0.22814 0.0595,0.0835 0.29729,0.44216 0.0594,-0.48083 0.0595,0.0488 0.0595,0.0697 0.0595,-0.28043 0.0595,0.12486 0.0594,-0.003 0.29729,-0.48368 0.0595,0.0524 0.11891,0.34874 0.0595,-0.0768 0.0595,0.10034 0.11891,0.29017 0.0595,-0.0501 0.29729,0.009 0.0595,-0.20268 0.0595,0.17741 0.23783,0.54327 0.17837,0.13606 0.11891,-0.37904 0.0595,0.17825 0.0595,0.12908 0.0595,-0.0954 0.11891,-0.45932 0.23783,0.7368 0.0595,-0.10309 0.17837,0.56148 0.41621,1.14147 0.0594,-0.10938 0.0595,0.10158 0.11892,0.25083 0.23783,0.83286 0.0595,-0.16384 0.0594,0.14485 0.0595,-0.0486 0.0595,0.1136 0.0595,0.35364 0.0594,-0.19548 0.23783,-0.46694 0.0595,0.38435 0.0595,-0.0772 0.0595,-0.23086 0.0595,0.0248 0.11891,0.19022 0.4162,-1.00451 0.11892,-0.46939 0.0595,0.0136 0.11891,-0.41266 0.17837,0.15723 0.0595,0.0286 0.0595,-0.22449 0.0595,0.0588 0.11891,0.20682 0.17838,-0.31093 0.0594,0.0534 0.65404,-1.88418 0.0595,-0.0492 0.0594,0.15976 0.0595,-0.29703 0.0595,0.0179 0.0595,0.22185 0.0594,-0.17625 0.0595,-0.28598 0.0595,0.21923 0.0595,0.15871 0.0594,-0.0391 0.11892,-0.38139 0.0595,0.0856 0.0594,0.094 0.0595,-0.0413 0.11892,-0.22458 0.0594,0.1412 0.0595,-0.13499 0.11892,-0.12691 0.11891,-0.5988 0.0595,0.0799 0.17837,0.10426 0.17838,0.3008 0.0595,-0.21966 0.0595,0.0178 0.23783,-0.10443 0.17838,-0.4094 0.23783,0.56307 0.23783,0.27552 0.17837,0.66343 0.0595,0.32799 0.0595,-0.0797 0.11891,-0.12761 0.17837,0.40805 0.17838,0.66803 0.65403,0.93288 0.4162,1.03632 0.11892,0.10556 0.11891,-0.36618 0.0595,0.29782 0.0595,-0.22047 0.11891,-0.30768 0.23783,0.58107 0.0595,-0.0721 0.11892,0.53718 0.0595,-0.0302 0.0594,-0.28389 0.29729,1.14677 0.0595,0.0542 0.47566,1.91367 0.0595,0.0407 0.23783,0.58638 0.0595,-0.0354 0.17837,0.60976 0.0595,-0.0987 0.11891,0.55171 0.0595,-0.0861 0.0595,-0.0397 0.23783,0.48786 0.11891,0.19135 0.23783,0.92346 0.41621,0.66898 0.53512,2.34743 0.11891,0.13258 0.17837,-0.66197 0.0595,0.095 0.83241,4.05053 0.23783,0.69829 0.0595,-0.006 0.23783,1.02754 0.0594,-0.10064 0.0595,0.0846 0.0595,0.0966 0.11892,-0.26799 0.23783,1.11896 0.0594,0.0719 0.41621,1.37363 0.0594,-0.15001 0.11892,0.18044 0.11891,-0.0139 0.0595,0.0805 0.17838,0.89168 0.53511,-3.05995 0.35675,-5.15082 1.07024,-21.00899 0.4162,-7.46241 1.01078,-16.5855 0.47566,-7.22181 0.47566,-5.877 0.35675,-1.24151 0.0595,0.17284 0.0594,-0.0253 0.17838,0.13009 0.23783,0.3508 0.0595,-0.0643 0.35675,1.55422 0.11892,0.67514 0.95132,12.81506 0.29729,4.47769 0.59457,11.18221 0.41621,7.77661 0.35674,2.98498 0.11892,0.40745 0.0594,-0.1614 0.0595,0.062 0.0595,-0.001 0.23783,-1.5759 0.23783,-3.27148 0.35675,-14.99436 0.65403,-57.775906 0.35675,-22.595925 0.11891,-1.560263 0.11892,3.566714 0.17837,12.355176 0.29729,40.341794 0.71349,107.82991 0.23783,11.98447 0.17837,1.73184 0.11892,-0.59058 0.29729,-2.03113 0.0594,-0.10538 0.0595,0.044 0.11892,0.61966 0.35674,4.11358 0.53512,9.54421 0.41621,7.53678 0.11891,0.7317 0.0595,-0.10484 0.17837,-1.20456 0.23783,-3.48464 0.65404,-15.99878 1.60535,-43.71716 0.95132,-28.15749 0.53512,-11.48266 0.71349,-8.96285 0.41621,-3.29552 0.35674,-1.38115 0.17838,-0.2365 0.11891,0.0858 0.23783,0.51217 0.17838,0.21817 0.11891,-0.17485 0.0595,0.0665 0.0595,0.0142 0.11891,-0.12454 0.65403,1.42305 0.0595,-0.0552 0.11892,0.22657 0.0595,-0.13467 0.0594,0.13735 0.0595,0.17181 0.11892,-0.16388 0.0594,0.17392 0.0595,-0.13413 0.11892,-0.066 0.11891,0.28032 0.0595,-0.0457 0.17837,-0.25843 0.0595,0.0624 0.11892,0.0837 0.23783,-0.34022 0.0595,-0.0214 0.23783,0.6327 0.59458,2.15101 0.95132,7.52621 0.29729,1.2534 0.89187,4.95219 0.23783,1.46646 0.23783,1.9063 0.65403,2.60273 0.17837,-0.0202 0.11892,0.20972 0.0595,-0.11339 0.11891,0.30358 0.0595,-0.0491 0.0595,-0.0479 0.23783,0.62927 0.17837,0.32229 0.11892,0.91265 0.0595,-0.16443 0.41621,1.0912 0.0594,-0.0811 0.0595,0.0936 0.0595,0.14159 0.0595,-0.0624 0.0594,-0.20086 0.0595,0.0929 0.11892,0.48388 0.0595,-0.0195 0.53511,1.19692 0.0595,-0.0647 0.41621,0.57469 0.11891,-0.0939 0.23783,1.01634 0.0595,-0.0606 0.35674,1.43353 0.11892,-0.11471 0.0595,0.15694 0.0594,-0.18757 0.0595,0.30341 0.0595,-0.13084 0.0595,-0.36971 0.0595,0.26126 0.17837,0.41969 0.0595,-0.12221 0.11891,0.59884 0.0595,-0.0674 0.17837,0.13048 0.0595,-0.0448 0.11891,0.28127 0.0595,-0.32655 0.0595,0.15769 0.11892,-0.28243 0.11891,0.095 0.23783,0.79705 0.0595,-0.12551 0.17837,0.53291 0.11892,-0.0195 0.0594,-0.14854 0.0595,0.0246 0.0595,1.5e-4 0.35675,-1.13826 0.23783,-0.51601 0.11891,0.17755 0.11892,-0.30526 0.0594,0.12113 0.11892,0.27938 0.11891,-0.2138 0.0595,0.10401 0.0595,-0.29742 0.0595,0.17376 0.17837,0.19482 0.11892,-0.0439 0.47566,-1.77736 0.47566,-3.31834 0.0595,0.0294 0.11891,-0.29315 0.0595,0.1425 0.0595,-0.0349 0.11891,0.0105 0.0595,0.0526 0.11891,-0.58608 0.0595,0.087 0.11892,-0.0445 0.11891,-0.27734 0.11892,-0.0536 0.0595,-0.25277 0.0594,0.0732 0.0595,-0.006 0.0595,-0.31601 0.0595,0.0473 0.17837,-0.18317 0.53512,-1.15524 0.35674,0.62528 0.11892,-0.19419 0.0595,0.23714 0.0594,-0.12445 0.11892,-0.0138 0.0595,-0.13564 0.0594,0.0439 0.65404,1.50183 0.0595,-0.13766 0.11891,-0.0828 0.11892,0.38608 0.11891,-0.22125 0.0595,0.0365 0.11891,-0.0201 0.47567,1.96104 0.11891,0.0777 0.17837,-0.43132 0.29729,-0.55402 0.11892,0.13763 0.11891,0.51984 0.0595,-0.0237 0.11892,0.0705 0.0594,-0.18207 0.0595,0.0229 0.17837,0.42776 0.0595,-0.0292 0.17837,-0.003 0.11892,-0.0913 0.0595,0.20992 0.0595,-0.13914 0.0594,-0.01 0.11892,-0.28419 0.0595,0.23839 0.0594,-0.0645 0.11892,-0.29499 0.11891,0.56982 0.23783,-0.97609 0.0595,0.10454 0.11892,-0.1346 0.0594,-0.24542 0.0595,0.15101 0.11892,0.55795 0.0595,-0.0499 0.0594,-0.15004 0.0595,0.20169 0.0595,-0.21125 0.0595,0.0356 0.17837,0.50127 0.11891,0.14841 0.11892,0.49355 0.11891,-0.21066 0.0595,0.17651 0.0595,-0.13727 0.71349,-2.04199 0.0595,0.11101 0.0595,-0.11681 0.11891,-0.20923 0.53512,-2.34421 0.23783,0.34141 0.29729,-1.00141 0.11891,-0.43334 0.17838,-0.95235 0.0595,0.0453 0.35674,1.30318 0.11892,-0.1635 0.17837,0.26851 0.29729,-1.02594 0.35674,-1.32478 0.11892,0.28549 0.0595,0.12427 0.0594,-0.094 0.0595,-0.3624 0.0595,0.15158 0.0595,0.17481 0.11891,-0.44698 0.11892,0.66128 0.0594,-0.35085 0.0595,0.0572 0.0595,0.27337 0.11892,-0.31531 0.11891,0.31877 0.0595,-0.24938 0.0595,0.17415 0.17837,0.34576 0.0595,-0.16769 0.23783,0.55911 0.11891,-0.0397 0.23783,0.52743 0.0595,-0.0124 0.11892,0.45545 0.23783,-0.46516 0.29728,-0.15297 0.0595,0.24366 0.0595,-0.0302 0.17837,0.0283 0.35675,1.6952 0.23783,0.5012 0.11891,0.30873 0.0595,-0.21633 0.35675,1.42044 0.0595,-0.0439 0.35674,1.76102 0.71349,2.24742 0.17838,0.91383 0.11891,0.13889 0.35675,-0.45371 0.0594,-0.0342 0.11892,0.3912 0.0595,-0.0295 0.0595,-0.1132 0.0594,0.12208 0.23783,-0.0115 0.0595,0.16678 0.0595,-0.28762 0.0595,0.2015 0.0594,0.0797 0.11892,-0.22412 0.0595,0.0267 0.0594,0.34329 0.0595,-0.25005 0.0595,-0.32151 0.0595,0.26332 0.29729,0.69532 0.11891,-0.20954 0.0595,0.11168 0.17837,-0.22277 0.0595,-0.0538 0.0595,0.17029 0.23783,-0.70364 0.23783,-0.63852 0.0595,0.0845 0.0594,0.19672 0.0595,-0.13025 0.0595,-0.0115 0.23783,0.87495 0.47566,-0.89068 0.0595,0.0689 0.23783,-0.33315 0.11891,-0.0525 0.35675,-1.14171 0.11891,-0.99234 0.0595,0.0191 0.11892,-0.1297 0.11891,0.14729 0.53512,-0.91052 0.17837,-0.24869 0.29729,-0.0151 0.41621,-1.30961 0.23783,0.26271 0.0594,0.005 0.0595,0.4957 0.0595,-0.10123 0.0595,-0.24838 0.0595,0.27828 0.17837,-0.60321 0.11891,0.28461 0.0595,-0.15579 0.17837,-0.23637 0.11892,0.21825 0.0595,-0.2396 0.11891,0.37737 0.17837,-0.43383 0.0595,0.0253 0.17837,-0.91976 0.0595,0.20715 0.11892,-0.19387 0.17837,0.25214 0.11892,-0.0346 0.0594,0.10048 0.7135,-2.46315 0.11891,0.28905 0.4162,1.96577 0.23783,0.60946 0.0595,0.0105 0.23783,-0.62276 0.23783,-0.9827 0.23783,-1.37777 0.0595,0.22652 0.11892,-0.4267 0.0594,0.0934 0.35675,-0.56768 0.29729,-1.26228 0.11891,0.0921 0.29729,0.60828 0.53512,0.87004 0.23783,-0.76926 0.35675,0.29566 0.11891,0.1216 0.35675,-0.74208 0.0595,0.0491 0.17837,0.15522 0.0595,-0.082 0.29728,0.54038 0.11892,-0.307 0.11892,-0.32787 0.0594,0.14025 0.0595,0.31295 0.0595,-0.26426 0.17837,0.25989 0.23783,1.15298 0.11892,0.23416 0.0594,0.40232 0.0595,-0.16262 0.29729,-0.55237 0.0595,0.0168 0.0595,-0.14222 0.0595,0.0767 0.47566,-0.0392 0.0595,-0.0826 0.0595,0.0853 0.0595,0.10488 0.0594,-0.0714 0.11892,-0.0418 0.11891,0.3523 0.0595,-0.0977 0.11892,-0.32185 0.59457,1.35923 0.0595,0.11722 0.11892,-0.47338 0.0594,0.19504 0.11892,-0.13253 0.11892,0.21617 0.17837,-0.51786 0.47566,-1.29218 0.0595,0.0432 0.0594,-0.005 0.17838,0.40714 0.0594,-0.0491 0.0595,-0.14402 0.0595,0.10017 0.11892,0.34743 0.0594,-0.0956 0.35675,-0.0131 0.47566,1.54348 0.0595,-0.23579 0.0595,0.0792 0.11891,0.13219 0.0595,-0.0665 0.11891,-0.0307 0.0595,0.0733 0.0595,-0.0621 0.0595,-0.37664 0.0594,0.0463 0.0595,-0.0477 0.0595,-0.26359 0.0595,0.0687 0.0595,0.0601 0.11892,-0.26036 0.35675,1.38855 0.0594,-0.0701 0.41621,0.82225 0.0594,-0.1061 0.17838,-0.26722 0.17837,-0.0742 0.29729,0.78683 0.0595,0.11833 0.11891,-0.29486 0.0595,0.14371 0.0595,-0.18608 0.0595,0.171 0.23784,0.52523 0.23783,1.02116 0.17837,0.6421 0.71349,1.72259 0.17837,0.7121 0.17838,0.45056 0.23783,-0.34576 0.11891,-0.0537 0.17837,-0.41989 0.11892,0.24552 0.23783,-0.62343 0.11892,-0.1766 0.17837,-0.45397 0.17837,-0.58949 0.17837,-0.58909 0.0595,-0.0107 0.23783,-0.67155 0.11892,-0.21739 0.11891,-0.35463 0.0595,0.0806 0.0595,-0.20775 0.0595,0.15367 0.35674,-0.90148 0.0595,0.23179 0.0595,0.31383 0.0595,-0.15059 0.11892,0.21229 0.11892,-0.65004 0.0594,0.0534 0.0595,-0.085 0.23783,0.3891 0.11892,-0.19199 0.0594,0.16899 0.0595,-0.18346 0.0595,0.17676 0.17837,0.31398 0.0595,-0.19164 0.0595,0.0467 0.17837,0.34965 0.11892,-0.0655 0.35674,1.69686 0.0595,-0.0621 0.0595,-0.35787 0.0595,0.1901 0.23783,0.86486 0.11892,-0.1091 0.17837,0.57944 0.0595,0.0506 0.0595,-0.0855 0.11891,0.52541 0.0595,-0.055 0.0595,-0.0532 0.17837,-0.35169 0.11892,0.1058 0.29729,0.43577 0.0594,-0.0397 0.0595,0.13353 0.0595,-0.0812 0.0595,-0.24515 0.0595,0.0963 0.17838,-0.0542 0.0594,-0.0332 0.11892,-0.34527 0.17837,0.20739 0.29729,-0.7345 0.47566,0.66979 0.0595,-0.34474 0.0595,0.22072 0.0595,0.44359 0.0594,-0.0706 0.11892,0.0679 0.11891,-0.0323 0.17838,-0.39896 0.0594,0.15333 0.0595,-0.041 0.0595,-0.0924 0.0595,0.12878 0.29728,-0.89188 0.59458,1.41114 0.29729,-0.52653 0.47566,1.57832 0.0595,0.0299 0.11891,0.40021 0.89187,-3.10148 0.11891,0.25943 0.11892,0.50568 0.0595,-0.0475 0.23783,-0.61268 0.0595,0.0649 0.0595,-0.29743 0.0595,0.0876 0.0595,0.0957 0.11891,-0.17233 0.23783,0.30498 0.0595,-0.133 0.0595,0.0959 0.0594,0.37 0.11892,-0.39766 0.0595,0.0552 0.23783,-1.50658 0.11891,0.134 0.0595,0.13617 0.11892,-0.4682 0.11891,0.50508 0.29729,-1.3507 0.11892,-0.35838 0.11891,-0.31694 0.0595,0.13931 0.11891,-0.256 0.0595,0.14731 0.0595,-0.0917 0.11891,-0.11228 0.11892,0.18648 0.11891,0.0865 0.0595,-0.0282 0.11892,0.13238 0.0595,-0.14075 0.0594,0.0349 0.0595,0.0981 0.0595,-0.0993 0.17837,-0.33114 0.17837,0.11025 0.41621,-1.6113 0.11891,-0.45005 0.0595,0.0608 0.29729,1.03023 0.0595,-0.11086 0.0595,0.10273 0.17838,0.74322 0.11891,-0.22146 0.0595,0.47502 0.0595,-0.22221 0.11891,-0.21428 0.11892,0.0327 0.17837,-0.52459 0.11892,0.16114 0.0595,-0.44848 0.0595,0.0222 0.17837,0.43303 0.23783,0.73508 0.0595,-0.10552 0.17837,-0.72867 0.0595,-0.14763 0.0595,0.0297 0.0595,0.0629 0.0595,-0.0823 0.0594,-0.006 0.17838,0.37857 0.11891,0.025 0.23783,0.49713 0.0595,-0.0844 0.29729,0.55416 0.11891,-0.11112 0.11892,0.61387 0.0595,-0.0599 0.0595,0.005 0.35675,0.59102 0.11891,0.18651 0.0595,-0.0891 0.17838,-0.34723 0.17837,-0.22963 0.59458,1.83572 0.11891,-0.43002 0.0595,0.0502 0.11891,0.1758 0.23783,-0.57847 0.11892,0.14346 0.11891,-0.32883 0.0595,0.2628 0.0595,-0.26788 0.0595,0.14773 0.17837,0.30617 0.0595,-0.0493 0.11891,-0.0108 0.11892,0.2246 0.4162,1.9164 0.0595,-0.11624 0.11891,0.0423 0.17838,-0.67217 0.17837,0.13568 0.11892,-0.15693 0.53511,1.21143 0.23784,-0.0839 0.11891,0.0252 0.0595,-0.0567 0.0595,-0.22318 0.0595,0.1537 0.0595,-0.0449 0.23783,0.30195 0.53512,-0.74558 0.4162,0.96819 0.11892,0.0776 0.29729,1.02973 0.11891,-0.35274 0.0595,0.0449 0.0595,0.10251 0.0595,-0.11016 0.0594,-0.35411 0.0595,0.0547 0.0595,0.0666 0.11891,-0.37019 0.0595,0.0996 0.77295,-3.14013 0.4162,-0.70468 0.11892,0.0938 0.29729,-0.47951 0.0595,-0.0166 0.17838,-0.19042 0.11891,0.009 0.35675,-1.37753 0.11891,0.0531 0.11892,0.22474 0.17837,-0.26476 0.11892,0.29124 0.23783,-0.61268 0.0595,0.0727 0.0595,0.1089 0.35675,-1.1313 0.0595,0.0215 0.23783,-0.66878 0.17837,0.32078 0.0595,-0.077 0.17837,-0.11538 0.11892,-0.18366 0.23783,-0.90133 0.0594,-0.39609 0.0595,0.0865 0.17837,-0.31391 0.0595,0.10917 0.23783,0.72066 0.29729,-0.52986 0.11892,-0.0475 0.11891,-0.34091 0.0595,0.0881 0.0595,-0.12532 0.0595,0.111 0.0595,0.0163 0.0595,-0.0999 0.77295,2.8664 0.11891,-0.12542 0.0595,0.16893 0.0595,-0.1223 0.23783,-0.63739 0.0595,0.0437 0.11891,0.29554 0.0595,-0.10096 0.0595,-0.27131 0.0595,0.198 0.0595,-0.027 0.11892,-0.19421 0.23783,0.61757 1.42698,4.95223 0.17838,0.17067 0.11891,-0.086 0.0595,0.002 0.11891,0.52675 0.0595,-0.13359 0.17837,1.15801 0.35675,1.83317 0.0595,-0.11673 0.0594,-0.007 0.23784,0.81521 0.0595,-0.0171 0.11892,0.42082 0.11891,-0.41497 0.0595,0.0519 0.0595,0.0616 0.11891,0.36595 0.0595,-0.0629 0.0595,0.0388 0.11891,-0.28092 0.0595,-0.008 0.0595,-0.21744 0.59458,1.94956 0.0594,0.0199 0.23783,0.64348 0.0595,-0.0284 0.11892,-0.37692 0.0595,0.25673 0.0594,-0.0875 0.0595,-0.11882 0.29729,0.73157 0.11891,-0.54518 0.17838,0.65426 0.0595,-0.0354 0.17838,0.0868 0.47566,-1.16689 0.17837,-0.34582 0.23783,-1.32895 0.17837,-1.03944 0.0595,0.0172 0.0595,0.29799 0.0595,-0.0993 0.0595,-0.0976 0.0594,0.0536 0.0595,0.0436 0.17837,-0.36408 0.0595,0.0625 0.23783,0.11657 0.0595,0.11798 0.0595,-0.0462 0.53512,-0.68561 0.0595,0.0922 0.0595,0.0699 0.11892,-0.28879 0.17837,0.55419 0.0595,0.0382 0.53512,1.5814 0.17837,0.23292 0.59457,0.63527 0.0595,-0.0981 0.53512,-2.39055 0.71349,-1.64954 0.11892,0.0694 0.23783,-0.80686 0.11891,-0.41557 0.11892,0.0356 0.17837,-0.47137 0.59458,-2.61687 0.17837,-0.25345 0.0595,-0.14427 0.17837,0.26085 0.11892,-0.005 0.29728,0.90565 0.0595,-0.17403 0.17838,-0.31853 0.11891,-0.42932 0.23783,-1.046 0.0595,0.0221 0.11892,-0.43691 0.17837,0.53406 0.17837,-0.12686 0.11892,0.12435 0.0594,-0.38585 0.0595,0.16874 0.0595,-0.17688 0.23783,-1.36946 0.11891,-0.29235 0.11892,0.24851 0.0595,-0.42639 0.0595,0.0439 0.0595,0.10202 0.11892,-0.41175 0.0595,0.0631 0.17837,0.44315 0.23783,0.60771 0.17837,-0.20414 0.29729,0.0472 0.11891,-0.7372 0.11892,0.41151 0.0595,-0.3156 0.0595,0.22945 0.29728,0.41919 0.23784,0.54342 0.0594,0.10505 0.0595,-0.0569 0.11891,-0.149 0.0595,0.14344 0.11892,-0.33845 0.0595,0.0479 0.11891,0.22418 0.0595,-0.14566 0.0595,0.14269 0.17837,0.44644 0.11891,0.0354 0.0595,0.2268 0.0595,-0.0314 0.0595,-0.0925 0.0595,0.35126 0.0595,-0.10751 0.0595,-0.11938 0.65403,2.41943 0.0595,-0.0336 0.53512,-0.48446 0.17837,-0.71344 0.59458,-2.31087 0.83241,-3.63835 0.0595,-0.0721 0.0595,0.12369 0.0595,-0.0983 0.0595,0.0124 0.0595,0.368 0.0594,-0.17061 0.0595,-0.0238 0.23783,-0.8767 0.17837,-0.4531 0.11892,0.11922 0.0595,-0.19972 0.0595,0.30584 0.0595,-0.0478 0.17838,-0.46297 0.47566,-0.70352 0.0594,0.0196 0.11892,-0.31767 0.11891,0.0681 0.11892,-0.0359 0.0595,0.13309 0.17837,0.49668 0.17837,0.67206 0.11892,0.11624 0.0595,0.0957 0.11891,-0.40072 0.17837,0.39704 0.0595,-0.12439 0.29729,0.80394 0.0595,-0.15812 0.11891,0.41167 0.0595,-0.13919 0.0595,0.35029 0.0595,-0.0701 0.0595,-0.003 0.29729,1.38233 0.47566,0.6033 0.11892,-0.2483 0.59457,2.01388 0.0595,-0.16976 0.17837,0.0224 0.0595,0.0414 0.17838,1.14826 0.29728,1.42867 0.23783,0.85449 0.17838,-0.0344 0.17837,0.30941 0.11891,0.60755 0.0595,-0.13109 0.11892,0.29281 0.23783,-0.25837 0.0595,0.0931 0.11891,0.60406 0.0595,-0.19242 0.29729,-0.73478 0.23783,0.36596 0.29729,1.00895 0.23783,-0.40736 0.8324,-2.78168 0.0595,0.006 0.17837,0.32315 0.17838,-0.11579 0.0595,0.17797 0.0595,-0.16948 0.0595,-0.24768 0.0595,0.15469 0.0594,-0.0666 0.11892,0.49428 0.0595,-0.0519 0.11891,-0.14125 0.11892,0.22088 0.23783,-0.65172 0.0595,-0.18625 0.11891,0.24504 0.29729,-0.93493 0.11892,0.31885 0.0594,-0.0985 0.23783,0.69335 0.0595,-0.0927 0.11892,0.38398 0.0594,-0.15274 0.11892,0.29234 0.11891,-0.24125 0.11892,0.12328 0.17837,-0.61851 0.23783,-0.51659 0.17838,0.17242 0.0594,0.0281 0.11892,0.4193 0.4162,-1.467 0.11892,-0.0101 0.29729,-0.73852 0.0595,0.23498 0.0595,-0.063 0.11892,-0.0972 0.17837,0.27585 0.35674,-0.85519 0.0595,-0.0876 0.0595,0.0618 0.0595,0.0409 0.17837,-0.22457 0.11892,-0.008 0.11891,0.0762 0.47566,-1.01118 0.23783,-0.69909 0.11892,-0.42247 0.17837,-0.3815 0.0595,0.11335 0.11891,-0.42627 0.0595,0.0778 0.0595,-0.0997 0.29729,0.23803 0.17837,0.90529 0.29729,1.3721 0.53512,0.20536 0.35674,-0.75821 0.11892,0.29402 0.0595,-0.20763 0.29728,1.04469 0.0595,-0.1024 0.0595,-0.0577 0.11891,0.32434 0.0595,-0.0701 0.0595,0.1317 0.0595,-0.0999 0.29729,-0.76954 0.17837,0.89656 0.11891,-0.0812 0.0595,-0.28555 0.0595,0.043 0.0595,0.27544 0.0595,-0.17637 0.11892,-0.0383 0.17837,-0.6299 0.0595,-0.0237 0.17837,0.34826 0.23783,-0.29461 0.0595,0.081 0.0595,0.0634 0.11891,0.53847 0.0595,-0.2028 0.11892,0.75817 0.0595,-0.13033 0.17838,0.24677 0.29729,1.10177 0.0595,-0.21185 0.11892,-0.38743 0.0595,0.0292 0.17837,0.27934 0.17837,0.38183 0.23783,0.78537 0.29729,-1.03617 0.17837,-0.30509 0.23783,0.6539 0.0595,-0.017 0.0595,-0.18891 0.0595,0.30536 0.0595,-0.11363 0.0595,-0.0347 0.41621,0.92563 0.11891,0.0343 0.0595,-0.0456 0.23783,-0.85244 0.11891,0.13943 0.29729,-0.36446 0.11892,0.17714 0.23783,-0.37814 0.17837,-0.008 0.0595,-0.0139 0.0595,-0.18412 0.11891,0.39786 0.11892,-0.39057 0.0594,0.17612 0.11892,0.157 0.29729,-1.80993 0.0595,0.0736 0.0595,-0.17107 0.0595,0.12782 0.17838,-0.56258 0.0594,-0.48113 0.0595,0.1919 0.11891,0.14359 0.23784,-0.052 0.0594,-0.23146 0.0595,0.13628 0.0595,-0.009 0.0595,-0.15069 0.0595,0.0758 0.0595,-0.009 0.17837,0.22049 0.11892,-0.25265 0.11891,0.13312 0.0595,-0.0139 0.17837,0.42745 0.23784,-0.84747 0.11891,-0.14078 0.35675,0.23134 0.0595,0.41082 0.0594,-0.2041 0.11892,-0.17702 0.11891,-0.84705 0.0595,0.01 0.0595,-0.0178 0.17837,-0.42881 0.11892,-0.18495 0.0595,0.11959 0.17838,-0.63175 0.0595,0.0346 0.0594,0.0691 0.0595,-0.15965 0.0595,0.14285 0.0595,0.19455 0.0595,-0.12752 0.41621,-0.82597 0.11891,-0.29896 0.23783,0.2978 0.17837,0.12318 0.11892,-0.29293 0.0595,0.1769 0.0595,-0.20224 0.0595,0.0689 0.0595,0.17786 0.0595,-0.0669 0.35674,0.3456 0.0595,-0.28678 0.11892,0.40871 0.0595,-0.0494 0.0594,0.17293 0.23783,-0.89047 0.17838,-0.17637 0.11891,-0.45456 0.0595,0.10941 0.17837,0.23073 0.11892,-0.18469 0.11891,0.187 0.0595,-0.18691 0.11891,0.27928 0.11892,-0.0971 0.23783,0.48604 0.23783,0.59296 0.0595,0.1375 0.0595,-0.1133 0.0595,-0.10883 0.0595,0.1018 0.11892,0.26248 0.0595,0.30786 0.0594,-0.12609 0.17837,-0.55629 0.11892,0.17055 0.23783,-0.2497 0.11892,0.38452 0.0595,-0.0656 0.11892,0.36757 0.35674,1.78743 0.0595,0.0995 0.29729,-0.80278 0.17837,-0.7307 0.0595,0.16861 0.0595,-0.0331 0.0595,-0.0956 0.47566,1.55173 0.0595,-0.0512 0.0595,0.013 0.17838,0.60764 0.17837,0.67415 0.4162,1.72776 0.17837,-0.17426 0.65404,0.81242 0.0595,-0.036 0.17837,0.24452 0.17837,-0.33314 0.0595,-0.36529 0.0595,0.0778 0.23783,0.75419 0.71349,4.68905 0.11891,0.91989 0.0595,-0.0394 0.11892,0.33152 0.0595,-0.0693 0.23783,0.1756 0.11891,-0.30155 0.53512,1.21502 0.0595,-0.0359 0.29729,0.95957 0.11891,0.5654 0.0595,-0.14007 0.0595,0.0573 0.0595,0.44054 0.0595,-0.0257 0.29729,0.46304 0.23783,0.56803 0.0595,-0.10397 0.11891,0.43716 0.11892,0.0862 0.0595,-0.21813 0.0595,0.0677 0.0595,0.0649 0.17837,-0.20686 0.11892,0.21943 0.29729,-0.9144 0.0595,-0.34349 0.0594,0.12169 0.23783,0.41941 0.35675,0.83209 0.11892,0.38953 0.0594,-0.15025 0.53512,1.37661 0.0595,0.16194 0.0595,-0.0461 0.65403,-1.60201 0.11892,-0.16115 0.23783,-1.02044 0.11891,0.32 0.29729,1.06026 0.0595,-0.0258 0.59457,-2.42091 0.17838,-0.07 0.47566,-1.36588 0.17837,-0.15882 0.17837,-0.42928 0.0595,0.079 0.11892,-0.49299 0.0595,0.10413 0.23783,0.33418 0.23784,0.48176 0.0595,-0.19951 0.11892,0.66911 0.0595,-0.1797 0.65403,-0.84871 0.4162,-1.05072 0.11892,-0.3214 0.29729,-1.17533 0.23783,-1.08107 0.0594,0.27753 0.23784,0.44198 0.0595,-0.0629 0.23783,-0.40331 0.0595,0.0159 0.11892,-0.17668 0.11891,0.19886 0.0595,-0.21992 0.0595,0.17331 0.0594,0.17276 0.17838,-0.62146 0.53512,-2.04316 0.35674,-2.36347 0.23783,-1.11655 0.17838,-0.2174 0.0595,0.0843 0.0595,-0.0807 0.11892,-0.11649 0.17837,-0.23285 0.0595,-0.0748 0.0595,0.089 0.41621,-0.50366 0.23783,-0.8177 0.0595,0.0329 0.0595,0.26246 0.0595,-0.1186 0.11892,-0.0737 0.0594,0.15572 0.0595,-0.0703 0.17837,-0.1511 0.0595,0.227 0.0595,-0.0662 0.11892,-0.0322 0.17837,-0.428 0.0595,0.0667 0.0595,-0.0962 0.0595,-0.11863 0.0595,0.13948 0.11891,-0.42255 0.11892,0.45707 0.0595,-0.0323 0.17837,0.22059 0.0595,-0.0307 0.23783,-0.80585 v 0"
           clip-path="url(#p4ca7cd4284)" />
      </g>
    </g>
  </g>
  <defs
     id="defs243">
    <clipPath
       id="p4ca7cd4284">
      <rect
         id="rect240"
         y="34.560001"
         x="54"
         width="334.79999"
         height="217.44" />
    </clipPath>
  </defs>
</svg>
