<svg xmlns="http://www.w3.org/2000/svg" xmlns:xlink="http://www.w3.org/1999/xlink" viewBox="0 0 151.3 135.5" xmlns:v="https://vecta.io/nano"><style><![CDATA[.B{stroke-miterlimit:10}.C{clip-path:url(#H)}.D{opacity:.1}.E{clip-path:url(#F)}.F{stroke-width:.5}.G{stroke-linejoin:round}.H{clip-path:url(#B)}.I{stroke-width:1.196}.J{clip-path:url(#D)}]]></style><defs><path id="A" d="M43.9,89.2C145.4,83,159,123.7,151.3,0C49.8,6.2,36.2-34.5,43.9,89.2z"/></defs><clipPath id="B"><use xlink:href="#A"/></clipPath><g fill="none" class="B"><g stroke="#af3127" class="I"><path d="M78 68.4v-.2m0 0v-.6m0 0l-.1-1m0 0l-.1-1.4m0 0l-.1-1.8m0 0l-.2-2.3m0 0l-.3-2.8m0 0l-.3-3.4m0 0l-.3-4.1m0 0l.2-4.6m0 0l.9-4.7m0 0l1.6-4.5m0 0l2.5-4m0 0l3.2-3.2m0 0l3.2-2.4m0 0l2.8-1.5m0 0l2-.9m0 0l1.4-.6m0 0l1.1-.4m0 0l.9-.4m0 0l.9-.2m0 0l1-.2m0 0h1.1m0 0l1.3.1m0 0l1.6.4m0 0l1.9.6m0 0l2 .7m0 0l1.9.9m0 0l1.8 1.1m0 0l1.6 1.3m0 0l1.5 1.5m0 0l1.4 1.6m0 0l1.3 1.9m0 0l1.1 2.1m0 0l.9 2.4m0 0l.7 2.7m0 0l.5 3m0 0l.1 3.2m0 0l-.2 3.3m0 0l-.2 3.2m0 0l-.3 3m0 0l-.3 2.7m0 0l-.2 2.3m0 0l-.1 2m0 0l-.2 1.8m0 0l-.2 1.4m0 0l-.2 1.1m0 0l-.1.9m0 0l-.1.5" class="H"/><path d="M116.9 68.9v-.3" class="H"/></g><path d="M91.5 70.2v-.1m0 0l-.1-.2m0 0l-.1-.4m0 0l-.2-.4m0 0l-.1-.6m0 0l-.1-.6m0 0l-.1-.6m0 0l-.1-.8m0 0v-.7m0 0v-.9m0 0V64m0 0v-.9m0 0l.1-.9m0 0l.1-.7m0 0l.3-.6m0 0l.3-.2m0 0l.5.1m0 0l.7.5m0 0l.9 1m0 0l.9.8m0 0l.8.5m0 0l.8.3m0 0l.8.2m0 0l.7.1m0 0l.7-.1m0 0l.7-.1m0 0l.7-.2m0 0l.6-.2m0 0l.7-.3m0 0l.6-.3m0 0l.6-.4m0 0l.6-.3m0 0l.7-.4m0 0l.6-.3m0 0l.6-.2m0 0l.5.1m0 0l.3.4m0 0l.3.5m0 0l.2.7m0 0l.2.8m0 0v.8m0 0v.8m0 0l-.1.8m0 0l-.1.7m0 0l-.2.7m0 0l-.1.6m0 0l-.2.5m0 0l-.2.4m0 0l-.1.3m0 0l-.1.1" class="H I" stroke="#6182b5"/><path d="M69 66.5v-.1m0 0l.1-.4m0 0l.1-.5m0 0l.1-.7m0 0l.1-.9m0 0l.2-1m0 0l.1-1.2m0 0l.2-1.3m0 0l.3-1.5m0 0l.3-1.6m0 0l.5-1.8m0 0l.6-2m0 0l.9-2.2m0 0l1.1-2.3m0 0l1.5-2.6m0 0l1.9-2.7m0 0l2.4-2.8m0 0l2.8-2.7m0 0l3.1-2.4m0 0l3.2-1.8m0 0l3.1-1.2m0 0l2.9-.6m0 0l2.8-.1m0 0l2.7.2m0 0l2.3.5m0 0l2.3.7m0 0l2.3.9m0 0l2.3 1m0 0l2.3 1.2m0 0l2.1 1.3m0 0l2.1 1.5m0 0l1.8 1.7m0 0l1.6 1.9m0 0l1.4 2m0 0l1.1 2.1m0 0l.9 2.1m0 0l.7 2.2m0 0l.6 2.1m0 0l.5 2.1m0 0l.4 1.9m0 0l.3 1.9m0 0l.3 1.7m0 0l.2 1.6m0 0l.3 1.4m0 0l.2 1.3m0 0l.2 1.1m0 0l.2.9m0 0l.1.7m0 0l.1.4m0 0l.1.2" class="H I" stroke="#112a3c"/><g stroke="#d99c37" class="I"><path d="M91.1 17.9h0" class="H"/><path d="M91.1 17.9h-.2m0 0l-.1-.1m0 0h-.2m0 0l-.3-.1m0 0h-.2m0 0h-.3m0 0h-.2m0 0l-.1.1m0 0l-.1.1m0 0v.1m0 0l.1.2m0 0l.2.2m0 0l.2.3m0 0l.2.2m0 0l.2.2m0 0v.1m0 0l.1.2m0 0v.1m0 0l-.1.1m0 0v.1m0 0l-.1.1m0 0h-.1m0 0v.1m0 0H90m0 0l-.1.1m0 0h-.1" class="H"/><path d="M89.8 20h0" class="H"/><path d="M89.8 20h0" class="H"/><path d="M89.8 20h-.2m0 0h-.3m0 0H89m0 0l-.5.1m0 0h-.6m0 0l-.5.1m0 0l-.5.1m0 0l-.5.1m0 0l-.2.1m0 0l.1.1m0 0l.3.1m0 0l.4.2m0 0l.2.1m0 0v.2m0 0l-.1.2m0 0l-.2.2m0 0l-.3.2m0 0l-.4.2m0 0l-.3.2m0 0l-.2.1m0 0l-.1.1" class="H"/></g><g stroke="gray" class="I"><path opacity=".3" d="M77.6 68.8v-.2m0 0l-.1-.6m0 0l-.1-1m0 0l-.1-1.4m0 0l-.1-1.6m0 0l-.1-2m0 0l-.1-2.1m0 0v-2.4m0 0l.1-2.5m0 0l.1-2.6m0 0l.2-2.8m0 0l.4-2.7m0 0l.4-2.8m0 0l.6-2.8m0 0l.8-2.7m0 0l.9-2.6m0 0l1.2-2.4m0 0l1.3-2.3m0 0l1.6-2.1m0 0l1.7-1.9m0 0l2.1-1.6m0 0l2.3-1.2m0 0l2.6-.9m0 0l2.9-.5m0 0l3.2-.1m0 0l3.2.3m0 0l2.8.7m0 0l2.5 1.1m0 0l2.2 1.4m0 0l1.9 1.7m0 0l1.6 2m0 0l1.3 2.2m0 0l1.1 2.4m0 0l.9 2.5m0 0l.7 2.6m0 0l.5 2.7m0 0l.3 2.8m0 0l.2 2.8m0 0v2.7m0 0v2.7m0 0l-.2 2.6m0 0l-.2 2.4m0 0l-.2 2.3m0 0l-.3 2.1m0 0l-.3 1.9m0 0l-.3 1.6m0 0l-.3 1.2m0 0l-.2 1m0 0l-.1.5" class="H"/><path opacity=".3" d="M116.5 69.2l.1-.3m-27.1-.1v-.1m0 0v-.2m0 0l.1-.4m0 0v-.4m0 0v-.5m0 0l.1-.6m0 0l.1-.7m0 0l.1-.7m0 0l.1-.6m0 0l.2-.7m0 0l.2-.7m0 0l.2-.6m0 0l.3-.5m0 0l.4-.4m0 0l.4-.4m0 0l.4-.2m0 0h.5m0 0h.6m0 0l.7.3m0 0l.8.6m0 0l.9.6m0 0l.7.4m0 0l.6.2m0 0l.5.1m0 0h.4m0 0l.3-.1m0 0l.3-.2m0 0l.3-.3m0 0l.4-.3m0 0l.4-.3m0 0l.5-.3m0 0l.7-.2m0 0l.7-.2m0 0h.7m0 0l.5.2m0 0l.5.3m0 0l.4.4m0 0l.4.5m0 0l.3.6m0 0l.2.6m0 0l.2.7m0 0l.2.6m0 0l.1.7m0 0l.1.7m0 0v.6m0 0l.1.5m0 0v.5m0 0v.3m0 0v.2m0 0v.1m-35.5-.6v-.2m0 0v-.5m0 0l-.1-.7" class="H"/><path opacity=".3" d="M69.5 66.9l.1-1.1m0 0v-1.3m0 0l.1-1.5m0 0l.2-1.7m0 0l.2-1.8m0 0l.3-2m0 0l.5-2m0 0l.5-2.2m0 0l.7-2.1m0 0l.8-2.2m0 0l.9-2.1m0 0l1.2-2.1m0 0l1.3-2.1m0 0l1.5-1.9m0 0l1.7-1.8m0 0l2-1.6m0 0l2.2-1.5m0 0l2.4-1.2m0 0l2.7-1m0 0l3-.7m0 0l3.3-.4m0 0l3.5-.1m0 0l3.4.3m0 0l3.1.5m0 0l2.8.9m0 0l2.6 1.1m0 0l2.3 1.4m0 0l2 1.5m0 0l1.9 1.7m0 0l1.6 1.9m0 0l1.4 2m0 0l1.3 2.1m0 0l1.1 2.1m0 0l.9 2.2m0 0l.7 2.2m0 0l.7 2.1m0 0l.5 2.2m0 0l.4 2m0 0l.3 2m0 0l.2 1.8m0 0l.1 1.7m0 0l.1 1.5m0 0l.1 1.3m0 0v1m0 0v.8m0 0v.5m0 0v.1" class="H"/></g><g stroke="#000" stroke-width=".598"><path d="M52.9 80.8c.8-11.9 0-24 1-35.8 1.7-12.4 4.5-24.9 2-37.4m-.7 73.2c1-12-.2-24.2.9-36.2 2-12.4 5.5-24.6 2.3-37.1m-.9 73.3c1.3-12.8-.7-25.8 1.2-38.6 2.9-13 6.2-21.2 2.3-34.8m-1.2 73.4c1.7-13-1-26.2 1.1-39.1 3.6-15.1 7.9-18 2.7-34.3m-1.5 73.4c2-13.2-1.5-26.6 1.1-39.6C67.6 24 73.5 26.3 66.3 7.4m-1.9 73.5c.1-5.2 1-10.7.9-15.9-.8-8-2.3-16.4.1-24.3C71 20.2 78.8 29.6 68.9 7.5m-2.3 73.4c1.1-9.8.9-19.5-.6-29.2-.2-7.9 2.2-16 6.7-22.5 1.7-3 5.9-5.7 5.8-9.4-2.4-4-5.8-7.6-6.9-12.3M68.9 81c.1-5.2.9-10.6.8-15.7-.4-5.3-2.1-10.8-1.8-16.2.3-7.5 3.1-15.1 8.1-20.8 1.8-3 7.4-5.1 7.1-8.8-3.6-3.4-7.4-6.8-8.9-11.8m-3.1 73.4c.1-5.1.7-10.5.6-15.6-.5-6.4-2.6-12.9-1.7-19.4.7-18 21.3-24.1 16.3-27.4-4.1-2.6-7.8-6.2-9.5-10.8m-3.5 73.3c1.5-11.9-1.7-23.7-1.4-35.5.8-18.1 21.3-22.9 17.2-26.6-4-2.8-8.1-6.2-9.9-11m-3.7 73.1c1-12-1.8-24-1.6-35.9.9-18 19.7-21 17.2-25.8-3.6-3.3-7.6-6.5-9.4-11.2m-4 73c.3-11-.9-22-1.8-32.9-.3-8.9 4-17.9 11.6-22.7 1.7-1.5 5.3-2.5 5.3-5.1-2.5-4.2-7.2-7.3-8.8-12.2m-4 73c-.2-10.9-.5-21.9-1.6-32.7-.6-9 3.2-18.2 11.1-23 1.6-1.3 4.4-2.4 4.4-4.7-1.6-4.4-6.1-7.7-7.6-12.4m-4.1 72.9c-.7-9.4.2-19-.9-28.4-1.4-9.9.4-21.4 9.6-27.1 1.5-1.2 3.7-2.4 3.8-4.5-.9-4.5-5-8.1-6.3-12.6m-4 72.7c-.6-7-.4-14 .2-21-.3-9.2-3-19.7 1.9-28.2C97.8 19.5 97.6 25.6 90.4 9m-3.7 72.6c-.6-6.7-.6-13.3.7-19.8-.1-9.6-3.3-20.2 1.1-29.3 10-12.5 9.6-7.8 3.9-23.5M89 81.7c-.6-6.4-.7-12.7 1.2-18.9.1-9.8-3.4-20.4.3-29.9C99 20.7 98.9 24.1 94.4 9m-3.1 72.7c-.5-6.2-.7-12.4 1.4-18.3.2-9.8-3.3-20.2-.5-29.9 6.9-12.3 7.5-9.7 3.9-24.4m-2.5 72.7c-.5-6.2-.2-12.2 1.5-18.1 0-9.7-3-19.8-1-29.5C99.4 21.8 101 23.8 98 9m-2 72.8c-.4-6.1.3-12.2 1.5-18.2-.2-9.4-2.6-19.2-1.4-28.6 3.6-12 6.2-11.6 3.8-25.9m-1.6 72.7c-.1-5.5.5-11.1 1.3-16.6.1-9.7-2.2-19.7-1.6-29.4 0-3.8 1.9-7.2 3.1-10.7 1.4-5.2 1.1-10.8.6-16.1m-1 72.7c2.2-15.9-.6-31.8-.6-47.7 1.8-8.3 4.7-16.4 3.5-25.1m-.6 72.8c2.1-15.6-.6-31.3-1-46.9.8-8.7 4.4-17 3.5-25.9m-.2 72.8c2.2-16-.9-32.1-1.2-48.1.7-8.3 4-16.3 3.4-24.7m.1 72.7c2-16.3-1-32.6-1.5-48.9.5-8 3.8-15.7 3.3-23.9m.5 72.8c1.8-16.9-1.2-33.9-1.6-50.9.8-7.3 3.5-14.5 3.2-22m.6 72.8c1.4-17.2-1-34.4-1.6-51.6.9-7.1 3.2-14 3.1-21.2m.7 72.8c.8-17.1-.6-34.2-1.6-51.3.7-7.2 3-14.3 2.9-21.6m.9 72.8c.1-17-.2-34.1-1.4-51 .6-7.3 2.7-14.5 2.7-21.8m.9 72.8c-.7-16.4.2-32.9-1-49.3.1-7.9 2.3-15.6 2.3-23.5m.9 72.8c-1-13.5-.7-26.9-.2-40.4-1.5-10.8 1.1-21.6 1.5-32.4m.8 72.7c-1.1-11.9-1.5-23.9-.1-35.8-.7-12.4.5-24.6 1.4-36.9m.9 72.7c-1.6-11.9-1.7-23.7-.1-35.6-.3-12.4.6-24.8 1.4-37.2m.9 72.8c-1.9-11.8-1.8-23.5 0-35.3 0-12.5.6-25 1.4-37.5m.9 72.7c-1.8-11-2.1-22-.2-33L131 8.5m1 72.7c-2-11.6-1.6-23.2 0-34.8l1.4-37.9m.9 72.7c-1.7-11.5-1.4-23.1 0-34.6l1.3-38.1m1 72.7c-2.5-23.9 1.4-48.5 1.3-72.7m1 72.7c-2.1-24.2 1.3-48.4 1.2-72.7m1.1 72.7c-1.7-24.2 1.1-48.4 1.1-72.7" class="D H"/><path d="M52.9 80.8c29.4.9 58.9 1 88.4.5M53 78.8c29.4 1.1 58.8 1.1 88.2.5M53 76.9c13.5-.2 27 1.2 40.5 1.4 15.8 0 31.7-1.1 47.5-.8M53.1 75c13.5-.3 27 1.4 40.4 1.6 15.8 0 31.6-1.4 47.4-1.1M53.2 73c13.4-.5 26.9 1.6 40.3 2 15.8-.1 31.6-1.8 47.4-1.3m-87.7-2.6c13.5-.7 26.8 1.9 40.2 2.3 15.7-.1 31.5-2.3 47.3-1.7m-87.4-2.6c13.5-1 26.7 2.3 40.1 2.9 15.7-.2 31.4-2.9 47.2-2.1m-87.3-2.8c13.6-1.3 26.8 2.6 40.2 3.5 15.7-.3 31.3-3.6 47-2.7m-87.1-2.8c13.8-1.7 26.9 3 40.4 4.3 15.6-.5 31-4.5 46.7-3.3m-87.1-3c6.6-.1 13.5-.7 20.1.6 6.8 1.4 13.6 4.3 20.6 4.4 15.5-.8 30.7-5.4 46.4-4m-87.1-3c6.5-.2 13.4-.8 19.8.4 7.1 1.4 14 5.2 21.3 5.3 7.4.2 14.7-2.3 21.9-3.6 7.9-1.3 16.2-1.1 24.2-1m-87.2-3.1c21.6-2.5 23.6 3 41.5 6.4 7.3.2 14.3-2.8 21.3-4 8-1.4 16.3-1.1 24.4-1m-87.3-3.4c23.2-2.8 22.7 2.1 41.8 6.6 7.2.1 14-3.1 20.9-4.3 8-1.3 16.4-1 24.6-.9M53.4 55c23.4-3 21.8.4 41.9 6.1 7.1.2 13.9-3.1 20.8-4 8.1-1.2 16.5-.7 24.7-.6M53.4 53c28.8-4 20.3-.2 43.8 4.9 6.3-.1 12.6-2.5 18.9-3.1 8.2-.9 16.6-.3 24.8-.2M53.5 51c25.6-3.6 19.3-3.6 43.3 3.1 14.9-.8 29.1-2.8 44.3-1.3M53.6 49c21.6-2.9 20.6-6.6 42.7.9 14.9.9 29.9-.6 44.8.9m-87.4-3.9c11.8-.4 23.4-8.5 35-3.4 16.7 5.8 35.1 3.3 52.5 5.4m-87.3-4c10.5-.3 19.9-6.9 30.3-6.6 18.4 6.3 37.8 7.5 57.1 8.7m-87.2-4.1c10.9-.5 20.4-7.2 31.1-7.9 6.7.6 12.7 4.5 19.2 5.7 12.2 2 24.6 3.7 36.9 4.3m-87-4.1c11.3-.7 21.1-7.6 32.2-8.6 6.2.3 11.8 4 17.7 5.6 12.1 2.9 24.8 4.5 37.2 5.2M54.6 39c10.9-1 20.8-6.8 31.4-8.7 7.2-.5 13.5 4.2 20.2 5.9 11.5 2.8 23.4 4.5 35.2 5.1M54.9 37c11.4-1 21.7-7.3 32.9-8.5 6.5.2 12.2 4.1 18.4 5.8 11.5 3.1 23.5 4.6 35.4 5.2m-86.4-4.4c11.7-1.1 22.5-7.7 34.2-8 5.8.9 11.1 4.1 16.7 5.6 11.5 3.1 23.6 4.3 35.5 4.9m-86-4.4c11.5-1.1 22.4-7.1 33.9-7.5 5.8 1 11 4.3 16.8 5.6 11.5 2.9 23.6 3.7 35.4 4.4m-85.8-4.3c11.8-1 23.2-7.5 35.1-6.7 15.8 7.5 33.5 8.4 50.7 9.2m-85.5-4.3c12-.8 24-7.8 36-5.7 15.1 8.3 32.9 7 49.6 8.3m-85.4-4.4c12-.7 24.6-7.8 36.5-4.6 14.6 8.5 32.6 5.6 48.8 7.2M56.6 26c12.5-.4 26.6-8.6 38.5-2.7 14.2 7.2 31.3 3.5 46.7 5.2m-85-4.2c14.4-1.1 29.9-8.2 43.1.4 13.6 3.1 28.1.8 42 2m-85-4.1c15.4-1.6 29.9-6.4 44.4 1.4 13.4 1.7 27.1-.1 40.6.9m-85-4c18.7-2 27.6-4.5 45.9 2.2 13 .5 26.1-.7 39.1 0m-85-3.8c10.3-.7 21-2.6 31.3-1 5 .9 9.9 3.1 15 3.5 12.9 0 26-1 38.9-.4m-85.3-3.8c9.8-.6 20.2-1.9 30-.4 5 1 10.1 2.4 15.2 2.8 13.3 0 26.8-1.1 40.1-.6M56.7 16c14.3-1.7 28.5.1 42.7 2.3 14.2.3 28.5-1.2 42.8-.5m-85.6-3.5c13.9-1.6 27.6.9 41.3 2.2 14.8.1 29.6-1.2 44.4-.6m-85.9-3.3c13.3-1.3 26.4 1.1 39.6 2.2 15.4-.2 30.9-1.1 46.3-.7m-86.1-3.2c13.1-1.1 26.2 1.3 39.2 2 15.6-.3 31.3-1 46.9-.7M56 9.2c13-.8 25.9 1.2 38.8 1.8 15.8-.2 31.7-.9 47.5-.6M55.8 7.5C68.6 6.9 81.5 8.6 94.3 9l48.1-.5" class="D H"/></g></g><defs><path id="C" d="M0 135.5c105.3.6 96.3 17.1 93.7-91.3C-11.6 43.5-2.6 27.1 0 135.5z"/></defs><clipPath id="D"><use xlink:href="#C"/></clipPath><g class="J"><defs><path id="E" d="M0 135.5c105.3.6 96.3 17.1 93.7-91.3C-11.6 43.5-2.6 27.1 0 135.5z"/></defs><clipPath id="F"><use xlink:href="#E"/></clipPath><g fill="none" stroke="gray" class="B F G"><path d="M25.8 49.9C31.9 66.2 65 80 68 54.3" class="D E"/><path d="M27.3 49.8c-1.2 19 39.5 27.1 40.4 4.8" class="D E"/><path d="M28.7 48.8c-4.1 21.7 36.8 27.8 39.3 6" class="D E"/><path d="M30.5 49c-7 20.4 35.5 26 38 6" class="D E"/><path d="M24.9 50.8c9.7 12.7 38.5 28.3 44.3 4" class="D E"/><path d="M27.7 49.5c3 17.3 38.1 28.2 43.1 5.3" class="D E"/><path d="M26.8 50c.9 17.1 41.5 25.9 40.1 4.3" class="D E"/><path d="M29.6 49c-2.9 17.6 37.6 28.6 40.5 6.5M9.3 70.7c31.6 13.9 46.4 20.9 75.6-.6" class="D E"/><path d="M10.9 64.6c17.2 17.7 56.2 24.7 73.2 3.2m-73.8-.7c24.3 21 47.9 23.8 73.5 3" class="D E"/><path d="M9.1 69.4c27.3 10.6 50.5 25.6 75-.5" class="D E"/><path d="M11.1 65.5c20.6 21.8 50 25.4 72.1 3.9" class="D E"/><path d="M9.7 68c24.7 16.2 49.6 21.7 75.7 3.8" class="D E"/><path d="M9.4 71.6c25.5 12.5 52.1 21.3 74.3-2.5" class="D E"/><path d="M8.9 70.3c19.5 14.4 55.5 17.2 74.8.4" class="D E"/><path d="M10.8 68.7c28.7 20.2 45.2 20.2 73.3-.1" class="D E"/><path d="M11.5 66.2C34 84.5 60.7 87.8 84.7 70.3" class="D E"/><path d="M9.5 69.5c19.9 10.2 55.9 18.8 76 2.6m-73.9 43.6c4.2-7.3 10.1 4.1 15.8 2.1 13.7-14.2-3.2-21.6-16.9-17" class="D E"/><path d="M10.8 114c29.9 16.4 29.1-28.3.5-13.6" class="D E"/><path d="M9.9 111.1c29.5 27.9 32.5-34.3 1.2-12" class="D E"/><path d="M10.1 112.7c28.3 18.2 36.5-21.1.9-11.9" class="D E"/><path d="M10.9 110.7c34.4 23.8 29.7-33 .6-11.9m-1.2 10.4c26.1 23.7 32.4-21.4.3-8.3" class="D E"/><path d="M11.1 114.6c4.9-6.4 11.1 1.4 17.1.4 14.4-15-4.8-22.7-18.2-15.6" class="D E"/><path d="M10.4 111.8c31.4 19.2 27.3-31.4.4-11.6" class="D E"/><path d="M10.5 110.5c25.9 28.7 35.5-23.4.8-11.7m51.5 30.4c-47.5-26.1-18.6-40-47.1-67.7M67 127.6c-40.2-12.2-28.6-38.5-47.7-67.8" class="D E"/><path d="M64.7 129c-50.1-32-15-36.5-47.1-67.9" class="D E"/><path d="M63.9 128.9c-44.8-40.7-17.5-18.6-43.9-68" class="D E"/><path d="M65.3 129.1C6.2 84.5 49.7 88.3 18 61.5" class="D E"/><path d="M66 128.4c-38-5.7-29.9-41-48.1-65.7" class="D E"/><path d="M66.7 128.7c-34-9.5-34.7-40.3-46.3-68" class="D E"/><path d="M70 126.3c-47.8-1.6-23.4-50.4-53.8-63.5" class="D E"/><path d="M60.6 130.8c-33.3-23.3-24.2-38-40.4-70.9" class="D E"/><path d="M61.9 129.9c-33.1-20.6-15.3-43-45.1-66.4" class="D E"/><path d="M62.8 130c-15.5-31.6-26.5-5.2-45-67.4" class="D E"/><path d="M55.4 132.4c3-26 5.4-53.2 11.7-78.8" class="D E"/><path d="M69.8 132.1c-18.3-20.7-19.4-59.7 6.6-74.9" class="D E"/><path d="M65.7 132.7c-14.2-25.6-10-53 6.9-76" class="D E"/><path d="M60.4 132.7C62 107.1 51 76 71.7 55.6" class="D E"/><path d="M57.1 132.6c9.2-24.9-6.6-57.8 17-76.9" class="D E"/><path d="M62.8 133c-11.9-27.9-1.5-50.4 8.2-77" class="D E"/><path d="M58.9 132.7c1.5-25.9-3.1-55.9 16.7-76.2m-19 76.5c4.3-25.7-7.7-57.9 16.1-77.1" class="D E"/><path d="M67.1 133.1c-17.2-45.8-18.6-31.8 3.3-76.2" class="D E"/><path d="M60.6 132.3C60.4 104 46.7 79.9 68 55.8" class="D E"/><path d="M64 133.2c-20.4-24.6-3.7-51.5 8.8-75.4" class="D E"/><path d="M65.1 132.6c-16.2-23.5-6-52.7 3.5-77.2" class="D E"/><path d="M60 131.7c.6-24.8-2.3-55.4 14.2-75.9" class="D E"/><path d="M68 132.2c-17.2-21.7-10.1-53.8 1.5-76.5" class="D E"/><path d="M61.1 133c2.9-26.2-15.5-61.5 16.4-76m-38.7 76.6c-7.1-27.3 9.6-58.2-5.9-83" class="D E"/><path d="M25.8 133.2c16.4-32.7 27.4-52.7-3.3-78.2m7 78.9c10.4-28.2 23.7-55.7-2.5-80" class="D E"/><path d="M34.3 133.9c-2.1-27.5 23.4-60.1-6.3-81.1" class="D E"/><path d="M37.3 133.8c-9.7-28 21-63.3-11.9-81.1" class="D E"/><path d="M32.1 134.3c7.7-26.7 13.1-56.3-3.4-81.1" class="D E"/><path d="M35.6 133.9c0-27.5 16.4-62-11.8-80.3m13.9 80.6C33.5 105.1 60.3 73.4 27 53" class="D E"/><path d="M28.3 134.3c14.3-43.9 16.8-34.9.7-80m5.1 79.2c4.2-49.4 22.2-35.3-3.4-80.2" class="D E"/><path d="M31 134.4c12.3-24.2 15.5-59.2-4.3-79.5" class="D E"/><path d="M30 133.8c14.2-22.8 19.1-59 1.3-81.4" class="D E"/><path d="M34.7 132.9c.9-25.1 14.5-62.3-9.3-80.1" class="D E"/><path d="M27.4 133.4c12.5-22 22.8-61.3 2.9-80.8" class="D E"/><path d="M33.6 134.2c-.8-32.8 23-57.3-12.1-79.4" class="D E"/><path d="M9 81.6c23.2-9.1 52.3-10.6 74.1 2.5" class="D E"/><path d="M10.9 86.8C30 69 60.2 69.6 82.2 81.6" class="D E"/><path d="M10.7 84.7c21.5-14.1 47.7-11.2 71.6-5.1" class="D E"/><path d="M10.7 86.7c21.2-20.9 50.1-10.9 76.4-9.8" class="D E"/><path d="M9.1 78c32.1.8 43.3-13.2 75.2 6.8" class="D E"/><path d="M7.4 81.3C31 70.2 61 71.7 85 80.5M11.6 89C22.2 65.9 65 75 83.5 85.7" class="D E"/><path d="M11.6 77c23.7-2.2 48.2-4.6 71.1 3.4" class="D E"/><path d="M6.3 76.5c26.6 1.2 55.3 2.1 81.5 2" class="D E"/><path d="M8.6 80.3c24.1-2.2 49.7-9.5 72.9 2.1" class="D E"/><path d="M10.7 86c23.3-18.5 50.5-8.6 77-7.2" class="D E"/><path d="M5.9 74.2C31 81.4 59 69.8 83.3 82.3" class="D E"/><path d="M7.4 78.6c27-.1 53.4-5.5 80.7-1.8" class="D E"/><path d="M8.8 74.9c25.3.7 50.1 6.6 75 7.3" class="D E"/><path d="M5.9 75.7c26.2 3.8 52.9-5.5 79.5 2.4m-75.9 15c23.7 4.8 49.2 3.9 73.3 2.3" class="D E"/><path d="M11.8 91.4c22.1 9.2 47.6 4.2 70.8 2.6" class="D E"/><path d="M9 95.7c24.9 5.2 50.7-6 75.2-.3" class="D E"/><path d="M11.4 90.4C34 99.6 58.7 98 82.2 93.7" class="D E"/><path d="M11 87.1c19.2 14.5 51.8 14.1 73.6 6.9" class="D E"/><path d="M9.4 92.9c23 6.3 54.7 14.2 75.7-.1" class="D E"/><path d="M8 97.8c25-9.7 51.8 7.1 76.8-2" class="D E"/><path d="M11.3 87.9c22 15.2 48.7 9.2 73.1 6.6" class="D E"/><path d="M8.7 100.8c21.7-14 53.5 4.9 76.1-7.1" class="D E"/><path d="M12.1 87.5c20.6 15.8 48.1 12.5 71.3 5.2m-73.3 1.1c24.1 4.4 51.5 9.4 75.5 2.6" class="D E"/><path d="M10.6 87.2c21.5 14.3 49.1 9.2 73 5.6M8.3 85.1C26.4 108 59.1 100.3 83.2 93" class="D E"/><path d="M12.1 88.3c20.8 14.8 49.6 10.3 72.9 4.6" class="D E"/><path d="M14.2 86.2C34.7 103.8 63 97.8 87.5 96.4" class="D E"/><path d="M8.1 93.2c23.9 5 57 15.2 78-.9" class="D E"/><path d="M9.7 85.6c22.8 16 51.2 7.6 76.8 11.3" class="D E"/><path d="M11.8 91.8c23.9 8.3 48.8 4.5 73.2 1.9" class="D E"/><path d="M8.7 101.3c20.6-14.3 53.4 1.2 76.6-6.7" class="D E"/><path d="M10.4 90.3c23.4 12.5 51 4.9 75.8 5.2" class="D E"/><path d="M8 95.4c30-6.4 50.5 7.4 78.6-3.5" class="D E"/><path d="M26.2 131.8c14.2-25.8 26.3-51.7 59-57.2" class="D E"/><path d="M24.6 130.6c21.3-22.1 29.4-50.7 62.6-56m-63.3 54.6c22.9-20 29.6-49.6 62.7-55.1" class="D E"/><path d="M29.6 133.4C36.9 103.9 59.7 82.3 87 71" class="D E"/><path d="M31.5 134.5c-2.8-31.1 27.3-52.2 53.5-61" class="D E"/><path d="M28.2 132.5c7.6-30 28.3-51.4 57.4-59.5" class="D E"/><path d="M22.8 130.1c21.2-20.3 27.4-49 63.6-57.3m-60.3 59.1c18.9-22 31.9-48.3 60.6-59" class="D E"/><path d="M25.3 130.8c16.9-23 33.5-49.9 61.1-57.5" class="D E"/><path d="M30.7 134.8c.1-34 31.3-45.9 54.5-62.9" class="D E"/><path d="M22.6 129.8C46 116.8 55.5 75 85.7 79.6" class="D E"/><path d="M29.2 133.2C42.1 108.1 54.3 79 85.9 74.7" class="D E"/><path d="M25.6 131.7c25.8-16.5 40.5-43.2 53.2-70" class="D E"/><path d="M29.2 134.1c1.7-14.6 18.6-16.7 26.6-26.5 5.9-16.4 15.7-31.4 21.8-47" class="D E"/><path d="M25 130.3c28.9-12 43.2-40.6 52-68.8" class="D E"/><path d="M31 135c15.3-28.6 37.8-34.1 45.4-73.5" class="D E"/><path d="M23 130c30.3-10.2 41-43.3 56.8-67.6" class="D E"/><path d="M30.5 134.7C41.2 96.1 61.4 124 76.6 59.3" class="D E"/><path d="M28 133.1c21.7-21.4 40-41.8 51.8-69.7" class="D E"/><path d="M22.8 129.1c35.7-5.8 37.3-45.4 58.4-66.2" class="D E"/><path d="M26.6 132.6C52 113.3 64.9 89.8 78.4 61.7" class="D E"/><path d="M30.1 134.7c10.1-31.1 45.9-40.1 46-76.1" class="D E"/><path d="M27.3 133.1C51.2 113.5 63.5 85 80.4 61.9" class="D E"/><path d="M25.9 131.8C47 111 76.4 93 77.5 60" class="D E"/><path d="M26.5 133.2c27.8-15 40.7-42.4 50.7-71.2" class="D E"/><path d="M25.7 132.5c12.6-22.4 31.7-40.9 59.1-29.9" class="D E"/><path d="M29.7 134c6.8-28.3 27.8-35 54.2-33.2" class="D E"/><path d="M27.2 133.7c10.2-22.8 30.1-38.9 56.2-34" class="D E"/><path d="M22.3 128.4c23.2-6.7 31.6-41.3 61.3-27.2" class="D E"/><path d="M32.3 134.9c2.9-26.3 30.8-36.2 53-35.6" class="D E"/><path d="M27.8 133c12.9-19.3 30.4-44.1 57-33.2" class="D E"/><path d="M24.5 130.3c23.7-7.7 31.7-40.6 59.5-32.2" class="D E"/><path d="M28.6 134.2c2.9-24.6 33.7-35.6 55.6-35.4" class="D E"/><path d="M22.3 127.1c23.2 0 31.1-31 61.7-31" class="D E"/><path d="M23.4 130.7c20.2-6.9 19.5-33.2 63.1-34.1" class="D E"/><path d="M30.6 134.3c6.9-26.8 26.9-38.3 53.6-33.8" class="D E"/><path d="M33.2 135.5c-1.6-27.1 30.3-35.7 51.6-38.2" class="D E"/><path d="M26.9 133.5c10.1-26 31.2-38.1 58.8-35.3" class="D E"/><path d="M30.7 133.1c3.5-29.4 32-32.1 55.7-36.1" class="D E"/><path d="M26.2 131.7C38.4 110.8 59.9 97 84.4 99" class="D E"/><path d="M30.3 134.1c4.4-28.7 29.7-35.1 54.8-35" class="D E"/><path d="M68.3 130.5c-14.2-17.4-32-35.7-56.7-28" class="D E"/><path d="M63.7 131.9c-11.8-18.8-29.5-30.4-51.4-30.9" class="D E"/><path d="M66.6 131.6c-15.2-14.1-31.7-32.5-53.9-31.9" class="D E"/><path d="M72.3 126.6c-38.2 1.3-25-34-59.4-25.3" class="D E"/><path d="M60.7 132.8c-6-21.4-30-31.1-49.7-33.6" class="D E"/><path d="M65.9 131C34.3 125.7 48 91.8 12 99.7" class="D E"/><path d="M69.7 128.4C26 116.8 45 93.8 12.5 97.8" class="D E"/><path d="M64.9 132.1c-8.5-19-33-30.5-52.7-33.4" class="D E"/><path d="M72.3 125.3C47 129.5 36 97.3 12.5 95.9" class="D E"/><path d="M71 128.7c-25.3-3.6-35.4-30.6-61-32.4" class="D E"/><path d="M62.6 132.2c-6.7-23.8-27.4-32.1-50.5-31.4" class="D E"/><path d="M59.7 133.3c-1.1-23.8-30.2-29.7-48.2-36.3" class="D E"/><path d="M67 131.5c-11.8-21.2-32-32.9-56.2-33.4" class="D E"/><path d="M62.5 131c-5.2-25.3-31.7-28.1-52.4-34.3" class="D E"/><path d="M67.7 129.7c-16.4-13.4-33.4-30.3-55.8-30.8" class="D E"/><path d="M63 132c-4.5-26.6-30.1-28.4-51.8-32.6m72.5 15.4c-5.4-7-14.7 3.1-21.5-.8C50.8 95.6 73.6 99.5 85 100.5" class="D E"/><path d="M84.6 113.1c-36.3 10.2-34.8-26-.4-13" class="D E"/><path d="M85.6 110.4c-35.9 21.4-37.8-30.6-1.1-11.2" class="D E"/><path d="M85.3 111.9c-37.9 13-36.9-21.7-.8-11.3" class="D E"/><path d="M84.4 109.9c-38.2 19.6-34.7-31.2-.2-11.3m.9 9.9c-31.8 18.5-36.5-20-.4-8" class="D E"/><path d="M84.2 113.7c-36.8-.2-33.7-22.6 1.3-14.6" class="D E"/><path d="M85.1 111c-35.7 13.6-33.1-28-.3-10.9" class="D E"/><path d="M84.9 109.8c-33.7 21.2-38.4-21.7-.6-11.2m-17.5 30.8c-21-17.8-29.6-43.5-54.2-55.6" class="D E"/><path d="M68.7 128.3C47.2 109.9 37.8 85 10.6 73.2M69.5 127C46.9 111 38 84.9 11.6 72.2" class="D E"/><path d="M62.9 131c-7.7-27.7-31.1-44.1-52.3-60.5" class="D E"/><path d="M60.7 132c2-16.7-7.7-16.9-17.9-25.8-4-15.6-15.5-27.8-31.4-31.9" class="D E"/><path d="M64.6 130.1c-5.5-24.8-28.9-18.5-29.4-42.5-6.7-8.3-19.8-2.3-23.1-16.2" class="D E"/><path d="M70.8 127.8c-23.6-13.1-37.9-38.9-59.2-55.2" class="D E"/><path d="M66.9 129.6c-19.8-18.5-31.6-43.6-55-59.1" class="D E"/><path d="M67.9 128.5C52 106 29.6 89.9 12.5 70.3m49.1 62c-3.3-27.7-38-37-49.4-61.5" class="D E"/><path d="M71 127.5C44.7 116.9 36 82.6 9.9 75.9" class="D E"/><path d="M63.4 130.8c-11.2-19-11.1-14.3-26.1-27.2-8.6-17-3.3-25.7-26.7-27.9" class="D E"/></g><defs><path id="G" d="M0 135.5c105.3.6 96.3 17.1 93.7-91.3C-11.6 43.5-2.6 27.1 0 135.5z"/></defs><clipPath id="H"><use xlink:href="#G"/></clipPath><g fill="none" class="B F G"><g stroke="#112a3c"><path d="M55 134.1c8.2-26.6 10-56.1 4.8-83.5" class="C"/><path d="M57.9 134.4c5.6-26.5 4.7-54.4 4.3-81.3" class="C"/><path d="M56.1 134.2c8.1-26.8 11.4-57.5 2.8-84.5" class="C"/><path d="M50.3 131.7c20.5-5 17.1-68.4 7.7-82.5" class="C"/><path d="M68.7 133.9c-9.8-24.5-7.3-55.4-4.7-81" class="C"/><path d="M63.8 133.9C55.5 106 73.5 73.2 57 48.8" class="C"/><path d="M58.4 134.9c1.6-27 5.2-54 7.5-80.7" class="C"/><path d="M63.3 133.6c.6-26.9-5.7-54.1 2-80.5" class="C"/><path d="M59.8 134.6c4.9-27 2.4-54.3 4.2-81.3" class="C"/><path d="M55.8 133.8c19.3-25.8-5.2-56 10.9-80.6" class="C"/><path d="M66 133.6c-12.4-26 3.7-55.1-2.9-81.6" class="C"/><path d="M57.8 133.9c11.7-26.4-2.6-54.7 8.6-80.5" class="C"/><path d="M65.3 133.4c-8.2-26.9-.4-55.2-3-82.6" class="C"/><path d="M57.7 133.5c8.2-26.1 2.9-54.7 3.2-81.7" class="C"/><path d="M66.3 133.8c-2.8-24.6-14.3-59.9.8-81.6" class="C"/></g><g stroke="#c5b868"><path d="M38.7 134.7C30 108.1 28 78.5 33.6 51.1" class="C"/><path d="M35.6 134.9c-5.9-26.4-5-54.4-4.6-81.3" class="C"/><path d="M37.5 134.7c-8.6-26.6-12.2-57.7-3-84.5" class="C"/><path d="M43.7 132.3c-21.6-4.7-18.3-68.3-8.2-82.5" class="C"/><path d="M24.2 134.4c10.3-24.2 7.9-55.7 5-81" class="C"/><path d="M29.4 134.4c8.7-27.8-10.3-61.2 7.3-85.2" class="C"/><path d="M35.1 135.5c-1.7-27-5.5-54-8-80.7" class="C"/><path d="M29.9 134.1c-.6-26.9 6-54.1-2.1-80.5" class="C"/><path d="M33.6 135.1c-5.2-27-2.5-54.3-4.4-81.3" class="C"/><path d="M37.8 134.3c-20.6-26.2 5.6-56.2-11.7-80.6" class="C"/><path d="M27 134.1c13.2-25.9-3.9-55.2 3.1-81.6" class="C"/><path d="M35.8 134.4c-12.5-27.2 2.9-54.5-9.1-80.6" class="C"/><path d="M27.7 133.9c8.7-26.8.4-55.2 3.2-82.6" class="C"/><path d="M35.9 134c-8.7-26-3.1-54.7-3.4-81.6" class="C"/><path d="M26.7 134.3c3-24.1 15.2-60.9-.9-81.7" class="C"/></g><g stroke="#af3127"><path d="M8.1 89.2c23-12.1 50.5-10.1 74.4-2" class="C"/><path d="M8.3 91.8C30.1 76.8 57.5 79 81.8 86m-73.5-.6c23.8-7.7 48.9-7.2 72.9-1" class="C"/><path d="M7.1 89.5c24.9-11.1 46.6-14 73.1-6.6" class="C"/><path d="M7.2 87c25.9-9.4 49.7-12.4 75.5-.6M7.1 91.6c23.4-15.1 50.5-17.7 75-3.4" class="C"/><path d="M6.4 89.9c23.2-13.6 51.2-13.3 76-4.4M6.8 92.9C28.7 76.8 57 79.1 81.7 86.7" class="C"/><path d="M7.3 82c23.9.1 47.5-4.9 71.5-.7M7 91.3C29.3 77 58.8 76.6 82 89.2" class="C"/><path d="M6.7 81.5c25 7.6 50-6.9 75.2.7" class="C"/><path d="M6.4 88c24-9.6 49.3-9 74.6-9" class="C"/><path d="M7.6 84.4c24-5.2 51.1-4.4 75.2.4" class="C"/><path d="M8.6 92.5c18.4-19.9 51.4-15.7 75-9" class="C"/><path d="M5.9 88.6c24.6-10.1 54.9-16 78 .6" class="C"/></g><g stroke="#d99c37"><path d="M9 96.6c24.1 10.6 48.3 12.4 73 2.7M9.1 94.8c24.2 12.7 47.1 13 72.5 3.3" class="C"/><path d="M7.7 95.2c25.5 13.8 48 16.1 74.2 2.7m-73-4.2c25.6 13.1 47.3 15.9 73.8 3.2" class="C"/><path d="M7.9 95.5c24.5 10.9 48.2 13.7 73 1.8" class="C"/><path d="M8.3 94c24.4 13 47.8 15.9 74.1 6.5" class="C"/><path d="M10 95.7c22.3 15.6 48.2 8.5 73.2 5.7" class="C"/><path d="M8.1 100.2c25.8 2.8 48.5 6.3 74.3 2.1" class="C"/><path d="M7.8 98.1c28.5-1.2 46.2 19.1 75.8-.3" class="C"/><path d="M8 96.2c22.5 11.5 50.3 10.9 74.1 4.1" class="C"/><path d="M6.8 98.4c29.1-4.2 32 19.6 75.3-1.1" class="C"/><path d="M7.5 99.3c24.6-1 48.2 9.1 73.1-.2" class="C"/><path d="M8.1 93.9c19.1 14.1 52.8 15.7 74 4.3" class="C"/><path d="M8.1 91.7c19.5 20.4 52 14.3 75.7 5.5" class="C"/><path d="M7.9 91.6C29 110.7 60 111.8 83.7 96.7" class="C"/></g><g stroke="#90a954"><path d="M30.2 49.6C27.5 72 61 77.6 61.1 53.5" class="C"/><path d="M30.7 48.8c-.8 23.7 30.2 29.4 31.4 3.7" class="C"/><path d="M31.8 48.2c-3.1 24.7 28.8 31.2 28.8 3.9" class="C"/><path d="M30.4 47.8c-2 25 31 32.5 31.3 4.1" class="C"/><path d="M32.8 47.4c-5.6 25.4 27.7 31.8 29.6 5.1" class="C"/><path d="M30.7 48c-2.2 25.3 31.5 31 30.2 3.1" class="C"/><path d="M29 47.8c1.5 24.5 29.5 32.2 34 4.7" class="C"/><path d="M27.7 49.6c7.8 21.8 28.7 28.3 36.4 2.5" class="C"/><path d="M31.7 47.7c-.3 23.5 27.6 29.8 32.3 4.9" class="C"/></g><g stroke="#6182b5"><path d="M10.2 68.7c22.3 2.1 44.8-1.7 67 .1" class="C"/><path d="M9.7 70.6c22.5-3.7 45.2-1.6 67.7-2.2" class="C"/><path d="M9.5 73.6c21.7-8.8 45.7-1.3 67.6-6" class="C"/><path d="M10.4 67.7c22.8 4.5 45.3.5 67.9.5" class="C"/><path d="M9.8 69.8c22.6 1.4 45.7 3.3 67.9-1.8" class="C"/><path d="M9.6 72.3c22.8-5.8 46.2-5.1 69.3-2.5" class="C"/><path d="M10.6 67c23 2.7 46.5-.3 69.3 2.3M10 69.2c23.4 1.6 46.9-1 70.3 1.1" class="C"/><path d="M10.3 67.2c21.5 9.5 46.3-1.1 68.9 3.2m-67.3-5c21.9 9.8 45.4 2 68.2 2.9" class="C"/></g><g stroke="#34665d"><path d="M64.1 130.5c-22.6-19.2-38.7-39.8-42-70.4" class="C"/><path d="M62.9 131.3c-19.6-20-33.5-42.4-43.2-68.6" class="C"/><path d="M64.8 130.1C29.3 99.3 38.6 99.8 20.9 61" class="C"/><path d="M65.7 129.1c-29.4-10.7-31.4-44.7-43.8-68.9" class="C"/><path d="M64.1 129.7C38.7 114 35.5 84.9 19.8 62" class="C"/><path d="M66 129c-27.7-22.2-38.1-31.4-45.5-67.9" class="C"/><path d="M65.8 129.8c-25.2-14.3-35.5-41.7-45.6-67.2" class="C"/><path d="M63.3 130.6c-23.8-15.7-34-44.6-39.6-71.4" class="C"/><path d="M65 130.3c-24.7-28.1-33.6-29.8-42.8-69.9" class="C"/><path d="M61.6 132.9c-13.5-31.3-29.3-24.4-38.5-73.5" class="C"/><path d="M68.2 128.5c-28.6-10.5-30-45-49.3-64.8" class="C"/></g><g stroke="#dac0a6"><path d="M10.5 114.6c19.9 2.6 20.1-18.2-.2-13.9" class="C"/><path d="M10.1 113.1c22.1 6.2 18.4-18-1.5-13.1" class="C"/><path d="M9.3 111.7c21.3 10.9 20.8-16.3-.6-12.5" class="C"/><path d="M12.4 116.9c18.1-4.2 14.4-22.5-3.9-16" class="C"/><path d="M11.9 111.1c13.1 11 25.7-13.6-4.5-12.7" class="C"/><path d="M10.2 114c19-1.5 16-14.3-1.8-13.9" class="C"/><path d="M10.6 110.9c22.3 9.1 17.6-17.2-2-12.1" class="C"/><path d="M11.6 115.7c18.7-5.2 14.5-22.1-4.2-15.5" class="C"/><path d="M9.3 113.1c23 5.5 20-20.3-1.1-13.7" class="C"/><path d="M10 114.9c24.6 3.3 19.8-22.4-2-14.1" class="C"/></g><g stroke="#c4c2d1"><path d="M33.2 133.8C50.5 111.1 66.7 88.7 72 59.4" class="C"/><path d="M29.8 131.7c24-16.3 34.3-43.8 42.8-70.4" class="C"/><path d="M31 133.1C54 115 62.9 87.7 71.5 61.2" class="C"/><path d="M30.5 132.2C52.6 116 65.6 87.8 72.9 62" class="C"/><path d="M28.2 130.3C53 117.5 69.8 88.5 72.4 60.9" class="C"/><path d="M29 131.3c20.5-17.7 42.7-42 42.2-70.7" class="C"/><path d="M30.7 132.2c16.9-21.8 41-41.8 41-72.2" class="C"/><path d="M31 131.7C49.5 111.6 70.2 91 72.6 62.2" class="C"/><path d="M28.3 131.1c29.2-18 36.6-39 43.6-70.9" class="C"/><path d="M32.6 133.3c22-19.6 31.9-44.9 39.6-72.2" class="C"/><path d="M35 134.5c7.2-30 36.5-36.7 38-73.4" class="C"/></g><g stroke="#6d4e78"><path d="M34.4 133.9c7.1-25.7 35.2-35.8 47.4-57.3" class="C"/><path d="M31.6 132.7c16.4-19 31.9-37.8 51-54.1" class="C"/><path d="M30.3 131.3c20.9-12.6 30.4-38.5 52.3-50.6" class="C"/><path d="M32.2 133.9c11.3-22.4 33.2-37.3 51-53.7" class="C"/><path d="M29.3 131.3c21.7-13.6 31.8-38.7 55-50.8" class="C"/><path d="M30.8 132.6C46.4 113 63.5 92.9 84.3 81.5" class="C"/><path d="M30.8 133.7c15.2-20 34.1-36.5 51.7-54.3" class="C"/><path d="M28.9 132.3l54.5-53" class="C"/><path d="M29.8 132.2c21.5-13.1 29.3-41.4 53.5-50.7" class="C"/><path d="M27.7 130.4c24.1-8.5 30.6-41.2 56.1-47.8" class="C"/><path d="M33.5 134.2C45.7 113.1 64 96.4 81.8 79.9" class="C"/><path d="M36.3 134.2C40 107.4 70.4 99 82.4 77.7" class="C"/><path d="M28.4 131.3C51.1 119.6 59.6 91.6 83 80.1" class="C"/><path d="M33.2 134.1c9.1-25.4 33.8-36.4 48.4-56.8" class="C"/></g><g stroke="#f2c7e3"><path d="M33.6 133.6c7.7-22.1 28.7-39 52.8-31.8" class="C"/><path d="M30.4 131.9c24.5-14.2 17.8-35.6 52.9-31.3" class="C"/><path d="M31.3 132.9c13.8-18 27.9-34.4 52.6-32.8" class="C"/><path d="M33 132.7c14.8-17.7 23.9-41.2 51.7-30.5" class="C"/><path d="M31.2 133c11-17.3 30.3-36.5 52.6-32.5" class="C"/><path d="M35.8 134.3c13.1-32.1 16.9-29.9 49-33.5" class="C"/><path d="M28.4 130.9c29-8.7 16.5-34.2 57.2-31.6" class="C"/><path d="M35.4 134.6c4-23.2 28.6-35.4 50.2-33.9" class="C"/><path d="M34.1 134c4.2-21.3 30.5-33.7 50.3-34" class="C"/><path d="M27.3 130.4c24.5-12 24.2-34 57.3-31.3" class="C"/><path d="M34.8 133.9C47.1 113.5 60.1 95.8 86.5 98" class="C"/><path d="M31.7 132.9c14.9-17.5 28.5-37.2 54.1-34.3m-51.9 34.5c14-19.6 24.1-35 51.2-31.8" class="C"/><path d="M30 130.6C48 118 58.7 92.9 84.5 98.9" class="C"/><path d="M32.9 133.5C46.5 110.3 56.4 99.2 85 99.1" class="C"/></g><g stroke="#c7f2e9"><path d="M83.6 114.9c-19.9 2.6-20.1-18.2.2-13.9" class="C"/><path d="M84 113.4c-22.1 6.2-18.4-18 1.5-13.1" class="C"/><path d="M84.8 112c-21.3 10.8-20.8-16.3.6-12.5" class="C"/><path d="M81.7 117.1c-18.1-4.2-14.4-22.5 3.9-16" class="C"/><path d="M82.1 111.4c-13.1 11-25.7-13.6 4.5-12.7" class="C"/><path d="M83.9 114.3c-19-1.5-16-14.3 1.8-13.9" class="C"/><path d="M83.4 111.2c-22.3 9.1-17.6-17.2 2-12.1" class="C"/><path d="M82.5 116c-18.7-5.2-14.5-22.1 4.2-15.5" class="C"/><path d="M84.8 113.4c-23 5.5-20-20.3 1.1-13.7" class="C"/><path d="M84.1 115.1c-24.6 3.3-19.8-22.4 2-14.1" class="C"/></g><g stroke="#941e43"><path d="M61.7 133.4C54 111.2 33 94.4 8.9 101.5" class="C"/><path d="M64.9 131.7C40.4 117.5 47.1 96.1 12 100.4" class="C"/><path d="M64 132.7c-13.8-18-27.9-34.4-52.6-32.8" class="C"/><path d="M62.3 132.5c-14.9-17.7-24-41.2-51.8-30.5" class="C"/><path d="M64.1 132.7c-11-17.3-30.3-36.5-52.6-32.5" class="C"/><path d="M59.4 134c-13.1-32.1-16.9-29.9-49-33.5" class="C"/><path d="M66.8 130.7C37.8 122 50.3 96.4 9.6 99" class="C"/><path d="M59.9 134.4c-4-23.2-28.6-35.4-50.2-33.9" class="C"/><path d="M61.1 133.7c-4.2-21.3-30.5-33.7-50.3-34" class="C"/><path d="M67.9 130.1c-24.5-12-24.2-34-57.3-31.3" class="C"/><path d="M60.4 133.6c-12.2-20.4-25.2-38-51.7-35.8" class="C"/><path d="M63.5 132.7C48.6 115.2 35 95.5 9.5 98.4m51.9 34.5c-14-19.6-24.1-35-51.2-31.8" class="C"/><path d="M65.3 130.3c-18-12.5-28.7-37.7-54.6-31.7" class="C"/><path d="M62.4 133.3c-13.7-23.2-23.5-34.4-52.1-34.5" class="C"/></g><g stroke="#fac764"><path d="M61 133.9c-7.1-25.7-35.2-35.8-47.4-57.3" class="C"/><path d="M63.8 132.7c-16.4-19-31.9-37.8-51-54.1" class="C"/><path d="M65.1 131.3c-20.9-12.6-30.4-38.5-52.3-50.6" class="C"/><path d="M63.1 133.9c-11.3-22.4-33.2-37.3-51-53.7" class="C"/><path d="M66 131.3c-21.7-13.6-31.8-38.7-55-50.8" class="C"/><path d="M64.5 132.6C49 113 31.9 93 11 81.5" class="C"/><path d="M64.5 133.8c-15.2-20-34.1-36.5-51.7-54.3" class="C"/><path d="M66.4 132.3l-54.5-53" class="C"/><path d="M65.5 132.2C44 119.1 36.2 90.8 12 81.5" class="C"/><path d="M67.6 130.4C43.5 122 37 89.2 11.5 82.6" class="C"/><path d="M61.8 134.2C49.6 113.1 31.3 96.4 13.6 80" class="C"/><path d="M59 134.2C55.3 107.5 24.9 99 12.9 77.7" class="C"/><path d="M67 131.3c-22.8-11.8-31.2-39.7-54.6-51.2" class="C"/><path d="M62.1 134.1C53 108.7 28.3 97.7 13.7 77.3" class="C"/></g></g></g></svg>